<svg width="193" height="117" viewBox="0 0 193 117" fill="none" xmlns="http://www.w3.org/2000/svg">
<path d="M138.936 50.0526H54.2666C54.5929 49.6235 54.867 49.2231 55.1775 48.8599C55.8032 48.13 56.4606 47.4323 57.0784 46.7008C57.9734 45.6449 58.8494 44.5704 59.7349 43.5044C60.0739 43.0972 60.4113 42.6867 60.7599 42.288C61.8582 41.0243 62.9591 39.764 64.0627 38.5071C64.1153 38.4569 64.1714 38.4111 64.2306 38.3702H114.155C114.065 38.173 113.959 37.9843 113.839 37.806C112.888 36.7045 111.938 35.6097 110.997 34.5133C109.856 33.182 108.719 31.8462 107.586 30.506C106.914 29.7176 106.246 28.9241 105.582 28.1256C104.356 26.6524 103.138 25.1725 101.913 23.6993C101.509 23.2127 101.099 22.7346 100.687 22.2565C99.7273 21.1432 98.761 20.0366 97.8042 18.9233C97.4082 18.4621 97.0264 17.9873 96.5892 17.4619L91.9509 22.7904L98.2968 30.9503H70.4166C70.5243 30.7368 70.6472 30.5323 70.7841 30.3387C71.3068 29.7119 71.8486 29.1054 72.3682 28.4803C73.6967 26.9035 75.0237 25.3296 76.349 23.7584C76.7562 23.2752 77.1649 22.7921 77.5783 22.3139C78.5383 21.2023 79.5125 20.1025 80.4614 18.979C81.7097 17.5008 82.9373 16.0006 84.1809 14.5173C84.7305 13.8601 85.3008 13.2232 85.8584 12.5727C87.0835 11.1502 88.3059 9.72548 89.5256 8.29848C90.5965 7.04155 91.6563 5.77448 92.7224 4.51586C93.8841 3.1463 95.0457 1.77731 96.2074 0.408871C96.3056 0.280521 96.3961 0.14566 96.4783 0.00509892C96.5559 0.00509892 96.6367 -0.0134847 96.6668 0.0203037C97.519 1.03396 98.3618 2.04761 99.2109 3.06127C99.6307 3.56809 100.057 4.05803 100.478 4.55134C101.452 5.67819 102.433 6.79658 103.402 7.93019C104.564 9.29186 105.726 10.6586 106.887 12.0304C107.983 13.3211 109.077 14.613 110.17 15.906C111.293 17.2327 112.417 18.5572 113.541 19.8795C114.664 21.2017 115.8 22.5381 116.947 23.8885C118.081 25.2254 119.215 26.5628 120.349 27.9009C121.062 28.74 121.773 29.5819 122.483 30.4266C123.766 31.9583 125.048 33.4917 126.328 35.0269C126.733 35.5117 127.145 35.9915 127.557 36.4713C128.914 38.0481 130.273 39.6249 131.633 41.2017C132.349 42.0363 133.068 42.8692 133.774 43.7156C135.016 45.2023 136.247 46.6991 137.486 48.1875C137.904 48.6943 138.335 49.1792 138.753 49.6826C138.825 49.7992 138.886 49.9231 138.936 50.0526Z" fill="#C7CED2"/>
<path d="M45.2194 69.6357C43.9268 71.1326 42.65 72.6074 41.3558 74.1043C40.9645 73.7934 40.6287 73.5468 40.3166 73.2714C39.3472 72.4115 38.2209 72.0263 36.99 71.8387C35.9781 71.6973 34.9506 71.7545 33.958 72.0077C33.0542 72.2344 32.2125 72.6827 31.4995 73.317C29.7728 74.8037 29.1408 76.7786 29.098 79.0611C29.0543 80.4466 29.3375 81.8216 29.9217 83.06C30.6472 84.5805 31.7751 85.5772 33.2483 86.1685C34.1641 86.554 35.1465 86.7268 36.1298 86.6754C37.3432 86.607 38.5388 86.3339 39.6719 85.8661C39.8251 85.7865 39.9723 85.6945 40.1123 85.5907V82.1443H36.152V76.6959H45.5901V89.7214C44.4975 90.3679 43.3429 90.8873 42.1463 91.2706C39.5547 92.144 36.8855 92.2843 34.2115 92.1153C32.4902 91.9838 30.8155 91.4595 29.3007 90.5779C27.6793 89.6574 26.2945 88.3267 25.2676 86.7024C24.3335 85.2442 23.7339 83.5723 23.5172 81.8216C23.3672 80.83 23.2909 79.8273 23.2891 78.8229C23.3398 76.2887 23.9132 73.8745 25.2375 71.7509C26.3951 69.8562 28.0572 68.3737 30.0104 67.4935C31.7704 66.6995 33.5747 66.2146 35.4946 66.2721C36.0285 66.2873 36.5655 66.2518 37.0977 66.2721C38.742 66.3383 40.3648 66.6933 41.9007 67.3229C42.9985 67.7824 43.9379 68.4734 44.8567 69.2218C44.987 69.3501 45.1082 69.4884 45.2194 69.6357Z" fill="#C7CED2"/>
<path d="M64.83 85.5719V82.1609H60.8697V76.7041H70.1716V89.8546C69.3795 90.2127 68.551 90.6875 67.6655 90.9763C66.3795 91.4086 65.0675 91.7473 63.7385 91.99C62.6946 92.1691 61.6142 92.0981 60.5497 92.1387C59.3294 92.2082 58.1062 92.0829 56.9205 91.767C55.0402 91.2331 53.3214 90.385 51.8514 88.9845C49.7493 87.0096 48.5422 84.5008 48.1351 81.6034C47.6297 77.9897 48.1097 74.5332 50.1342 71.4668C51.444 69.4546 53.3204 67.9392 55.4917 67.1402C56.9628 66.5623 58.5178 66.2649 60.0856 66.2617C61.5825 66.2719 63.07 66.2871 64.5417 66.6537C66.0862 67.0372 67.5325 67.6302 68.8077 68.6523C69.1673 68.9411 69.5094 69.2537 69.9165 69.6068L65.9848 74.1851C64.8965 73.0296 63.7306 72.2017 62.2574 71.9331C59.7355 71.4736 57.4322 71.896 55.5614 73.8861C54.698 74.8035 54.2006 75.9844 53.9487 77.2565C53.822 77.8884 53.6794 78.5455 53.7222 79.1774C53.7671 80.1356 53.9225 81.0843 54.1848 82.0021C54.6378 83.4567 55.4109 84.7052 56.7098 85.5161C57.6014 86.0839 58.594 86.4476 59.6246 86.5838C61.3956 86.8136 63.0478 86.4149 64.6557 85.6851C64.7166 85.6524 64.7748 85.6145 64.83 85.5719Z" fill="#C7CED2"/>
<path d="M128.516 85.5973V82.1762H124.556V76.7092H133.846V89.8699C133.029 90.2365 132.189 90.7011 131.301 90.99C130.033 91.4039 128.741 91.8347 127.432 91.9935C125.124 92.2621 122.778 92.3972 120.5 91.7553C118.488 91.1893 116.673 90.2094 115.154 88.6079C113.391 86.7495 112.364 84.5414 111.891 81.9768C111.641 80.6324 111.573 79.2568 111.688 77.8918C111.892 75.4438 112.583 73.1614 114.023 71.1696C115.331 69.3202 117.119 67.9204 119.165 67.1437C120.655 66.5551 122.232 66.2564 123.821 66.2618C125.297 66.2753 126.762 66.2888 128.215 66.6504C129.761 67.0355 131.207 67.6268 132.492 68.6473C132.863 68.9446 133.216 69.269 133.612 69.6119L129.671 74.192C128.582 73.0094 127.393 72.1799 125.904 71.9214C123.409 71.4906 121.113 71.9028 119.261 73.8794C118.4 74.7985 117.893 75.9743 117.638 77.2464C117.511 77.8783 117.368 78.5355 117.411 79.169C117.46 80.1472 117.62 81.1154 117.886 82.0529C118.284 83.3385 118.964 84.4755 120.044 85.278C121.362 86.2925 122.971 86.7832 124.592 86.665C125.934 86.5636 127.279 86.3389 128.516 85.5973Z" fill="#C7CED2"/>
<path d="M92.3455 91.5928H85.6605C84.1144 88.4448 82.5514 85.2608 80.9716 82.0408H79.0199V91.5793H73.4629V66.8241C73.6403 66.8072 73.8098 66.7768 73.9793 66.7768C76.8893 66.7768 79.7993 66.7244 82.7077 66.7937C84.3948 66.8342 86.0882 67.064 87.6407 67.8361C89.117 68.571 90.2037 69.7502 90.7724 71.4227C91.1903 72.6519 91.3482 73.9643 91.235 75.2662C91.1403 76.6933 90.6434 78.0566 89.8093 79.1772C88.9887 80.2719 87.9084 80.8818 86.5951 81.316C88.4343 84.7743 90.435 88.0839 92.3455 91.5928ZM79.039 76.7934C80.5248 76.7225 81.9727 76.9235 83.4238 76.6684C84.7402 76.4353 85.3247 75.8811 85.4292 74.5211C85.5053 73.5311 85.1885 72.7574 84.2649 72.3941C83.676 72.1767 83.061 72.0498 82.4384 72.0174C81.5133 71.9566 80.5819 71.9988 79.6536 72.0022C79.4461 72.0022 79.2385 72.0258 79.039 72.0377V76.7934Z" fill="#C7CED2"/>
<path d="M94.1309 91.5655V66.8086H109.983V72.3499H99.7133V76.2694H109.503V81.7262H99.7244V86.0208H110.558V91.5655H94.1309Z" fill="#C7CED2"/>
<path d="M192.43 66.8242V72.3707H182.056V76.2885H191.826V81.7268H182.07V86.0214H193V91.5965H176.589V66.8242H192.43Z" fill="#C7CED2"/>
<path d="M159.7 91.5662H153.413C152.78 89.9196 152.132 88.2268 151.471 86.4878H143.11C142.489 88.1502 141.854 89.8531 141.209 91.5763H135.052C138.42 83.2677 141.759 75.0301 145.098 66.7891H149.573C151.286 70.8437 152.922 74.971 154.612 79.0796C156.303 83.1883 157.974 87.3274 159.7 91.5662ZM147.281 75.3105L147.112 75.3207C146.389 77.2939 145.665 79.2672 144.922 81.2979H149.516L147.281 75.3105Z" fill="#C7CED2"/>
<path d="M24.6503 91.5908H18.4105C17.6565 89.9791 17.1099 88.1951 16.3971 86.487H8.06627L6.13842 91.606H0C1.10888 88.8168 2.23359 86.085 3.3393 83.343C4.445 80.6011 5.54754 77.8439 6.66592 75.0986C7.7843 72.3533 8.92169 69.5809 10.0559 66.8086H14.5342C17.8846 75.0074 21.2429 83.24 24.6503 91.5908ZM14.4486 81.3343C14.0479 80.2328 13.6994 79.2259 13.3176 78.2325C12.9358 77.2391 12.6491 76.244 12.1723 75.3216L12.036 75.352C11.3169 77.3253 10.5993 79.2968 9.8579 81.3343H14.4486Z" fill="#C7CED2"/>
<path d="M162.533 72.1294H156.141V66.8398H174.47V72.121H168.123V91.59H162.533V72.1294Z" fill="#C7CED2"/>
<path d="M57.5197 108.2V116.561H54.9297V104.211H58.4337C60.0178 106.973 61.6336 109.786 63.2463 112.589L63.3904 112.555C63.468 111.187 63.4126 109.815 63.4221 108.445C63.4316 107.075 63.4221 105.664 63.4221 104.221H65.8711V116.554H62.5445L57.7019 108.151L57.5197 108.2Z" fill="#C7CED2"/>
<path d="M67.7461 116.603V104.21C67.9378 104.193 68.1089 104.166 68.2799 104.166C69.7246 104.166 71.1725 104.091 72.6125 104.181C74.553 104.301 76.3177 104.933 77.5375 106.695C78.1711 107.612 78.4325 108.69 78.5212 109.802C78.6459 111.104 78.3808 112.415 77.764 113.547C77.3588 114.32 76.7733 114.968 76.0642 115.429C74.7764 116.24 73.3855 116.691 71.8537 116.612C70.7084 116.554 69.5599 116.6 68.4114 116.6L67.7461 116.603ZM70.371 114.105C71.3864 114.03 72.3574 114.059 73.2873 113.86C74.0794 113.691 74.8334 113.273 75.2991 112.454C75.7126 111.722 75.7918 110.934 75.7886 110.109C75.7886 108.776 75.1851 107.871 74.1364 107.237C72.9483 106.517 71.6683 106.747 70.371 106.742V114.105Z" fill="#C7CED2"/>
<path d="M113.779 111.693H112.501V116.579H109.909V104.223C110.128 104.206 110.337 104.174 110.543 104.172C112.067 104.172 113.589 104.172 115.113 104.172C115.939 104.192 116.747 104.429 117.465 104.863C118.257 105.307 118.574 106.081 118.793 106.917C118.992 107.711 118.944 108.552 118.657 109.314C118.501 109.801 118.232 110.239 117.876 110.586C117.52 110.933 117.087 111.178 116.618 111.299C116.539 111.332 116.462 111.37 116.387 111.413C117.337 113.126 118.288 114.822 119.276 116.572H116.192L113.779 111.693ZM112.544 109.232C113.415 109.232 114.243 109.271 115.065 109.218C115.346 109.211 115.615 109.093 115.82 108.888C116.024 108.682 116.151 108.403 116.174 108.105C116.219 107.804 116.163 107.497 116.016 107.236C115.87 106.975 115.642 106.777 115.373 106.677C114.438 106.319 113.513 106.554 112.548 106.481L112.544 109.232Z" fill="#C7CED2"/>
<path d="M133.026 116.571H124.892C124.892 112.469 124.892 108.379 124.892 104.299C125.284 104.13 131.992 104.08 132.785 104.249V106.7H127.407V108.981H132.432V111.515H127.41V114.049H133.026V116.571Z" fill="#C7CED2"/>
<path d="M79.5867 104.207H82.1909C82.202 104.471 82.2195 104.695 82.2195 104.92C82.2195 107.221 82.2195 109.52 82.2195 111.821C82.2194 112.371 82.3818 112.906 82.6836 113.351C82.9853 113.797 83.4111 114.129 83.9002 114.301C85.1675 114.773 86.5393 113.727 86.7991 112.544C86.8995 112.053 86.9478 111.552 86.9432 111.049C86.9591 109.022 86.9432 106.995 86.9432 104.967V104.222H89.462V104.915C89.462 107.341 89.4731 109.769 89.462 112.196C89.4461 114.668 88.1012 116.339 85.9025 116.827C84.3184 117.178 82.7834 117.01 81.3941 115.982C80.6939 115.466 80.1842 114.705 79.9526 113.832C79.7462 113.115 79.6306 112.372 79.6088 111.622C79.5645 109.407 79.593 107.189 79.593 104.972L79.5867 104.207Z" fill="#C7CED2"/>
<path d="M98.8583 105.107L97.0683 107.135C96.1543 106.459 95.2133 106.038 94.1329 106.589C93.9366 106.685 93.7661 106.832 93.6373 107.017C93.5085 107.202 93.4256 107.418 93.3963 107.647C93.4724 108.338 93.927 108.643 94.4656 108.85C95.2577 109.152 96.0497 109.449 96.8418 109.728C98.2358 110.213 99.1213 111.894 98.7427 113.566C98.5653 114.366 98.3324 115.087 97.7748 115.675C97.1618 116.324 96.3887 116.641 95.5919 116.834C94.4748 117.119 93.3031 117.039 92.2289 116.606C91.5334 116.32 90.8443 116.004 90.3564 115.288L92.1845 113.235C92.8831 114.023 93.6736 114.535 94.6985 114.389C95.3321 114.3 95.8755 114.051 96.1685 113.448C96.3681 112.663 95.9531 112.247 95.4192 111.945C95.0835 111.779 94.7354 111.643 94.3785 111.539C93.3362 111.171 92.2795 110.845 91.4717 109.966C91.0004 109.45 90.7362 108.759 90.735 108.039C90.6638 106.447 91.2942 105.246 92.5552 104.491C93.6243 103.851 94.8676 103.625 96.0751 103.85C97.0895 104.004 98.0489 104.437 98.8583 105.107Z" fill="#C7CED2"/>
<path d="M134.122 115.395L135.926 113.235C136.411 113.806 137.052 114.201 137.759 114.363C138.431 114.52 139.007 114.331 139.552 113.976C139.986 113.692 139.978 113.206 139.925 112.697C139.619 112.147 139.109 111.863 138.539 111.646C137.707 111.331 136.864 111.031 136.059 110.646C134.817 110.053 134.279 108.528 134.556 107.098C134.906 105.304 136.204 104.237 138.051 103.889C138.942 103.738 139.854 103.791 140.725 104.044C141.419 104.236 142.06 104.6 142.595 105.108L140.902 107.051C140.305 106.803 139.793 106.544 139.266 106.387C138.619 106.208 138.011 106.462 137.51 106.884C137.01 107.306 137.127 108.295 137.727 108.573C138.491 108.937 139.294 109.214 140.089 109.501C141.111 109.871 142.071 110.374 142.396 111.554C142.963 113.618 142.337 115.634 140.281 116.514C138.44 117.301 136.627 117.081 134.895 116.074C134.648 115.936 134.452 115.688 134.122 115.395Z" fill="#C7CED2"/>
<path d="M105.375 116.573H102.896V106.592H99.5898V104.227H108.787V106.577H105.375V116.573Z" fill="#C7CED2"/>
<path d="M53.1946 116.572H50.7361C50.5777 116.135 50.508 105.263 50.6632 104.211H53.1978L53.1946 116.572Z" fill="#C7CED2"/>
<path d="M120.511 104.211H123.056V116.556H120.511V104.211Z" fill="#C7CED2"/>
</svg>
