<svg width="193" height="45" viewBox="0 0 193 45" fill="none" xmlns="http://www.w3.org/2000/svg">
<path d="M193 33.1042V34.8286C192.796 34.8169 192.593 34.7969 192.389 34.7969H166.337C166.201 34.7894 166.065 34.7894 165.929 34.7969C165.838 34.8069 165.715 34.8203 165.669 34.8836C165.216 35.5024 164.778 36.1328 164.274 36.8465C164.591 36.8615 164.787 36.8799 164.985 36.8799H192.382C192.587 36.8799 192.791 36.8799 192.995 36.8899V45H0V0H193V27.1554C192.796 27.1554 192.59 27.1654 192.386 27.1654C185.552 27.1654 178.718 27.1771 171.884 27.1488C171.25 27.1488 170.839 27.3272 170.521 27.8959C170.264 28.3545 169.93 28.7664 169.559 29.3001H191.445C191.963 29.3001 192.481 29.3001 193 29.3101V31.0345C192.796 31.0245 192.593 31.0045 192.389 31.0045C184.751 31.0045 177.112 31.0195 169.474 30.9795C168.643 30.9795 168.079 31.1763 167.686 31.9518C167.458 32.341 167.207 32.7147 166.934 33.0708C167.134 33.0892 167.238 33.1075 167.343 33.1075L193 33.1042ZM79.8221 25.0758H122.713C123.03 25.0758 123.297 25.0758 123.529 24.7422C127.3 19.3188 131.08 13.9026 134.869 8.49368C134.953 8.3736 135.027 8.24519 135.141 8.05841C134.927 8.04507 134.794 8.03006 134.666 8.03006C129.047 8.03006 123.427 8.03006 117.806 8.03006C117.673 8.02075 117.539 8.04925 117.42 8.1126C117.3 8.17595 117.199 8.27183 117.127 8.39028C115.04 11.3922 112.94 14.3841 110.853 17.3859C110.779 17.5109 110.674 17.6124 110.549 17.6799C110.425 17.7474 110.285 17.7783 110.146 17.7695C107.826 17.7545 105.508 17.7612 103.188 17.7612C103.073 17.7612 102.957 17.7445 102.77 17.7312C105.014 14.4975 107.229 11.3288 109.503 8.06841C109.229 8.05007 109.059 8.03006 108.89 8.03006C103.351 8.03006 97.8126 8.02616 92.2739 8.01838C92.0939 8.00761 91.9144 8.04845 91.7547 8.13655C91.5949 8.22465 91.4608 8.35671 91.3666 8.51869C87.6488 13.8554 83.9236 19.1921 80.191 24.5288C80.0881 24.6705 79.9931 24.8156 79.8221 25.0758ZM27.5827 16.8056L27.6287 16.929H28.2272C39.179 16.929 50.1313 16.929 61.0842 16.929C61.4507 16.9329 61.8156 16.9804 62.172 17.0707C62.2449 17.0795 62.3147 17.1066 62.3755 17.1498C62.4363 17.1931 62.4864 17.2511 62.5213 17.319C62.5563 17.387 62.5752 17.4628 62.5764 17.5401C62.5776 17.6173 62.5611 17.6937 62.5283 17.7628C62.4166 18.0701 62.2699 18.3619 62.0912 18.6317C61.2616 19.8608 60.4128 21.0749 59.5752 22.3007C59.2396 22.7894 58.8865 23.268 58.5919 23.7833C58.2974 24.2986 58.4463 24.7389 59.0195 24.904C59.3875 25.0102 59.7669 25.0663 60.1484 25.0708C64.6769 25.0808 69.2054 25.0808 73.7339 25.0708C73.8428 25.0636 73.9491 25.0332 74.0465 24.9817C74.1439 24.9301 74.2304 24.8583 74.3008 24.7706C75.6103 22.9361 76.9007 21.0799 78.1896 19.2254C78.8092 18.3383 79.1447 17.2665 79.1476 16.1652C79.1697 13.6436 78.1374 11.6623 76.2721 10.1614C74.3372 8.60542 72.0746 8.04006 69.701 8.03339C57.8351 8.00671 45.9691 8.02339 34.1032 8.01505C33.9758 8.0085 33.8492 8.03781 33.7362 8.09995C33.6232 8.16209 33.528 8.25482 33.4603 8.3686C32.0057 10.4721 30.5442 12.5707 29.0759 14.6642C28.5766 15.3747 28.0789 16.0885 27.5827 16.8056ZM72.5702 27.3122L72.5021 27.1671H51.9354C51.6773 27.1671 51.416 27.1671 51.1595 27.1421C50.0875 27.0404 49.8659 26.5434 50.4786 25.6278C50.5404 25.5344 50.6053 25.441 50.6702 25.3493C51.6963 23.8806 52.7207 22.4102 53.7436 20.9382C53.9144 20.6967 54.0594 20.4361 54.1759 20.161C54.3896 19.6374 54.2218 19.2905 53.6929 19.1604C53.4 19.0946 53.101 19.0627 52.8015 19.0653C47.8375 19.0653 42.8736 19.0653 37.9096 19.052C37.7565 19.0434 37.6039 19.0783 37.468 19.1531C37.332 19.2279 37.2177 19.3399 37.1369 19.4773C33.2122 25.1175 29.278 30.7521 25.3343 36.3812C25.2425 36.513 25.157 36.6514 25.0034 36.8816H25.5829C35.5657 36.8816 45.5485 36.8771 55.5312 36.8682C56.5669 36.8588 57.6004 36.764 58.622 36.5847C63.5622 35.7508 67.5999 33.1926 70.9456 29.3451C71.5188 28.6964 72.0318 27.991 72.5702 27.3105V27.3122ZM167.783 27.2972L167.735 27.1671H128.097C127.961 27.1559 127.825 27.1598 127.69 27.1788C127.569 27.195 127.458 27.2538 127.373 27.3456C126.619 28.4362 125.807 29.4919 125.156 30.6426C124.23 32.2586 124.604 34.0248 126.048 35.1455C126.584 35.5456 127.166 35.8723 127.78 36.1177C129.18 36.7031 130.666 36.8732 132.153 36.8766C141.675 36.8955 151.195 36.9005 160.715 36.8916C160.835 36.8982 160.955 36.8708 161.062 36.8122C161.17 36.7535 161.26 36.6658 161.324 36.558C162.926 34.251 164.533 31.9484 166.146 29.6503L167.783 27.2972ZM159.725 8.05841C159.478 8.0434 159.345 8.03006 159.214 8.03006C153.253 8.03006 147.292 8.03006 141.331 8.03006C141.191 8.02022 141.051 8.04961 140.926 8.11524C140.8 8.18087 140.694 8.28038 140.617 8.40362C136.83 13.8337 133.039 19.2593 129.245 24.6805C129.175 24.7789 129.116 24.8857 129.01 25.0574C129.226 25.0691 129.368 25.0825 129.512 25.0825C135.459 25.0825 141.407 25.0858 147.354 25.0925C147.507 25.1021 147.66 25.0679 147.797 24.9937C147.933 24.9194 148.048 24.8078 148.13 24.6705C151.402 19.9687 154.683 15.2713 157.972 10.5783C158.536 9.76281 159.098 8.95397 159.725 8.05674V8.05841ZM71.5805 36.8449C71.8006 36.8649 71.9067 36.8816 72.0128 36.8816C77.674 36.8816 83.3341 36.8816 88.9931 36.8816C89.1137 36.8882 89.2338 36.8608 89.341 36.8022C89.4482 36.7435 89.5386 36.6558 89.6027 36.548C91.6643 33.5895 93.7285 30.631 95.7954 27.6724C95.8872 27.5407 95.9711 27.4006 96.0994 27.2005C95.8856 27.1855 95.7542 27.1688 95.6244 27.1688C90.0044 27.1688 84.3854 27.166 78.7676 27.1604C78.6275 27.1527 78.4881 27.1843 78.3634 27.252C78.2388 27.3197 78.1335 27.421 78.0582 27.5457C76.3624 29.9939 74.6507 32.4288 72.9454 34.8703C72.51 35.5007 72.073 36.1361 71.5805 36.8449ZM121.763 27.1938C121.51 27.1804 121.364 27.1671 121.218 27.1671C115.624 27.1671 110.033 27.1671 104.447 27.1671C104.307 27.1563 104.167 27.1849 104.041 27.25C103.915 27.315 103.807 27.4142 103.73 27.5373C101.662 30.5159 99.5876 33.4894 97.507 36.458C97.431 36.568 97.363 36.6848 97.2521 36.8615C97.4564 36.8749 97.5862 36.8916 97.7176 36.8916C103.334 36.8916 108.952 36.8916 114.57 36.8916C114.71 36.9011 114.85 36.8711 114.975 36.8049C115.101 36.7387 115.207 36.6385 115.284 36.5147C117.342 33.5483 119.409 30.5865 121.483 27.6291C121.562 27.5157 121.633 27.3973 121.763 27.1938ZM28.5708 27.2155H0.120338V29.2684C0.313512 29.2801 0.487686 29.2984 0.660276 29.2984H26.601C26.7098 29.308 26.8193 29.3041 26.9272 29.2868C27.0326 29.2715 27.1304 29.2206 27.2059 29.1417C27.654 28.5313 28.0863 27.9076 28.5724 27.2155H28.5708ZM0.118755 33.0625C0.326179 33.0742 0.514603 33.0925 0.701444 33.0925H13.4589C16.9624 33.0925 20.467 33.0925 23.9726 33.0925C24.1547 33.0925 24.4191 33.0925 24.5078 32.9841C24.9828 32.3804 25.4024 31.7383 25.8933 31.0395H0.118755V33.0625ZM0.118755 36.8866H0.752113C7.30895 36.8866 13.8658 36.8599 20.421 36.9132C21.4408 36.9132 22.177 36.7248 22.6378 35.7275C22.8171 35.4116 23.0204 35.1115 23.2458 34.8303H0.117171L0.118755 36.8866Z" fill="#C7CED2"/>
</svg>
