<svg width="98" height="95" viewBox="0 0 98 95" fill="none" xmlns="http://www.w3.org/2000/svg">
<path fill-rule="evenodd" clip-rule="evenodd" d="M96.2335 50.4078L94.6446 47.9616L94.2907 47.2093L93.4095 47.3985C91.8206 47.9616 90.2317 48.3385 88.6428 48.3385C87.0152 48.3165 85.4031 47.9986 83.876 47.3985V18.8064C83.876 14.1046 82.1136 9.59056 78.9317 6.38768C75.9301 3.0014 71.6921 1.30899 67.2725 1.30899C62.1519 1.30899 57.3852 3.75519 54.3836 8.0801C51.5623 3.76674 46.9718 1.13281 42.0275 1.13281C37.2608 1.13281 33.0228 3.38985 30.1974 7.34219V2.26205H14.307V3.57757C14.307 3.57757 14.307 41.192 14.4832 47.5862C13.0706 47.9616 11.4817 48.3385 10.069 48.3385C8.12623 48.3385 6.5441 47.9616 4.94841 47.5862L4.06719 47.2093L3.7147 47.9616L2.12579 50.5956L1.5957 51.7234L2.65452 52.288C4.94977 53.2281 7.24637 53.6049 10.0703 53.6049C12.3656 53.6049 14.6622 53.2281 16.7798 52.288C20.3119 50.7833 23.8436 50.0309 27.3748 50.0309C30.9372 50.0274 34.4692 50.729 37.7909 52.1003C41.3898 53.606 45.2242 54.3714 49.0908 54.3558C53.1512 54.3558 57.0367 53.6049 60.567 52.1003C63.8896 50.7289 67.4225 50.0272 70.9858 50.0309C74.6044 50.0449 78.1917 50.7457 81.5794 52.1003C83.8747 53.2281 86.1699 53.6049 88.6414 53.6049C91.1129 53.6049 93.4095 53.2295 95.7047 52.1003L96.7635 51.7234L96.2335 50.4078ZM30.0212 44.7645V20.883C30.0212 17.4981 32.6689 14.8656 35.6719 14.8656C36.3915 14.8607 37.105 15.007 37.7715 15.2961C38.438 15.5853 39.0444 16.0117 39.556 16.5508C40.6162 17.6786 41.3185 19.1833 41.3185 20.8757V47.7739C40.3965 47.6041 39.5039 47.2872 38.6707 46.8338C35.9076 45.6607 32.9872 44.9623 30.0185 44.7645H30.0212ZM59.6845 46.8338C58.8019 47.2093 57.922 47.5862 56.8591 47.7739V20.883C56.8591 17.4981 59.5082 14.8656 62.5098 14.8656C64.0987 14.8656 65.3351 15.4288 66.394 16.5581C67.4528 17.6873 68.1564 19.1906 68.1564 20.883V44.7674C65.2451 44.9651 62.3832 45.664 59.6818 46.8367L59.6845 46.8338Z" fill="#C7CED2"/>
<path fill-rule="evenodd" clip-rule="evenodd" d="M82.1069 70.1511C81.4005 61.4999 74.8673 54.918 66.7465 54.918C58.6257 54.918 52.091 61.4999 51.2071 70.1511C51.2071 71.468 51.0322 72.785 51.0322 74.1005C51.0322 75.6052 51.2071 76.9221 51.2071 78.0499C51.9148 86.7011 58.6243 93.4722 66.7465 93.4722C74.8686 93.4722 81.4005 86.7011 82.1069 78.2391H72.3944C71.5119 81.4362 69.3929 83.8809 66.5648 83.8809C63.5632 83.8809 60.9155 80.4961 60.5616 76.1698V72.2204C60.9155 67.8955 63.5632 64.5107 66.5648 64.5107C69.2139 64.5107 71.5091 66.7663 72.3944 70.1511H82.1069Z" fill="#C7CED2"/>
<path fill-rule="evenodd" clip-rule="evenodd" d="M27.1969 66.954C26.6682 64.5107 28.2571 62.6291 31.4349 62.6291C32.3175 62.6291 33.9064 62.4414 34.789 63.5692C35.6729 64.3215 35.8492 65.0739 36.0254 66.2031H46.9729C46.2666 56.6104 37.2618 54.918 30.7286 54.918C24.5492 54.918 15.7207 57.5505 15.7207 66.7663C15.7207 76.7302 25.7856 77.1114 31.4349 78.8038C33.9064 79.367 35.3191 79.5547 35.6729 81.624C36.2017 84.0688 34.4365 85.7612 32.3175 85.9561C31.4349 85.9561 29.3159 86.333 28.0795 85.016C27.3745 84.2637 27.0207 83.7005 27.0207 82.3836H16.0745C16.7795 91.9749 25.608 93.855 32.1413 93.855C38.4983 93.855 47.3254 91.0348 47.3254 81.8189C47.3254 71.8551 37.2605 71.4753 31.4336 69.7829C31.4336 69.7829 27.7257 69.0305 27.1956 66.9612L27.1969 66.954Z" fill="#C7CED2"/>
<path fill-rule="evenodd" clip-rule="evenodd" d="M82.1084 76.9262H71.5147L71.3385 77.8663C70.6335 80.8757 68.6894 82.7558 66.5663 82.7558C64.0949 82.7558 61.9759 79.9356 61.7996 76.1739C61.6234 75.6093 61.6234 74.8584 61.6234 74.1046C61.6234 73.3508 61.6234 72.7891 61.7996 72.2273C61.9759 68.4728 64.0949 65.6454 66.5663 65.6454C68.6853 65.6454 70.6335 67.5227 71.3344 70.3472L71.5107 71.2873H83.3407L83.1645 69.9703C82.4568 60.7559 75.3948 53.6094 66.7439 53.6094C58.0931 53.6094 51.0338 60.753 50.1499 69.9674C49.9736 71.2844 49.9736 72.6013 49.9736 74.1046C49.9736 75.797 49.9736 77.1154 50.1499 78.2432C50.8562 87.459 58.0958 94.6056 66.748 94.6056C75.2227 94.6056 82.4609 87.459 83.1686 78.2432L83.3448 76.9262H82.1084ZM66.748 92.3486C59.3322 92.3486 52.9752 85.9529 52.4451 78.0526C52.2689 76.9248 52.2689 75.6078 52.2689 74.1031C52.2689 72.5985 52.2689 71.4707 52.4451 70.3487C53.1515 62.0729 59.156 56.0527 66.748 56.0527C73.81 56.0527 79.6369 61.5068 80.872 69.0302L73.1036 68.8425C72.0448 65.4534 69.572 63.1949 66.5663 63.1949C62.8584 63.1949 59.8569 66.9566 59.5044 72.0353V76.3602C59.8609 81.2454 62.8625 85.202 66.5663 85.202C69.5679 85.202 72.0408 82.7558 73.2758 79.371H80.8679C79.8091 86.7053 73.8059 92.3486 66.7439 92.3486H66.748Z" fill="#C7CED2"/>
<path fill-rule="evenodd" clip-rule="evenodd" d="M34.6123 69.4014C33.6872 69.084 32.7433 68.8322 31.787 68.6476C30.3756 68.4599 28.4329 67.5198 28.2621 66.7704C28.2621 66.2072 28.2621 65.4534 28.6146 64.8931C29.1446 64.3285 30.2035 63.953 31.4399 63.7639H31.7924C32.5001 63.7639 33.5548 63.7639 34.089 64.3285C34.6177 65.0808 34.794 65.4563 34.9716 66.3963V67.3379H48.0367V66.0209C47.5079 58.122 41.3272 53.6094 30.7336 53.6094C23.3177 53.6094 14.4893 56.9942 14.4893 66.7732C14.4893 76.1768 22.4352 77.8692 28.2621 79.192C29.3209 79.3797 30.3811 79.5674 31.2636 79.9443H31.7924C34.089 80.6967 34.4415 80.8844 34.6177 82.0136C34.794 82.5768 34.6177 83.1414 34.4415 83.7061C34.1659 84.0066 33.8361 84.2448 33.472 84.4063C33.1079 84.5679 32.7169 84.6494 32.3225 84.6461H31.97C31.086 84.8339 29.6734 84.8339 28.7922 84.2692C28.2621 83.7061 28.0845 83.3292 28.0845 82.392L27.9082 81.2627H14.8377L15.0139 82.5797C15.544 90.4786 21.7234 94.9985 32.1408 94.9985C37.6152 94.9985 42.5582 93.1212 45.3835 90.1089C47.3263 88.0396 48.3851 85.2194 48.3851 81.8331C48.3851 72.4296 40.4392 70.7371 34.6123 69.4144V69.4014ZM32.1408 92.5335C25.9614 92.5335 18.5456 91.0288 17.3092 83.6945H25.9614C26.3139 84.4454 26.6677 85.1992 27.3741 85.9501C28.7867 87.2671 30.899 87.0793 32.1408 87.0793H32.4946C33.906 86.8916 35.3186 86.1378 36.2012 85.01C36.9075 84.07 37.0851 82.753 36.7313 81.4375C36.1985 78.805 34.436 78.2404 32.317 77.6757H31.787C30.9057 77.2989 29.8456 77.1126 28.7867 76.9234C23.1361 75.6064 16.7791 74.2909 16.7791 66.7675C16.7791 64.135 17.4854 61.8779 19.2519 60.1855C22.7836 56.2361 28.963 56.0469 30.7281 56.0469C36.9075 56.0469 44.3247 57.5516 45.5598 65.0751H36.9075C36.7313 64.135 36.3788 63.3826 35.6725 62.818C34.436 61.5011 32.6695 61.5011 31.787 61.5011H31.4345C29.4917 61.5011 27.9028 62.2548 26.844 63.3783C26.1376 64.5075 25.7852 65.8231 26.1377 67.14C26.6677 69.9602 30.5519 70.8945 31.2582 70.8945C32.1408 71.2714 33.0207 71.4592 34.0836 71.6469C39.7329 72.9638 46.2661 74.2808 46.2661 81.8028C46.2661 92.3356 33.5535 92.5234 32.1408 92.5234V92.5335Z" fill="#C7CED2"/>
<path fill-rule="evenodd" clip-rule="evenodd" d="M35.4947 13.7344C34.6132 13.7338 33.7402 13.9184 32.9258 14.2775C32.1113 14.6366 31.3714 15.1633 30.7482 15.8273C30.125 16.4913 29.6309 17.2797 29.294 18.1474C28.9572 19.015 28.7843 19.9449 28.7852 20.8838V45.8945C32.1392 46.0822 35.3171 46.8346 37.9661 47.9624C39.3775 48.527 40.7915 48.9039 42.2042 49.2793V20.8838C42.2045 19.9452 42.0312 19.0157 41.6942 18.1485C41.3571 17.2813 40.8629 16.4933 40.2398 15.8296C39.6167 15.1659 38.8769 14.6395 38.0627 14.2805C37.2485 13.9215 36.3759 13.7369 35.4947 13.7373V13.7344ZM40.0852 20.8838V46.27L39.9076 46.4591C39.3775 46.0822 38.6725 45.8945 37.9661 45.7053C35.7031 44.7086 33.3329 44.014 30.9096 43.6375V20.8838C30.9096 18.0636 32.851 15.9943 35.5001 15.9943C37.9716 15.9943 39.913 18.0636 39.913 20.8838H40.0852Z" fill="#C7CED2"/>
<path fill-rule="evenodd" clip-rule="evenodd" d="M62.3345 13.7344C61.4531 13.734 60.5802 13.9187 59.7658 14.2779C58.9515 14.6371 58.2116 15.1637 57.5884 15.8277C56.9653 16.4917 56.4711 17.28 56.1342 18.1476C55.7973 19.0152 55.6243 19.945 55.625 20.8838V49.2793C57.0661 48.9534 58.4822 48.5132 59.8616 47.9624C62.8032 46.7698 65.901 46.0722 69.044 45.8945V20.8838C69.0443 19.9452 68.871 19.0157 68.534 18.1485C68.1969 17.2813 67.7027 16.4933 67.0796 15.8296C66.4565 15.1659 65.7167 14.6395 64.9025 14.2805C64.0883 13.9215 63.2157 13.7369 62.3345 13.7373V13.7344ZM66.925 20.8838V43.6375C64.2759 44.0129 61.9806 44.7653 59.8616 45.5147C59.1567 45.8916 58.449 46.0793 57.744 46.4562V20.8838C57.744 19.587 58.2276 18.3434 59.0885 17.4264C59.9494 16.5094 61.117 15.9943 62.3345 15.9943C63.552 15.9943 64.7196 16.5094 65.5805 17.4264C66.4413 18.3434 66.925 19.587 66.925 20.8838Z" fill="#C7CED2"/>
<path fill-rule="evenodd" clip-rule="evenodd" d="M98 51.5309L94.6446 45.889C92.7018 46.6414 90.5774 47.2045 88.4652 47.2045C87.2288 47.2045 85.8161 47.0168 84.7573 46.6414V18.8075C84.7653 16.3354 84.3141 13.8859 83.4296 11.6002C82.5451 9.31456 81.2449 7.23786 79.6036 5.48975C77.9624 3.74163 76.0127 2.35663 73.8669 1.41453C71.721 0.472423 69.4213 -0.00817689 67.1003 0.000409518C61.9797 0.000409518 57.3892 2.44516 54.2114 6.20977C51.2085 2.45527 46.7956 0.000409518 41.8513 0.000409518C37.8489 -0.0295705 33.9902 1.58756 31.08 4.51447V1.1282H13.0706V46.8291C12.0117 47.0168 10.9529 47.2045 9.89273 47.2045C7.59749 47.2045 5.30224 46.8291 3.35949 45.889L0 51.7186C0.528733 52.0955 0.882579 52.2832 1.41267 52.6587C3.88416 54.1633 6.70949 54.728 9.88731 54.728C12.0063 54.728 14.3016 54.3511 16.2443 53.6002C19.692 51.9775 23.4212 51.1441 27.1904 51.154C30.9274 51.1517 34.6354 51.8527 38.1433 53.2247C41.3212 54.7294 45.0291 55.4818 48.9146 55.4818C52.9818 55.4818 56.6829 54.7294 59.8607 53.2247C63.3671 51.8539 67.0731 51.1534 70.8082 51.1554C74.8754 51.1554 78.5779 51.9092 81.7557 53.4124C83.8747 54.3525 86.1699 54.7294 88.4652 54.7294C91.4668 54.7294 94.2948 53.9771 96.5873 52.4724V52.6601C97.1174 52.2847 97.4699 51.9092 98 51.5323V51.5309ZM88.4652 52.4709C86.1699 52.4709 83.8747 51.9078 81.7557 51.154C78.5779 49.6507 74.8686 48.8926 70.8082 48.8926C67.0732 48.8901 63.3671 49.5901 59.8607 50.9605C56.3756 52.4325 52.6636 53.2003 48.9146 53.2247C45.0291 53.2247 41.3225 52.2847 38.1433 50.9677C34.6373 49.5949 30.9313 48.8924 27.1959 48.8926C23.4474 48.9152 19.7356 49.68 16.2497 51.1482C14.307 52.0897 12.0117 52.4652 9.89273 52.4652C7.42124 52.4652 5.126 52.0897 3.007 51.1482L4.41967 48.7049C6.18211 49.2681 7.94455 49.4558 9.89273 49.4558C11.8409 49.4558 13.6006 49.0803 15.3658 48.5157V3.57296H28.7875V11.6596L29.4925 10.3426C31.7877 5.64082 36.3796 2.256 41.8526 2.256C44.368 2.25624 46.8349 2.99304 48.9837 4.38586C51.1325 5.77867 52.8805 7.7739 54.0365 10.1534C56.8605 5.45309 61.6286 2.44372 67.1017 2.44372C75.7539 2.44372 82.462 9.77798 82.462 18.8061V48.3338H82.6396C84.497 49.1041 86.4761 49.487 88.4692 49.4616C90.2122 49.4401 91.9407 49.1228 93.5898 48.5215L95.0025 51.154C93.0597 51.9078 90.7645 52.4709 88.4692 52.4709H88.4652Z" fill="#C7CED2"/>
</svg>
