<svg width="193" height="78" viewBox="0 0 193 78" fill="none" xmlns="http://www.w3.org/2000/svg">
<path d="M151.461 70.5996L177.488 77.9984L187.46 27.6133L151.459 70.6013L151.461 70.5996ZM103.414 56.9787L137.486 66.6279L187.46 27.6133L103.414 56.9787ZM0 27.6133H187.46L83.6395 51.3441L0 27.6133Z" fill="#C7CED2"/>
<path d="M7.1101 0.0078125H13.8738L18.3181 16.4768H18.3818L21.563 0.0078125H26.8308L22.0297 23.759H15.2979L10.7564 7.32431H10.6942L7.54498 23.759H2.28027L7.1101 0.0078125Z" fill="#C7CED2"/>
<path d="M37.9769 13.7833C37.9849 11.9816 37.3398 10.4676 35.3565 10.4676C33.0213 10.4676 31.7565 12.1803 31.3614 13.7833H37.9769ZM39.366 23.2134C37.5969 23.7951 35.7613 24.1098 33.9117 24.1485C28.706 24.1485 25.9071 20.7043 25.9278 16.486C25.9486 12.5947 28.3714 6.60547 35.3183 6.60547C39.417 6.60547 42.4866 8.83196 42.4659 13.9118C42.4147 14.9738 42.2794 16.0293 42.0613 17.0666H31.0157C31.0667 18.8717 31.8966 20.2864 35.1893 20.2864C36.6229 20.2864 38.5743 19.8993 40.0749 19.1269L39.366 23.2134Z" fill="#C7CED2"/>
<path d="M44.4449 6.99153H46.8965L48.0004 1.7576L53.3607 1.74219L52.2552 6.99153H56.5992L55.9206 11.0471H51.3743L50.4185 15.7124C50.1748 16.9696 49.9597 17.807 49.955 18.6103C49.955 19.7355 51.266 20.3606 52.3444 20.3606C52.9147 20.3606 53.5136 20.1037 54.0823 19.8794L53.4658 23.8185C52.3571 24.0202 51.2355 24.1285 50.1111 24.1422C47.3569 24.1422 44.5469 22.6916 44.5644 19.1755C44.5644 18.3414 44.6934 17.5022 45.0598 15.733L46.0156 11.0334H43.7695L44.4449 6.99153Z" fill="#C7CED2"/>
<path d="M77.627 23.761H71.3699L71.2185 11.625H71.158L65.7388 23.761H59.4546L58.04 6.99219H63.3971L63.4879 19.1265H63.5485L68.7272 6.99219H75.2519L75.314 19.1265H75.3729L80.4338 6.99219H85.8816L77.627 23.761Z" fill="#C7CED2"/>
<path d="M94.6912 10.6628C92.0835 10.6628 90.4555 13.6874 90.4428 16.3592C90.43 18.6114 91.5323 20.1271 93.3595 20.0912C95.8731 20.0912 97.4693 17.8407 97.4884 14.0419C97.4884 12.3019 96.7859 10.6628 94.6912 10.6628ZM92.9485 24.1485C87.1692 24.1485 84.8515 20.7043 84.8722 16.486C84.9009 10.5977 88.8721 6.60547 94.9811 6.60547C100.278 6.60547 103.078 9.88869 103.056 14.1053C103.021 21.0914 98.7851 24.1485 92.9485 24.1485Z" fill="#C7CED2"/>
<path d="M111.773 6.99391L111.158 10.4364H111.217C112.095 8.47537 113.841 6.60685 116.055 6.60685C116.83 6.58972 117.602 6.73214 118.328 7.02645L117.082 12.1422C116.396 11.565 115.618 11.4366 114.6 11.4366C112.326 11.4366 110.968 13.5603 110.564 16.0385L109.003 23.7627H103.607L106.091 11.3629C106.365 9.91402 106.617 8.49935 106.771 6.98706L111.773 6.99391Z" fill="#C7CED2"/>
<path d="M122.065 0.0078125H127.515L124.647 14.0432H124.706L129.922 6.9938H136.059L129.584 15.0725L133.582 23.7626H127.593L124.431 15.4595H124.37L122.683 23.7626H117.205L122.065 0.0078125Z" fill="#C7CED2"/>
<path d="M144.321 9.87012H146.661C149.226 9.87012 151.226 9.18506 151.236 6.94317C151.236 5.23906 150.296 4.52659 148.528 4.49234H145.366L144.321 9.87012ZM140.816 0H147.532C151.744 0.0308281 156.811 0.171266 156.771 6.05772C156.752 10.0911 154.063 12.3946 150.664 12.833V12.9033C152.405 13.0745 152.964 15.5922 153.272 17.1233L154.834 23.7616H149.297L148.182 17.7005C147.628 14.6022 146.737 14.3642 144.077 14.3642H143.44L141.632 23.7616H136.057L140.824 0H140.816Z" fill="#C7CED2"/>
<path d="M163.456 20.2829C165.763 20.2829 167.146 18.5702 167.549 16.3232C167.074 16.2462 166.594 16.2135 166.115 16.2255C163.541 16.1296 161.655 17.1264 161.643 18.6079C161.643 19.3803 162.324 20.2829 163.461 20.2829H163.456ZM167.045 21.4064L166.986 21.3447V21.4064C165.836 23.3383 163.827 24.1467 161.729 24.1467C158.384 24.1467 156.53 22.535 156.546 19.2861C156.567 15.1654 160.407 13.1376 165.167 13.1376C166.244 13.1376 167.322 13.2352 168.069 13.3089C168.12 13.0847 168.141 12.8542 168.133 12.6238C168.133 11.4352 167.037 10.4675 165.266 10.4675C163.319 10.4675 162 10.7895 160.199 11.788L160.758 7.57313C162.351 6.99253 164.055 6.60547 166.48 6.60547C170.191 6.60547 173.239 8.18284 173.218 12.3018C173.207 14.9428 171.811 18.7089 171.19 23.7613H166.785L167.039 21.4098L167.045 21.4064Z" fill="#C7CED2"/>
<path d="M178.792 0.0078125H184.243L183.383 4.25695H177.932L178.789 0.0078125H178.792ZM177.382 6.99209H182.83L179.514 23.7609H174.067L177.382 6.99209Z" fill="#C7CED2"/>
<path d="M187.552 0.0078125H193L188.29 23.7626H182.842L187.552 0.0078125Z" fill="#C7CED2"/>
</svg>
