<svg width="193" height="60" viewBox="0 0 193 60" fill="none" xmlns="http://www.w3.org/2000/svg">
<path d="M28.1666 60C12.6369 60 0 46.5423 0 29.9996C0 13.4568 12.6369 0 28.1666 0C43.6963 0 56.3413 13.4577 56.3413 29.9996C56.3413 46.5415 43.7036 60 28.1666 60ZM28.1666 12.7834C19.253 12.7834 12.0005 20.5062 12.0005 29.9996C12.0005 39.4929 19.2563 47.2166 28.1666 47.2166C37.0768 47.2166 44.3335 39.4929 44.3335 29.9996C44.3335 20.5062 37.0842 12.7834 28.1666 12.7834Z" fill="#C7CED2"/>
<path d="M74.8332 19.0194H68.3301V15.3203H85.1126V19.0194H78.6095V38.299H74.8332V19.0194Z" fill="#C7CED2"/>
<path d="M91.9191 15.3203H95.1759L104.291 38.299H99.9881L98.0151 33.0409H88.8409L86.9282 38.299H82.7139L91.9191 15.3203ZM96.7003 29.5357L93.4427 20.1887L90.1255 29.5357H96.7003Z" fill="#C7CED2"/>
<path d="M106.688 15.3204H113.865C114.83 15.3175 115.793 15.4207 116.739 15.6286C117.613 15.8117 118.449 16.1688 119.208 16.6827C119.926 17.1796 120.519 17.8723 120.929 18.6953C121.357 19.5397 121.571 20.611 121.571 21.909C121.571 23.5749 121.158 24.9703 120.331 26.0953C119.505 27.2203 118.323 27.902 116.786 28.1406L122.271 38.299H117.837L113.052 28.5622H110.367V38.299H106.688V15.3204ZM113.224 25.0571C113.748 25.0571 114.273 25.03 114.799 24.9756C115.296 24.9301 115.783 24.7986 116.243 24.5859C116.671 24.3899 117.04 24.0639 117.308 23.6452C117.58 23.2235 117.716 22.633 117.716 21.8735C117.716 21.2033 117.59 20.6624 117.337 20.2508C117.091 19.8469 116.748 19.5275 116.347 19.3286C115.917 19.1166 115.46 18.9798 114.993 18.9229C114.514 18.8592 114.032 18.8267 113.549 18.8255H110.369V25.0571H113.224Z" fill="#C7CED2"/>
<path d="M125.872 15.3203H131.611L137.259 31.4181L142.968 15.3203H148.646V38.299H145.058V19.2152H144.998L138.573 38.299H135.943L129.518 19.2152H129.459V38.299H125.87L125.872 15.3203Z" fill="#C7CED2"/>
<path d="M160.248 15.3203H163.506L172.621 38.299H168.317L166.345 33.0409H157.17L155.258 38.299H151.044L160.248 15.3203ZM165.03 29.5357L161.772 20.1887L158.455 29.5357H165.03Z" fill="#C7CED2"/>
<path d="M189.573 21.0036C188.792 20.1388 188.036 19.5622 187.304 19.2739C186.6 18.9911 185.851 18.8445 185.094 18.8415C183.992 18.8415 182.994 19.0422 182.103 19.4434C181.233 19.8303 180.451 20.3983 179.806 21.1114C179.157 21.8332 178.652 22.6777 178.317 23.598C177.962 24.5754 177.783 25.6116 177.791 26.6551C177.78 27.7596 177.958 28.8575 178.317 29.8986C178.644 30.8455 179.15 31.7167 179.806 32.4618C180.449 33.1847 181.231 33.7629 182.103 34.1602C182.994 34.5721 183.991 34.7781 185.094 34.7781C185.968 34.7752 186.828 34.5582 187.604 34.145C188.416 33.723 189.173 33.0487 189.874 32.1221L193 34.4072C192.039 35.7659 190.866 36.7541 189.483 37.3716C188.089 37.9921 186.584 38.3078 185.064 38.2988C183.423 38.2988 181.915 38.026 180.54 37.4804C179.212 36.971 178.003 36.1816 176.991 35.1629C175.979 34.1442 175.185 32.9188 174.662 31.5658C174.101 30.166 173.82 28.6115 173.82 26.9021C173.82 25.1523 174.101 23.5617 174.662 22.1305C175.185 20.7591 175.979 19.5135 176.992 18.4715C178.004 17.4494 179.213 16.6551 180.54 16.1392C181.912 15.5942 183.42 15.3214 185.064 15.3208C186.439 15.3073 187.804 15.5749 189.078 16.1081C190.31 16.6335 191.457 17.5241 192.52 18.78L189.573 21.0036Z" fill="#C7CED2"/>
<path d="M74.4561 45.9531H75.4959L79.1178 54.8892H77.7795L76.9305 52.6803H72.9025L72.0657 54.8892H70.7266L74.4561 45.9531ZM76.5121 51.6203L74.9348 47.5187H74.9104L73.3086 51.6203H76.5121Z" fill="#C7CED2"/>
<path d="M88.3657 48.7225C88.1947 48.4674 87.9764 48.2652 87.7289 48.1325C87.4529 47.9891 87.1551 47.9189 86.8551 47.9265C86.544 47.9225 86.2358 47.9993 85.951 48.152C85.6662 48.3046 85.4115 48.5294 85.2038 48.8115C84.9912 49.1023 84.8267 49.4403 84.7192 49.8069C84.4864 50.6175 84.4864 51.5003 84.7192 52.311C84.8271 52.674 84.9896 53.0093 85.1984 53.2998C85.3969 53.5764 85.6405 53.7996 85.9137 53.9554C86.1911 54.1114 86.4934 54.1911 86.799 54.1885C87.1323 54.1968 87.462 54.1024 87.7573 53.9142C88.0353 53.7311 88.2716 53.4669 88.445 53.1453L89.9064 54.477C89.5831 55.0389 89.1382 55.4808 88.6211 55.7533C88.1168 56.0242 87.5717 56.1645 87.0205 56.1654C86.4328 56.1724 85.8488 56.0516 85.296 55.8086C84.7887 55.5847 84.3243 55.2367 83.9316 54.786C83.5426 54.3313 83.2372 53.7814 83.0355 53.1725C82.6067 51.8118 82.6067 50.306 83.0355 48.9454C83.2374 48.3369 83.5427 47.7873 83.9316 47.3328C84.3247 46.8827 84.7889 46.5348 85.296 46.3102C85.8488 46.0672 86.4328 45.9463 87.0205 45.9534C87.2567 45.9545 87.4924 45.9799 87.725 46.0293C87.9714 46.0803 88.213 46.1606 88.4465 46.269C88.6875 46.3819 88.9165 46.5293 89.1288 46.7082C89.3504 46.896 89.548 47.1229 89.7148 47.3815L88.3657 48.7225Z" fill="#C7CED2"/>
<path d="M91.1064 45.9532H94.5761C95.0116 45.9511 95.4461 45.9956 95.8721 46.0859C96.2561 46.1627 96.622 46.3115 96.9503 46.5243C97.2621 46.7353 97.5148 47.022 97.6847 47.3574C97.8661 47.7071 97.9568 48.1428 97.9568 48.6642C97.9568 49.296 97.7921 49.8327 97.4626 50.2743C97.1332 50.7159 96.6522 50.9956 96.0198 51.1134L98.2989 54.8892H95.9308L94.0569 51.3158H93.0823V54.8892H91.1064V45.9532ZM93.0823 49.6523H94.2461C94.4235 49.6523 94.6113 49.646 94.8094 49.6334C94.9938 49.6244 95.1755 49.586 95.3476 49.5197C95.5052 49.4588 95.6431 49.3563 95.7468 49.2233C95.8617 49.057 95.9173 48.8571 95.9049 48.6556C95.9146 48.4646 95.8661 48.2751 95.7658 48.112C95.6758 47.9807 95.5535 47.8745 95.4107 47.8036C95.2556 47.728 95.0888 47.6788 94.9174 47.658C94.7368 47.6328 94.5546 47.6202 94.3722 47.6201H93.0815L93.0823 49.6523Z" fill="#C7CED2"/>
<path d="M99.4961 45.9531H101.321V49.2849H104.865V45.9531H106.689V54.8892H104.865V51.027H101.321V54.8892H99.4961V45.9531Z" fill="#C7CED2"/>
<path d="M117.596 48.3017C117.369 47.9448 117.072 47.6615 116.731 47.4775C116.392 47.288 116.023 47.1896 115.649 47.189C115.224 47.1815 114.803 47.287 114.415 47.4981C114.055 47.6964 113.733 47.9836 113.471 48.3411C113.203 48.7091 112.997 49.1355 112.862 49.5971C112.715 50.0927 112.642 50.6155 112.645 51.1417C112.643 51.6373 112.712 52.1295 112.85 52.5963C112.981 53.0416 113.182 53.452 113.442 53.8046C113.705 54.1567 114.027 54.4373 114.387 54.6279C114.785 54.836 115.216 54.9392 115.649 54.9305C116.073 54.9414 116.492 54.8232 116.868 54.5867C117.221 54.3532 117.525 54.0243 117.755 53.6257L118.677 54.4631C118.579 54.6157 118.472 54.7602 118.359 54.8958C118.177 55.1115 117.974 55.3002 117.755 55.4578C117.47 55.6642 117.167 55.8301 116.851 55.9524C116.455 56.1016 116.042 56.1734 115.627 56.165C115.032 56.1758 114.443 56.0257 113.903 55.7257C113.182 55.3145 112.572 54.6652 112.144 53.8529C111.716 53.0406 111.487 52.0986 111.485 51.1361C111.48 50.4253 111.585 49.7197 111.795 49.0557C111.988 48.4457 112.28 47.8882 112.653 47.4157C113.028 46.9486 113.479 46.5813 113.979 46.3376C114.521 46.0754 115.102 45.9449 115.687 45.9535C116.224 45.956 116.755 46.0832 117.252 46.3282C117.75 46.5626 118.184 46.9568 118.509 47.4681L117.596 48.3017Z" fill="#C7CED2"/>
<path d="M124.07 56.1654C123.49 56.1728 122.914 56.0397 122.377 55.7739C121.879 55.5278 121.428 55.161 121.052 54.696C120.679 54.2295 120.385 53.6795 120.188 53.0769C119.771 51.7788 119.771 50.3396 120.188 49.0416C120.386 48.4391 120.679 47.8891 121.052 47.4224C121.428 46.9578 121.879 46.591 122.377 46.3446C123.465 45.8226 124.677 45.8226 125.764 46.3446C126.262 46.591 126.713 46.9578 127.089 47.4224C127.462 47.8889 127.755 48.439 127.953 49.0416C128.371 50.3394 128.371 51.7791 127.953 53.0769C127.756 53.6796 127.462 54.2297 127.089 54.696C126.714 55.161 126.263 55.5278 125.764 55.7739C125.227 56.0398 124.651 56.1729 124.07 56.1654ZM124.07 54.9302C124.484 54.939 124.894 54.842 125.274 54.6456C125.655 54.4491 125.996 54.1577 126.276 53.7905C126.546 53.4339 126.755 53.0163 126.89 52.5618C127.179 51.5904 127.179 50.5281 126.89 49.5567C126.754 49.1024 126.546 48.6849 126.276 48.328C125.994 47.9624 125.653 47.6709 125.273 47.4715C124.894 47.2722 124.484 47.1693 124.071 47.1693C123.657 47.1693 123.247 47.2722 122.868 47.4715C122.488 47.6709 122.147 47.9624 121.865 48.328C121.595 48.6847 121.387 49.1023 121.251 49.5567C120.963 50.5281 120.963 51.5904 121.251 52.5618C121.386 53.0164 121.595 53.4341 121.865 53.7905C122.145 54.1578 122.486 54.4493 122.866 54.6458C123.246 54.8422 123.657 54.9392 124.07 54.9302Z" fill="#C7CED2"/>
<path d="M130.664 45.9531H132.292L134.849 52.7182H134.895L137.428 45.9531H139.055V54.8892H137.965V47.5437H137.942L135.23 54.8892H134.503L131.79 47.5437H131.768V54.8892H130.664V45.9531Z" fill="#C7CED2"/>
<path d="M141.453 45.9531H143.961C144.419 45.9531 144.795 46.0309 145.089 46.1864C145.355 46.3174 145.594 46.5209 145.79 46.7822C145.957 47.0131 146.079 47.2895 146.147 47.5897C146.282 48.1535 146.282 48.7545 146.147 49.3183C146.08 49.6186 145.957 49.8951 145.79 50.1259C145.594 50.3864 145.355 50.5891 145.089 50.719C144.795 50.8745 144.419 50.9523 143.961 50.9523H142.42V54.8892H141.453V45.9531ZM142.42 49.89H143.689C143.876 49.8901 144.064 49.8711 144.249 49.8332C144.422 49.8004 144.589 49.7299 144.742 49.6248C144.886 49.522 145.005 49.3713 145.086 49.1892C145.172 48.9583 145.217 48.7064 145.217 48.4514C145.217 48.1964 145.172 47.9445 145.086 47.7136C145.005 47.5318 144.886 47.3811 144.742 47.278C144.588 47.1734 144.421 47.1029 144.249 47.0697C144.064 47.0325 143.876 47.0138 143.689 47.0137H142.42V49.89Z" fill="#C7CED2"/>
<path d="M149.978 45.9531H151.017L154.639 54.8892H153.3L152.452 52.6803H148.423L147.586 54.8892H146.248L149.978 45.9531ZM152.034 51.6203L150.456 47.5187H150.432L148.83 51.6203H152.034Z" fill="#C7CED2"/>
<path d="M155.839 45.9531H157.314L161.883 53.2986H161.906V45.9531H163.03V54.8892H161.601L156.986 47.5437H156.962V54.8892H155.838L155.839 45.9531Z" fill="#C7CED2"/>
<path d="M167.28 51.0753L164.229 45.9531H165.627L167.826 49.8806L170.092 45.9574H171.421L168.37 51.0796V54.8892H167.277L167.28 51.0753Z" fill="#C7CED2"/>
</svg>
