<?xml version="1.0" encoding="utf-8"?>
<!-- Generator: Adobe Illustrator 22.1.0, SVG Export Plug-In . SVG Version: 6.00 Build 0)  -->
<svg version="1.1" xmlns="http://www.w3.org/2000/svg" xmlns:xlink="http://www.w3.org/1999/xlink" x="0px" y="0px"
	 viewBox="0 0 292 465" style="enable-background:new 0 0 292 465;" xml:space="preserve">
<style type="text/css">
	.st0{display:none;}
	.st1{display:inline;}
	.st2{fill:#162953;}
	.st3{fill:#FFFFFF;}
	.st4{display:inline;fill:#FFFFFF;stroke:#FFFFFF;stroke-miterlimit:10;}
	.st5{fill:none;stroke:#952531;stroke-miterlimit:10;}
	.st6{fill:none;stroke:#C9992F;stroke-miterlimit:10;}
	.st7{fill:none;stroke:#8FC5C9;stroke-miterlimit:10;}
	.st8{fill:none;stroke:#C7C7C7;stroke-miterlimit:10;}
	.st9{fill:none;stroke:#62A5DB;stroke-miterlimit:10;}
	.st10{fill:none;stroke:#8CB82B;stroke-miterlimit:10;}
	.st11{fill:#C7C7C7;}
	.st12{fill:#D98918;stroke:#C7C7C7;stroke-miterlimit:10;}
	.st13{fill:none;stroke:#3B693D;stroke-miterlimit:10;}
	.st14{fill:none;stroke:#D15A30;stroke-miterlimit:10;}
	.st15{fill:#D15A30;}
	.st16{fill:none;stroke:#BF363C;stroke-miterlimit:10;}
	.st17{fill:none;stroke:#5A3289;stroke-miterlimit:10;}
	.st18{fill:#D98918;stroke:#162953;stroke-miterlimit:10;}
	.st19{fill:#D98918;}
	.st20{opacity:0.5;fill:#D98918;}
	.st21{display:inline;fill:#D98918;}
	.st22{display:inline;opacity:0.5;fill:#D98918;}
</style>
<g id="Map_and_Blue" class="st0">
	<g id="BLUE" class="st1">
		<rect x="0" y="0" class="st2" width="292" height="465"/>
	</g>
	<g class="st1">
		<path class="st3" d="M142.7,46.9c0,0,0.3,0.2,0.3,0.3c0.1,0.2,0.3,0.4,0.5,0.4c0,0,0,0.2,0,0.2c0,0.2,0,0.4,0,0.6
			c0,0.2,0.1,0.6,0.6,0.8c0.3,0.4,0.6,0.4,0.9,0.4c0.4,0,0.7-0.2,1-0.4l0.1-0.1c0.1-0.1,0.2-0.1,0.2-0.2c0.1,0.1,0.2,0.2,0.2,0.3
			c0.2,0.3,0.3,0.7,0.3,1c-0.1,0.3-0.1,0.6,0.1,0.9l0.4,0.2c0.2,0,0.4-0.1,0.6-0.3c0.3-0.2,0.6-0.5,0.8-0.7l0.1-0.1
			c0.2-0.5,0-1-0.2-1.2c0-0.1-0.1-0.2-0.1-0.2l-0.5-0.3c0-0.1,0-0.2,0-0.3c0-0.3-0.1-1-0.8-1.3l-0.1,0l-0.2,0
			c-0.1-0.1-0.2-0.1-0.2-0.2c0,0-0.2-0.2-0.2-0.2c0-0.1,0-0.2,0-0.3l0-0.2c0-0.1,0-0.2,0-0.3c0-0.1,0.1-0.3,0.1-0.5l0-0.1
			c-0.1-0.5-0.5-0.8-1-0.8l-0.2,0l-0.1,0c-0.4,0.2-0.6,0.6-0.8,0.9l-0.1,0.2l0,0.1c0,0-0.1,0-0.1,0c-0.1,0-0.2,0-0.2,0
			c-0.2,0-0.3,0-0.4,0.1l-0.1,0l0,0c-0.2-0.1-0.4-0.1-0.5-0.1c-0.2,0-0.7,0.1-0.8,0.7l0,0.1C142.3,46.5,142.5,46.7,142.7,46.9z"/>
		<path class="st3" d="M255.7,329.2c-0.1-0.4-0.2-0.8-0.3-1.1c0-0.1,0-0.3,0-0.5v-0.7c0-0.2,0-0.4,0.1-0.6c0-0.1,0.1-0.3,0.1-0.4
			c0-0.3,0-0.6-0.1-0.9c-0.1-0.1-0.1-0.2-0.2-0.3c0,0,0,0-0.1-0.1l-0.2-1.8l0-0.1c0-0.3,0-0.6-0.2-0.8l-0.2-0.8
			c-0.2-0.7-0.5-1.3-1-1.7c-0.1-0.1-0.5-0.5-0.5-0.5c-0.5-0.5-1-1-1.6-1.4l-0.3-0.3c-0.1-0.1-0.2-0.2-0.3-0.3
			c-0.1-0.1-0.2-0.1-0.2-0.1c-0.3-0.3-0.7-0.5-1-0.7c-0.1-0.1-0.2-0.1-0.3-0.2c-0.1-0.1-0.1-0.1-0.2-0.2c-0.1-0.2-0.2-0.3-0.4-0.5
			c-0.2-0.2-0.4-0.3-0.6-0.4l-0.2-0.2c-0.1-0.2-0.3-0.5-0.6-0.7c-0.1-0.1-0.2-0.2-0.3-0.2c-0.1-0.1-0.2-0.2-0.3-0.3
			c-0.6-0.4-1.3-0.8-2-1c-0.4-0.2-0.9-0.3-1.4-0.5c-0.2,0-0.3-0.1-0.5-0.1c-0.1,0-0.2,0-0.3-0.1c-0.1,0-0.2,0-0.3-0.1
			c-0.2,0-0.3,0-0.4,0h-0.5c-0.2,0-0.3,0-0.6-0.1c-0.2,0-0.3-0.1-0.5-0.2l-0.1-0.1c-0.3-0.1-0.7-0.2-1-0.3c-0.2,0-0.3-0.1-0.5-0.2
			l-0.4-0.2c-0.3-0.2-0.6-0.2-0.9-0.3c-0.2-0.1-0.3-0.1-0.5-0.1c-0.1,0-0.3,0-0.4,0.1c-0.3,0.2-0.5,0.4-0.5,0.6
			c-0.4-0.1-0.8-0.1-1.2-0.2c-0.7-0.1-1.4-0.2-2.1-0.2c-0.1,0-0.3,0-0.4,0c0,0-0.1-0.1-0.2-0.1l-0.5-0.1c-0.1,0-0.2,0-0.3,0
			c-0.2,0-0.4,0-0.5,0c-0.2,0-0.3,0-0.5,0.1h-0.2c-0.1,0-0.2-0.1-0.4-0.1c-0.2,0-0.5,0.1-0.6,0.2c-0.1,0.1-0.3,0.2-0.6,0.2
			c-0.1,0-0.2,0-0.3,0c-0.2,0-0.4,0-0.7,0c-1.3,0-2.2,0.6-2.7,1.8l-0.1,0.3c-0.1,0.2-0.2,0.4-0.3,0.7c-0.1,0.1-0.2,0.4-0.1,0.7
			c0.1,0.2,0,0.3-0.2,0.7l-0.1,0.2l-0.1,0.2c0,0.5-0.3,0.8-0.8,1.2c-0.3,0.2-0.6,0.5-0.8,0.9c-0.4-0.2-0.8-0.4-1.2-0.4
			c-0.1,0-0.2,0-0.3,0c-0.1,0-0.2,0-0.3,0c-0.3,0-0.6-0.1-0.9-0.3l-0.3-0.6c0-0.1,0-0.2-0.1-0.2c-0.1-0.2-0.2-0.5-0.3-0.7
			c-0.1-0.2-0.3-0.4-0.4-0.5c-0.4-0.3-0.8-0.5-1.2-0.6c-0.1,0-0.2,0-0.3-0.1c-0.2,0-0.4,0-0.6-0.1c0.3-0.2,0.4-0.5,0.5-0.8
			c0-0.1,0-0.1,0.1-0.2c0.4-1,0.9-1.8,1.8-2.4c0.2-0.2,0.3-0.3,0.5-0.5c0.1-0.1,0.2-0.2,0.3-0.3c0.6-0.4,1.1-0.9,1.5-1.4l0.5-0.5
			c0.1-0.1,0.2-0.1,0.5-0.2c0.3,0,0.6-0.1,0.9-0.3l0.1-0.1c0.3-0.4,0.3-0.9,0.4-1.3l0-0.2c0-0.1,0-0.2,0.1-0.3
			c0-0.2,0.1-0.3,0.1-0.5v-0.2c0-0.6,0-1.3-0.1-2c0-0.2-0.1-0.3-0.2-0.5c0-0.1-0.1-0.3-0.1-0.3c0-0.1,0-0.2,0-0.3c0-0.3,0-0.7-0.1-1
			l-0.1-0.2c-0.1-0.2-0.2-0.4-0.2-0.6c-0.1-0.3-0.3-0.5-0.4-0.8c-0.1-0.1-0.1-0.2-0.2-0.4c0-0.1-0.1-0.2-0.1-0.2
			c0-0.1-0.1-0.2-0.1-0.2c-0.1-0.4-0.3-0.7-0.5-1.1c0-0.1-0.1-0.2-0.1-0.2c-0.1-0.2-0.2-0.3-0.3-0.5c-0.1-0.2-0.2-0.3-0.3-0.5
			c0-0.1-0.1-0.2-0.1-0.2c-0.1-0.2-0.1-0.4-0.2-0.5l-0.1-0.2c-0.1-0.2-0.2-0.5-0.3-0.7c-0.1-0.2-0.2-0.6-0.5-0.8l0-0.1
			c-0.1-0.2-0.2-0.4-0.2-0.6c-0.1-0.4-0.3-0.9-0.6-1.2c-0.1-0.1-0.1-0.2-0.2-0.2l-0.2-0.2c-0.1-0.1-0.1-0.1-0.2-0.2
			c-0.2-0.2-0.3-0.3-0.6-0.4l-0.2,0l-0.4,0l-0.2,0c0,0-0.1,0-0.1,0c0,0,0,0-0.1,0l-0.3-0.4l-0.1-0.1c-0.5-0.3-0.9-0.8-1.3-1.4
			c-0.1-0.2-0.3-0.3-0.4-0.5c-0.2-0.2-0.3-0.3-0.5-0.4c-0.3-0.4-0.8-0.5-1-0.5c-0.3,0-0.4-0.1-0.5-0.2c-0.2-0.2-0.4-0.5-0.7-0.7
			c0.4,0.2,0.9,0.4,1.4,0.4c0.5,0,1.1-0.1,1.7-0.4c0.2-0.1,0.4-0.2,0.6-0.2c0.4,0,0.9,0.2,1.4,0.6c0.4,0.3,0.3,0.4,0.1,0.6
			c-0.4,0.6-0.2,1,0.1,1.2l0.2,0.1l0.2,0c0.4,0,0.6-0.2,0.8-0.5c0,0,0,0,0,0l0,0c0.8-0.2,0.8-1,0.7-1.2c0-0.1,0-0.1,0-0.2l0-0.1
			c0-0.2-0.1-0.4-0.2-0.5c-0.1-0.3-0.2-0.5-0.4-0.8c-0.1-0.1-0.1-0.2-0.2-0.3l-0.1-0.3c0-0.1-0.1-0.1-0.1-0.2c0-0.1-0.1-0.2-0.2-0.3
			c-0.3-0.5-0.7-1-1.1-1.5c-0.4-0.5-0.8-1-1.1-1.6c-0.1-0.1-0.1-0.2-0.2-0.2c-0.2-0.2-0.3-0.4-0.5-0.6c-0.3-0.4-0.6-0.8-1-1.2v0
			c0-0.2-0.1-0.3-0.2-0.5c-0.1-0.2-0.3-0.4-0.4-0.6c-0.2-0.2-0.3-0.4-0.4-0.6c-0.2-0.4-0.4-0.7-0.6-1.1c-0.1-0.2-0.3-0.4-0.4-0.6
			c-0.2-0.4-0.4-0.8-0.5-1.2c-0.2-0.6-0.4-1.1-0.7-1.6c-0.3-0.6-0.5-1.3-0.5-2l0-0.2c0,0,0-0.1,0-0.3l0-0.2c0.1-0.3,0.2-0.6,0.4-0.9
			c0.2-0.3,0.3-0.6,0.5-1l0-0.1c0.1,0,0.1,0,0.2-0.1l0.6,0c0.1,0,0.2,0.1,0.3,0.1c0.4,0,0.6-0.3,0.8-0.4l0.2-0.2l0.1-0.1
			c0.4-1-0.4-1.5-0.8-1.6c-0.1,0-0.2-0.1-0.3-0.2c-0.1,0-0.2-0.1-0.3-0.1c-0.1,0-0.2-0.1-0.4-0.1c-0.3-0.1-0.6-0.3-1-0.3
			c0,0-0.1,0-0.1,0l-0.7-0.3l-0.1-0.1c-0.6-0.5-0.8-0.8-0.6-1.2c0.1-0.2,0.2-0.4,0.1-0.7l-0.1-0.2c-0.2-0.2-0.4-0.4-0.6-0.5
			c-0.1,0-0.1-0.1-0.2-0.1c-0.1,0-0.2-0.1-0.2-0.1c-0.1-0.1-0.3-0.2-0.5-0.3c-0.3-0.1-0.5-0.3-0.7-0.4c-0.2-0.2-0.3-0.4-0.4-0.5
			c0-0.1-0.1-0.1-0.1-0.1c0,0,0-0.1,0.1-0.1c0-0.1,0-0.2,0.1-0.3c0-0.2,0-0.4-0.2-0.6l-0.4-0.2c-0.1-0.1-0.2-0.2-0.3-0.5
			c0-0.4,0-0.9-0.3-1.3l-0.1-0.3l-0.1-0.1c-0.1-0.1-0.1-0.2-0.1-0.2l0-0.1c0-0.1-0.1-0.2-0.1-0.4c-0.1-0.2-0.2-0.3-0.3-0.5l-0.6-0.8
			c-0.1-0.1-0.3-0.2-0.4-0.3l-0.1-0.1c-0.1-0.1-0.2-0.1-0.2-0.2c-0.1-1.7-1.1-2.9-2.7-3.2l-0.1,0c-0.2,0-0.3-0.1-0.4-0.2
			c-0.1-0.1-0.1-0.1-0.1-0.1c-0.3-0.4-0.6-0.7-1-0.9c-0.1-0.1-0.2-0.1-0.2-0.1c-0.2-0.1-0.4-0.2-0.6-0.2c-0.2,0-0.2-0.1-0.3-0.2
			c-0.1-0.1-0.1-0.2-0.2-0.3c-0.1-0.1-0.1-0.1-0.2-0.2c-0.1-0.2-0.3-0.3-0.5-0.5c-0.1-0.1-0.2-0.1-0.4-0.1h-0.1
			c-0.1,0-0.2-0.1-0.4-0.1c-0.2-0.1-0.4-0.2-0.7-0.3h-0.1c-0.1,0-0.2,0-0.4,0c-0.1,0-0.1,0-0.3-0.1c-0.1-0.1-0.2-0.1-0.4-0.2
			c-0.2-0.1-0.3-0.1-0.5-0.2l-0.1,0l-0.1,0c-0.5,0-0.9-0.2-1.3-0.5l-0.1,0c-0.3-0.2-0.6-0.4-0.9-0.6l-0.2-0.1l-0.3-0.1
			c-0.1,0-0.4,0-0.5,0c-0.2,0-0.2,0-0.2,0c-0.2-0.2-0.3-0.3-0.5-0.5l-0.3-0.2c-0.2-0.1-0.4-0.2-0.5-0.2h-0.1
			c-0.1-0.3-0.2-0.5-0.4-0.8c-0.1-0.1-0.1-0.1-0.1-0.1c0,0,0-0.1,0.1-0.1l0.1-0.1c0.1-0.2,0.1-0.3,0.1-0.5l0-0.1
			c-0.1-0.3-0.3-0.5-0.5-0.7c-0.1-0.1-0.2-0.1-0.3-0.2c-0.2-0.1-0.5-0.3-0.7-0.4c-0.2-0.1-0.3-0.2-0.4-0.4c-0.1-0.2-0.2-0.3-0.3-0.5
			l-0.2-0.3c-0.1-0.1-0.1-0.2-0.2-0.2c-0.1-0.1-0.2-0.3-0.2-0.5c0-0.1-0.1-0.2-0.1-0.4c0-0.1,0-0.2-0.1-0.3c0-0.1-0.1-0.3-0.1-0.5
			c0-0.1,0-0.3-0.1-0.4c0-0.1-0.1-0.2-0.1-0.3l-0.1-0.3c-0.1-0.2-0.2-0.5-0.3-0.7c0-0.1,0-0.2,0-0.2c0-0.2-0.1-0.5-0.2-0.7l0-0.2
			c0-0.1,0.1-0.3,0-0.5c0-0.2,0-0.4,0-0.6l0-0.2c0-0.2,0-0.3-0.1-0.4c0-0.1-0.1-0.3-0.1-0.4c0-0.2,0-0.5-0.1-0.7
			c0.1-0.6-0.2-1-0.4-1.3c-0.1-0.1-0.1-0.1-0.1-0.2c-0.2-0.2-0.4-0.4-0.5-0.5c-0.1-0.1-0.1-0.1-0.1-0.2c0,0-0.1-0.1-0.1-0.3
			c0-0.1,0-0.2,0-0.3c-0.1-0.4-0.3-0.8-0.5-1.2l0-0.1c-0.1-0.2-0.2-0.5-0.3-0.7c-0.1-0.3-0.2-0.5-0.4-0.7c-0.1-0.2-0.2-0.3-0.2-0.4
			l-0.1-0.3c-0.2-0.2-0.3-0.5-0.3-1c-0.1-0.3-0.2-0.7-0.5-1c0,0-0.1-0.1-0.1-0.1c0,0,0.1-0.1,0.2-0.2l0.1-0.1
			c0.1-0.1,0.1-0.2,0.1-0.4c0.1-0.4,0-0.9-0.2-1.3c0-0.1-0.1-0.2-0.1-0.2c-0.1-0.2-0.1-0.3-0.2-0.5l-0.1-0.1c0,0-0.1-0.1-0.1-0.3
			l0-0.2l0-0.1l-0.1-0.2c-0.3-0.5-0.5-0.9-0.4-1.4c0.8-1.5-0.2-2.6-0.6-3c0-0.1,0-0.1-0.1-0.2c-0.3-0.5-0.4-0.8-0.2-1.1l0.1-0.3
			l0.2-0.1c0.5-0.6,0.5-1.2,0-1.7l0,0c0,0,0-0.2,0-0.2c0-0.6-0.1-1.1-0.2-1.6c-0.1-0.5-0.2-0.9-0.2-1.4c0-0.1,0-0.3-0.1-0.4
			l-0.1-0.1c-0.1-0.1-0.1-0.2-0.2-0.2c0-0.1-0.1-0.1-0.2-0.2c0.3-1.9-1.2-2.8-1.7-3.1l-0.1,0L175,206c-0.1-0.1-0.3-0.3-0.5-0.4
			c-0.1-0.1-0.2-0.1-0.3-0.1c-0.1,0-0.1-0.1-0.3-0.3c0,0-0.2-0.3-0.2-0.3c-0.1-0.2-0.1-0.4-0.3-0.6c-0.2-0.2-0.4-0.2-0.6-0.2
			c-0.2,0-0.5,0.1-0.6,0.3c0,0,0,0,0-0.1c-0.2-0.3-0.4-0.6-0.5-0.9c-0.1-0.4-0.3-0.8-0.9-0.9c-0.3-0.2-0.6-0.5-0.9-0.8
			c-0.2-0.5-0.6-0.8-1-1.2c-0.1-0.1-0.2-0.2-0.2-0.3c-0.2-0.2-0.2-0.2-0.1-0.3c0.3-1.1-0.6-1.7-1-1.9l-0.2-0.1
			c-0.4-0.6-0.7-1.2-0.6-1.9l-0.1-0.4c-0.1-0.1-0.2-0.6-0.7-0.6c-0.1,0-0.2,0-0.3,0.1h-0.1c0,0-0.1-0.1-0.1-0.2
			c0-0.1-0.1-0.1-0.1-0.2v-0.1c0-0.2,0-0.5-0.2-0.7c-0.1-0.1-0.3-0.2-0.6-0.2c0,0-0.1,0-0.1,0c-0.1,0-0.2-0.1-0.3-0.1
			c-0.1-0.1-0.2-0.1-0.4-0.2c-0.2-0.2-0.5-0.5-0.9-0.5c-0.2,0-0.3,0-0.4,0.1c-0.4,0.1-0.7,0.2-0.9,0.2c-0.2,0-0.5-0.1-0.6-0.1
			c-0.4-0.3-0.8-0.6-1.3-0.7l-0.1-0.1c-0.2-0.7-0.7-1.2-1.6-1.4c-0.2,0-0.3-0.1-0.5-0.3c-0.2-0.1-0.4-0.3-0.7-0.4
			c-0.1-0.2-0.4-0.5-0.8-0.5c-0.1,0-0.3,0-0.4,0.1c-0.1,0-0.3,0.1-0.4,0.1c0,0-0.1,0.1-0.1,0.1c0,0-0.2-0.1-0.2-0.2c0,0,0,0,0.1,0
			c0,0,0,0,0,0c-0.2-0.7-0.6-1.5-1.6-1.9c-0.6-0.2-1.2-0.2-1.7-0.2c-0.2,0-0.5,0-0.7,0c-0.2-0.1-0.5-0.2-0.9-0.2
			c-0.2,0-0.3,0-0.4,0.1l-0.1,0l-0.1,0c-0.1,0-0.2,0-0.3,0c-0.7,0-1,0.6-1.1,0.9c0,0.1,0,0.1-0.1,0.2c-0.4,0.2-0.5,0.7-0.5,1
			c0,0,0,0,0,0c-0.4,0.2-0.6,0.5-0.5,0.9v0.3c-0.1,0.1-0.2,0.1-0.4,0.2c-0.2,0.1-0.3,0.1-0.5,0.3l-0.1,0l-0.1,0
			c-0.3,0.1-0.7,0.2-0.9,0.6c-0.2,0.3-0.3,0.3-0.9,0.3h-0.2l-0.2,0.1c-0.1,0-0.1,0-0.2,0c-0.1,0-0.2,0-0.4-0.1
			c-0.2-0.2-0.4-0.4-0.7-0.5l0-0.1c-0.2-0.5-0.7-0.7-1-0.8l-0.1,0h-0.5l-0.1,0c-0.2,0-0.3,0.1-0.6,0.1c-0.2,0-0.3,0-0.4,0
			c-0.2,0-0.3,0-0.5,0c-0.3,0-0.5,0-0.8,0.1c-0.2-0.3-0.5-0.7-1-0.9c0,0,0,0,0,0c0.2-0.1,0.3-0.2,0.5-0.3c0.4-0.1,0.5-0.4,0.6-0.6
			c0,0,0.1-0.1,0-0.1l0.3-0.1c0.1,0,0.2,0,0.3,0.1c0.2,0,0.3,0.1,0.5,0.1c0.3,0,0.6-0.1,0.8-0.4c0,0,0.2-0.1,0.3-0.1
			c0.3-0.1,0.9-0.2,1.1-0.8c0.2-0.4,0.3-0.9,0.3-1.3c0-0.1,0-0.3,0-0.4c0,0,0.1,0,0.2-0.1c0.2,0,0.4-0.1,0.6-0.3
			c0.5-0.2,0.9-0.6,1.1-1.1c0.7-0.3,1.3-0.9,1.8-1.6c0.3-0.5,0.6-0.5,0.8-0.5c0.1,0,0.2,0,0.3,0h0c0.1,0,0.1,0.1,0.2,0.2
			c0,0.1,0.1,0.1,0.2,0.2l0.4,0.4c0.2,0.2,0.5,0.3,0.8,0.3c0.2,0,0.4,0,0.6-0.1c0.1,0,0.2,0,0.3-0.1l0.2,0l0.1,0
			c0.2-0.1,0.5-0.3,0.7-0.7c0,0,0.1,0,0.1,0l0.1,0c0.1,0,0.2,0,0.3,0c0.3,0,0.8-0.1,1.1-0.5c0.7-0.3,1.3-0.7,1.6-1.2l1.2-1.4
			c0.2-0.2,0.3-0.5,0.3-0.6c0-0.2-0.1-0.4-0.3-0.6l-0.1-0.1c-0.2-0.3-0.5-0.3-0.7-0.4c0,0-0.1,0-0.1,0c0,0,0,0,0,0
			c-0.2-0.5-0.5-1.2-1.4-1.3l-1.6-0.4c-0.2,0-0.4-0.1-0.6-0.3l-0.1-0.1c0,0-0.1-0.1-0.1-0.1h0l-0.1,0l0.1-0.1c0-0.2,0-0.4-0.2-0.5
			c-0.1-0.2-0.2-0.2-0.3-0.3l0.4-1.4c0-0.1,0-0.2,0.1-0.3c0.1-0.4,0.3-0.8,0-1.2c-0.1-0.2-0.2-0.3-0.4-0.4c0.4,0,0.8,0.1,1.2,0.2
			l0.5-0.1c0.2-0.1,0.5-0.2,0.5-0.6v-0.1c-0.1-0.8,0.1-1,0.5-1.1c0.3-0.1,0.4-0.3,0.5-0.4c0.4-0.1,0.8-0.4,1-0.8l0.3-0.5
			c0,0,0.1,0,0.1,0c0.2,0,0.5-0.1,0.7-0.3c0.6-0.1,1-0.4,1.1-0.9c0.3-0.6,0.7-1.4,1.2-2l0.1-0.1c0.2-0.4,0.1-0.7,0-0.9
			c-0.1-0.1-0.2-0.3-0.5-0.3c0,0,0-0.1,0-0.1c0.1-0.1,0.2-0.2,0.4-0.4c0.2-0.1,0.4-0.3,0.5-0.4l0.1-0.3c0,0.1,0,0.1,0,0.1
			c0,0,0.1-0.1,0.1-0.1c0.2-0.2,0.5-0.4,0.4-0.8c0-0.2-0.1-0.4-0.2-0.5c0-0.1,0-0.2,0-0.2l0.1-0.4c0-0.2,0-0.3,0.2-0.6
			c0.3-0.2,0.4-0.6,0.5-0.9c0.1-0.1,0.2-0.2,0.3-0.3h0c0.2,0,0.6-0.1,0.9-0.4c0.4-0.2,0.6-0.5,0.7-0.7l0.1-0.1
			c0.8-0.5,1.3-1.2,1.6-2.1l0,0c0.3-0.1,0.7-0.3,0.7-0.8c0.1-0.1,0.1-0.2,0.2-0.4c0.2-0.3,0.3-0.6,0.4-1c0.4-0.7,0.3-1.4,0.2-2
			c0-0.2,0-0.4,0-0.6c0-0.1,0-0.1,0-0.2c0-0.1,0-0.2,0-0.2c0,0-0.2-0.3-0.3-0.4l0.4,0.3c0.4-0.3,0.6-0.7,0.7-1.1
			c0-0.1,0.1-0.2,0.1-0.2l0-0.3c0-0.2,0-0.4,0.3-0.6c0.3-0.1,0.5-0.4,0.7-0.7c0.2-0.2,0.3-0.4,0.4-0.6l0.7-1.8
			c1.1-1.2,0.8-2.1,0.3-2.7l-0.2-0.2c-0.1,0-0.1,0-0.1-0.3c0-0.1,0-0.2,0-0.3c0-0.2,0-0.3,0.1-0.6c0.5-0.5,0.6-1.1,0.6-1.6
			c0-0.2,0-0.5,0.1-0.8c0.1-0.5,0.4-1,0.7-1.5c0.2-0.3,0.3-0.6,0.5-0.9c0.2-0.4,0.5-0.7,0.8-1c0.2-0.3,0.5-0.6,0.7-0.9l0.1-0.1
			c0.4-0.2,0.6-0.6,0.7-0.8c0-0.1,0.1-0.1,0.1-0.2l0.4-0.3c0.5-0.3,0.5-0.8,0.4-1.2l0.3-0.1c0.4-0.2,0.7-0.7,0.8-1.1
			c0-0.1,0.1-0.2,0.1-0.2c0.1-0.1,0.2-0.3,0.3-0.4c0.1-0.2,0.3-0.4,0.4-0.7l0-0.2l-0.1-0.7l0-0.2c-0.1-0.2-0.1-0.2-0.1-0.2
			s0,0,0.1-0.1l0.2-0.5l0-0.3l0-0.1c-0.1-0.2-0.2-0.4-0.3-0.5c-0.1-0.1-0.1-0.1-0.2-0.3c-0.1-0.1-0.1-0.2-0.1-0.3c0-0.1,0-0.3,0-0.5
			c0-0.1,0-0.2,0-0.4c0-0.2-0.1-0.3-0.1-0.5c0-0.2-0.1-0.3-0.2-0.4c-0.1-0.2-0.2-0.3-0.2-0.5v-0.1c0-0.3,0-0.7-0.3-1l-0.2-0.4
			c-0.1-0.4-0.5-0.6-0.6-0.7c-0.2-0.2-0.4-0.3-0.6-0.3c-0.1,0-0.1,0-0.2-0.1c0,0,0-0.1,0-0.2c0-0.1,0-0.3-0.1-0.5
			c-0.1-0.3-0.3-0.6-0.6-0.9c-0.2-0.2-0.6-0.5-1.1-0.6l-0.2,0c0,0-0.1,0-0.2,0c-0.2,0-0.3-0.1-0.5-0.4l-0.1-0.1l-0.4-0.2l-0.5,0
			l-0.1,0c-0.1,0-0.2,0-0.3,0c-0.1,0-0.1,0-0.2,0l-0.6,0l-0.2,0c-0.2,0-0.3,0-0.5,0c-0.3,0-0.5,0.1-0.7,0.2
			c-0.4,0.1-0.6,0.3-0.8,0.5l-0.1,0.1c-0.2,0.1-0.3,0.2-0.5,0.2c-0.1,0-0.1,0-0.2-0.1c-0.1,0-0.3-0.1-0.4-0.1
			c-0.4-0.1-0.8-0.2-1-0.4c-0.2-0.1-0.5-0.2-0.8-0.2l-0.2,0c-0.2,0-0.4,0.1-0.6,0.3c-0.1,0.1-0.2,0.1-0.3,0.2l-0.1,0.1
			c-0.1,0.1-0.1,0.2-0.4,0.2c0,0-0.1,0-0.1,0h-0.1c-0.1,0-0.2,0-0.2,0.1h-0.1c-0.4,0-0.8,0-1.2,0c-0.4,0-0.8,0-1.2,0h-0.8
			c-0.1,0-0.3-0.1-0.5-0.1l-0.2-0.1c-0.1,0-0.2-0.1-0.3-0.1l-0.1,0l-0.1,0c-0.3,0-0.7-0.1-1.1-0.2c-0.4-0.1-0.8-0.2-1.2-0.2
			c-0.1,0-0.2,0-0.3,0l-0.3,0c-0.2,0-0.3,0-0.4,0.1c0,0-0.1,0-0.1,0c0,0-0.1,0-0.1,0c-0.1-0.1-0.2-0.1-0.4-0.1
			c-0.1,0-0.2-0.1-0.2-0.1c-0.2-0.1-0.4-0.1-0.6-0.1c-0.1,0-0.2,0-0.4,0c-0.1,0-0.1,0-0.2,0l-0.1,0c0,0-0.1-0.1-0.2-0.1
			c-0.1-0.1-0.3-0.2-0.5-0.2c-0.2,0-0.4-0.1-0.6-0.1c-0.4,0-0.7,0.1-1.1,0.2c-0.2,0.1-0.4,0.2-0.5,0.3l-0.1,0.1
			c-0.7,0.4-1.3,0.8-2,1c-0.1,0-0.3,0-0.4,0c-0.2,0-0.3-0.1-0.5-0.1l-0.3,0.1c0,0-0.1,0-0.1-0.1c-0.1-0.1-0.2-0.2-0.4-0.3
			c-0.2-0.1-0.3-0.1-0.5-0.2l-0.3-0.1c-0.4-0.2-0.8-0.3-1.1-0.3c-0.5-0.1-0.9-0.2-1-0.5c-0.1-0.2-0.2-0.4-0.4-0.6
			c-0.2-0.1-0.3-0.2-0.5-0.3h-0.2c-0.1,0-0.3,0-0.4,0.1l-1,0l-0.2,0h-0.3c-0.1,0-0.3,0-0.6,0.2h-0.1c-0.3,0-0.6,0.1-0.9,0.1l-0.1,0
			c-0.4,0.1-0.8,0.2-1,0.4c0,0-0.1,0-0.2,0.1c-0.2,0.1-0.5,0.2-0.7,0.6c-0.1,0.2-0.1,0.5,0,0.7c0,0.1,0,0.1,0,0.1l-0.1,0.1l0,0
			l-0.3,0.2c-0.1,0-0.1,0-0.2,0c-0.1,0-0.3,0-0.4,0c-0.2,0-0.4,0-0.5,0c-0.4,0-0.7,0.1-1,0.2c0,0-0.1,0.1-0.2,0.1l0,0l-0.2,0
			c-0.2,0-0.4-0.1-0.7-0.1c-0.2,0-0.4,0-0.6,0.1l-0.2,0.1l-0.2,0.1c-0.1,0.1-0.3,0.2-0.5,0.4c-0.2,0.1-0.5,0.2-0.6,0.4l-0.4,0.3
			l-0.2,0.1h0l0,0l-0.7,0.8c-0.2,0.1-0.4,0.2-0.6,0.3c-0.1,0.1-0.2,0.1-0.2,0.2h-0.1c-0.1,0-0.2,0-0.3,0.1c-0.3,0-0.6,0.1-0.9,0.3
			c-0.1,0-0.1,0-0.2,0c-0.2,0-0.5-0.1-0.8-0.2c-0.3-0.1-0.6-0.3-1-0.3l-0.2,0c-0.2,0.1-0.5,0.1-0.7,0.1c-0.2,0-0.4,0.1-0.5,0.1
			c0.3-0.3,0.5-0.6,0.7-1c0.2-0.3,0.4-0.5,0.7-0.7l0.1-0.1c0,0,0.1-0.1,0.1-0.1c0.2-0.2,0.7-0.6,0.4-1.2c0,0,0,0,0,0l0.3-0.1
			c0.2-0.1,0.5-0.4,0.7-0.8l0-0.2c0-0.1,0-0.2,0.1-0.3c0.3-0.2,0.4-0.5,0.5-0.7c0,0,0-0.1,0-0.1c0.6-0.6,1.1-1.2,1.4-1.8l0.1-0.1
			c0.6-0.4,0.9-1,1.1-1.6c0.2-0.2,0.3-0.4,0.4-0.7c0,0,0,0,0.1-0.1c0.2-0.1,0.3-0.3,0.4-0.5l0-0.4c0,0,0,0.1,0,0.1c0,0,0,0,0,0
			c0.3-0.6,0-1-0.3-1.1c-0.1-0.1-0.3-0.1-0.5-0.1c-0.3,0-0.5,0.2-0.7,0.3c0,0-0.1,0.1-0.2,0.1c-0.4,0.2-0.5,0.6-0.5,0.8v0l-0.3,0.4
			c-0.2,0.1-0.3,0.1-0.4,0.2c-0.1,0.1-0.2,0.1-0.3,0.1c0,0,0,0-0.1-0.1l-0.1-0.1l-0.4-0.3c-0.3-0.4-0.6-0.6-1-0.6
			c-0.2,0-0.4,0.1-0.6,0.2c0-0.1,0-0.2,0-0.2v-0.1c0-0.2,0.1-0.4,0.2-0.7c0.1-0.2,0.2-0.4,0.3-0.7l0-0.3c0.1-0.5,0-0.8-0.2-1.1
			c0.1-0.1,0.1-0.3,0.2-0.5l0-0.1c0-0.4,0-0.5,0.2-0.6l0.1,0c0.1,0,0.4-0.1,0.5-0.3c0.1-0.1,0.3-0.1,0.5-0.2
			c0.4-0.1,0.8-0.2,1.1-0.5c0,0,0.1-0.1,0.2-0.1c0.2-0.1,0.5-0.2,0.6-0.6c0.3-0.3,0.3-0.7,0.4-1c0-0.3,0.1-0.4,0.1-0.4
			c0.5-0.2,0.8-0.5,0.9-0.8c0.2-0.1,0.4-0.1,0.6-0.2l0.1,0l0.1,0c0.2,0,0.5-0.1,0.6-0.5c0.2-0.1,0.5-0.2,0.7-0.5
			c0.2-0.2,0.4-0.3,0.7-0.4c0.5-0.3,1-0.6,1.4-1.3c0.2-0.3,0.6-0.5,1-0.8c0.4-0.2,0.8-0.5,1.1-0.8c0.4-0.1,0.6-0.5,0.6-0.9
			c0.7-0.3,0.8-0.8,0.7-1.1c0-0.1,0.1-0.2,0.1-0.3c0.4-0.2,0.5-0.5,0.5-0.7c0,0,0-0.1,0-0.1l0-0.2c0,0,0.1-0.1,0.2-0.1
			c0,0,0.1-0.1,0.1-0.1c0.4-0.2,0.7-0.6,1-0.9c0.2-0.2,0.5-0.5,0.7-0.6l0.2,0c0.4-0.1,1-0.2,1.4-0.7l0.1,0c0,0,0.2,0,0.3,0
			c0.3,0,0.7,0,1-0.4c0.4-0.2,0.6-0.5,0.7-0.8c0,0,0-0.1,0.1-0.1c0.3-0.2,0.4-0.5,0.5-0.7c0-0.1,0-0.1,0.1-0.2
			c0.1-0.2,0.3-0.4,0.5-0.5l0.1,0c0.2-0.1,0.6-0.3,0.8-0.6c0.1-0.2,0.2-0.3,0.3-0.5c0.1-0.2,0.1-0.4,0.2-0.6c0-0.1,0-0.2,0.1-0.3
			c0-0.1,0.1-0.2,0.1-0.4c0-0.1,0-0.1,0.1-0.2c0-0.1,0-0.2,0.1-0.3c0.1-0.1,0.1-0.2,0.2-0.3c0-0.1,0.1-0.2,0.1-0.4
			c0-0.1,0-0.2,0.1-0.2c0.1-0.1,0.1-0.1,0.2-0.2c0.6-0.9,0.3-1.6,0-2.1l-0.2-0.1c-0.1-0.1-0.3-0.1-0.5-0.1c-0.2,0-0.4,0.1-0.6,0.1
			c-0.1,0-0.2,0.1-0.3,0.1c0-0.2-0.1-0.5-0.2-0.7l0-0.3c0.1-0.1,0.1-0.3,0.1-0.4c0.2-0.1,0.2-0.3,0.3-0.4c0,0,0-0.1,0-0.1l0.1,0
			c0.5-0.2,0.8-0.6,0.8-1.1l0.2-0.9c0-0.1,0-0.2,0-0.2c0-0.1,0-0.2,0.1-0.2l0.2-0.1l0.1-0.1c0.2-0.2,0.4-0.5,0.4-0.9
			c0-0.1,0-0.2-0.1-0.4c0-0.1,0-0.2,0.2-0.5l0-0.1c0.1-0.3,0.1-0.7-0.5-1.1c-0.4-0.2-0.8-0.3-1.2-0.3c-0.1,0-0.1,0-0.3,0
			c-0.1,0-0.3,0.1-0.4,0.1c-0.3,0.1-0.7,0.1-1,0.2c0-0.1-0.1-0.1-0.1-0.2c-0.2-0.2-0.4-0.5-0.8-0.6h-0.1c-0.3,0-0.5,0.1-0.7,0.1
			c-0.2,0-0.3,0.1-0.5,0.1c0,0-0.1,0-0.1,0c-0.3,0-0.6,0-0.9,0.1c-0.1,0-0.3,0.1-0.4,0.2c-0.1,0-0.2,0.1-0.3,0.1c0,0,0,0-0.1,0
			l-0.1-0.1c-0.1-0.2-0.3-0.4-0.6-0.6c-0.2-0.2-0.5-0.4-0.8-0.4c-0.2,0-0.4,0-0.6,0.2c-0.3,0.2-0.5,0.4-0.6,0.7
			c-0.4,0.6-0.1,1.2,0,1.5c0,0.1,0.1,0.2,0.1,0.3c0,0.1,0.1,0.2,0.2,0.3h0c-0.2-0.1-0.4-0.2-0.7-0.2c-0.2,0-0.4,0-0.5,0.1
			c-0.1,0-0.2,0.1-0.3,0.1c-0.1,0-0.2-0.1-0.3-0.1c-0.1,0-0.2,0-0.3,0c-0.2-0.5-0.7-0.8-1.3-0.8c-0.2,0-0.3,0-0.5,0.1
			c-0.2,0-0.4,0.1-0.5,0.1c-0.2,0-0.3,0-0.5-0.1l-0.1,0v0.5l-0.1-0.5c-0.2,0-0.7,0-0.9,0.5l0,0.1c0,0-0.1,0-0.2,0.1
			c-0.1,0-0.2,0.1-0.3,0.1c-0.7,0.1-1.1,0.5-1.5,0.9l-0.1,0.1c-0.1,0.1-0.1,0.1-0.2,0.2c-0.1,0.2-0.2,0.2-0.2,0.2l-0.2,0
			c-0.1,0-0.2,0-0.3,0c-0.3,0-0.6,0.1-0.9,0.2c-0.2,0.1-0.4,0.1-0.6,0.1c-0.1,0-0.1,0-0.2,0l-0.2,0c-0.1,0-0.2,0-0.2,0
			c0,0-0.1,0-0.1-0.1c-0.1,0-0.2-0.1-0.3-0.2c-0.1,0-0.2-0.1-0.3-0.1c-0.2,0-0.3,0-0.5,0c-0.1,0-0.2,0-0.3,0c-0.1,0-0.2,0-0.3,0
			c0,0,0-0.1,0-0.2c-0.1-0.3-0.2-0.8-0.7-1l-0.1,0l-0.1,0c-0.6,0-0.9,0.4-1.2,0.8c-0.1,0.2-0.1,0.3-0.1,0.5c0,0,0,0.1,0,0.1
			c-0.1,0.1-0.2,0.1-0.3,0.2c-0.2-0.1-0.4-0.2-0.7-0.2c-0.1,0-0.2,0-0.3,0l-0.1,0c-0.2,0.1-0.4,0.1-0.6,0.2l-0.1,0.1
			c-0.1,0.1-0.2,0.2-0.2,0.3c0,0.1-0.1,0.2-0.2,0.2l-0.1,0c-0.2,0-0.6,0.1-0.9,0.4l-0.1,0.1c0,0-0.1,0.1-0.2,0.1l-0.2,0.1
			c0,0,0,0,0,0c-0.1-0.1-0.1-0.1-0.2-0.2l-0.3-0.1c-0.1,0-0.2,0-0.3,0c-0.7,0-1.2,0.1-1.7,0.2c-0.3,0.1-0.5,0.3-0.7,0.5
			c0-0.1,0-0.1-0.1-0.2c0-0.1-0.1-0.3-0.1-0.4c-0.2-0.5-0.6-0.8-0.9-1l-0.1-0.1c-0.1,0-0.1,0-0.2-0.1c-0.2-0.1-0.4-0.2-0.7-0.2
			c-0.5-0.2-1-0.4-1.7-0.4c-0.4,0-0.8,0.1-1.1,0.2l-0.1,0.1c-0.3,0.3-0.5,0.7-0.5,1.1c0,0,0,0,0,0c-0.2-0.2-0.4-0.3-0.6-0.4
			c-0.3-0.1-0.5-0.3-0.6-0.5c-0.2-0.2-0.3-0.3-0.5-0.4c0,0-0.1-0.1-0.1-0.1c-0.1,0-0.1-0.1-0.2-0.3c0,0-0.1-0.1-0.1-0.2
			c-0.1-0.2-0.3-0.5-0.6-0.6l-0.1-0.1l-0.1-0.1c-0.2-0.1-0.4-0.1-0.5-0.1c-0.3,0-0.5,0.1-0.6,0.3c0,0,0,0.1-0.1,0.1
			c-0.2-0.2-0.4-0.3-0.7-0.4c0,0-0.1-0.1-0.1-0.1l-0.1-0.1c-0.5-0.3-1-0.4-1.5-0.4c0,0-0.1,0-0.2,0c-0.1,0-0.2,0-0.2,0
			c-0.2,0-0.2,0-0.3-0.1l-0.1-0.1c0,0-0.1-0.1-0.1-0.1c-0.2-0.1-0.4-0.3-0.7-0.3c-0.3,0-0.5,0.1-0.7,0.4l0,0.1c0,0,0.1-0.1,0.1-0.1
			l-0.1,0.1l-0.1,0.3c0-0.1,0-0.2,0-0.2l-0.1,0.1c-0.1,0.4-0.1,0.7-0.1,1c0,0.2,0,0.5,0,0.6l0,0.2l0,0.2c-0.1,0.2-0.2,0.4-0.3,0.6
			c-0.1,0.2-0.2,0.5-0.4,0.7l-0.1,0.1c-0.1,0.1-0.2,0.1-0.4,0.2c-0.1,0-0.2,0.1-0.3,0.1c-0.6,0.3-1.2,1-1,2.2v0.1c0,0.2,0,0.3,0,0.6
			c0.1,0.5,0.4,0.8,0.9,1c0,0,0,0,0,0c0,0.1-0.1,0.2-0.2,0.3c-0.1,0.1-0.2,0.2-0.4,0.2c-0.2,0.1-0.4,0.3-0.5,0.5l0,0.1
			c-0.1,0.1-0.1,0.3-0.1,0.5c-0.3,0.1-0.5,0.3-0.7,0.5c-0.2,0.2-0.3,0.4-0.5,0.5l-0.1,0.1L93.1,88L93,88.1c-0.4,0.4-0.3,0.9,0.2,1.3
			l0.1,0.1c0.1,0.1,0.2,0.2,0.3,0.2c0,0,0,0,0.1,0c0,0.2,0,0.4,0.1,0.7c0,0.1,0.1,0.2,0.1,0.3c0.1,0.2,0.2,0.5,0.2,0.9c0,0,0,0,0,0
			c-0.2,0.1-0.3,0.3-0.4,0.4c-0.1,0.2-0.1,0.5,0.1,0.8c0.1,0.2,0.3,0.4,0.5,0.5c-0.1,0-0.1,0.1-0.2,0.1L94,93.6
			c-0.1,0-0.2,0-0.3-0.1c-0.2,0-0.4-0.2-0.6-0.3c-0.1-0.1-0.2-0.1-0.3-0.2L92.7,93c-0.2,0-0.3,0-0.4,0c-0.3,0-0.6,0.1-0.8,0.3
			c-0.2,0.2-0.3,0.4-0.3,0.8c-0.1,0-0.2-0.1-0.3-0.2c-0.2-0.2-0.6-0.5-1.1-0.5c-0.1,0-0.3,0-0.5,0.1L89,93.5l-0.2,0.3
			c-0.3,0.3-0.4,0.6-0.4,0.9c0,0.1-0.1,0.6,0.3,0.9c0.1,0.1,0.2,0.1,0.3,0.2c0,0,0.1,0.1,0.1,0.1c-0.1,0.4,0.1,0.7,0.3,0.9v0.1
			c0.2,0.3,0.4,0.6,0.7,1c0,0,0.1,0.1,0.1,0.1c0,0,0,0.1,0,0.1c0,0,0,0.1,0,0.2c0.1,0.2,0.1,0.4,0.3,0.6c0,0.1,0.1,0.2,0.2,0.2
			c-0.1,0.3-0.1,0.5,0.1,0.8c0,0-0.1,0.1-0.1,0.1c0,0,0,0.1-0.1,0.1c-0.1,0.1-0.1,0.2-0.1,0.4c0,0.2,0,0.4,0.1,0.6c0,0-0.1,0-0.1,0
			c-0.1,0-0.2,0-0.3,0c-0.2-0.2-0.4-0.3-0.6-0.4l0,0c-0.1-0.2-0.4-0.7-1-0.7c-0.2,0-0.5,0.1-0.7,0.2l-0.1,0.2
			c-0.3,0.5-0.3,1.1-0.3,1.6c0,0.1,0,0.4,0,0.4c-0.1,0-0.2,0-0.3,0.1l-0.1,0.1c-0.7,0.6-0.5,1.4-0.3,1.9l0,0.1
			c0.2,0.4,0.5,0.6,0.8,0.8l0.3,0.2c0.3,0.2,0.6,0.3,0.9,0.3c0.3,0,0.5-0.1,0.7-0.2l0.4-0.2c0.2,0.2,0.4,0.2,0.6,0.2
			c0.1,1,0.9,1.2,1.3,1.3c0.1,0,0.2,0.1,0.2,0.1l0.3,0c0,0,0.1,0.1,0.2,0.2c0.1,0.1,0.3,0.4,0.5,0.4c0,0,0,0,0,0
			c-0.2,0.1-0.4,0.3-0.4,0.5c0,0-0.2,0-0.2,0c-0.2,0-0.4,0-0.6,0.1c-0.1,0-0.2,0.1-0.3,0.1l-0.1,0c-0.1,0-0.2-0.1-0.3-0.2
			c0,0-0.1-0.1-0.1-0.2l-0.1-0.2c-0.1-0.1-0.2-0.3-0.5-0.4c-0.2-0.1-0.4-0.1-0.6-0.1c-0.1,0-0.5,0-0.7,0.4h0c-0.1,0-0.1,0-0.2,0
			l-0.2,0.1c-0.3,0.3-0.4,0.6-0.3,0.9c-0.1,0-0.2,0.1-0.3,0.2c-0.2,0.2-0.3,0.5-0.3,0.8l-0.2,1c-0.3,0-0.6-0.1-0.9-0.3
			c-0.1-0.1-0.1-0.1-0.1-0.1c0,0,0-0.1,0-0.3c0-0.1,0-0.4-0.1-0.6c-0.2-0.5-0.6-0.8-0.9-1.1l-0.2-0.1c-0.3-0.2-0.6-0.4-0.8-0.5
			l-0.5,0l-0.3,0.2c-0.1,0.1-0.2,0.2-0.3,0.3l-0.1,0.1c0,0.1-0.1,0.2-0.2,0.3c-0.1,0.2-0.3,0.4-0.4,0.6c0,0.1,0,0.2-0.1,0.2
			c-0.1,0.2-0.1,0.4-0.1,0.7c-0.2-0.1-0.5-0.2-0.8-0.2h-0.1c-0.3,0-0.5,0.1-0.9,0.1c-0.3,0-0.5,0.2-0.7,0.3c0,0-0.1,0.1-0.1,0.1
			c0,0-0.1,0.1-0.2,0.1c-0.2,0-0.4,0.1-0.7,0.3l-0.1,0.2c-0.3,0.8-0.2,1.5-0.1,2.1c0,0.2,0.1,0.4,0.1,0.6c0.1,0.5,0.1,0.9,0,1.3v0.3
			c0,0,0,0.2,0,0.2c-0.1,0.3-0.2,0.7,0.1,1.1l0.1,0.1c0.4,0.3,0.7,0.6,1.1,0.8c-0.3,0.1-0.5,0.3-0.8,0.5l-0.2,0.2
			c-0.1,0.3-0.1,0.5-0.1,0.8c0,0.1,0,0.2,0,0.3c-0.1,0.3-0.1,0.5-0.1,0.7c0,0.1,0,0.2,0,0.3l0,0.4c-0.1,0.2-0.1,0.5,0.1,0.8
			c0.1,0.2,0.3,0.2,0.5,0.2l0.2,0c0.2,0,0.3,0.1,0.6,0.5l0.1,0.1c0.1,0.2,0.2,0.4,0.3,0.6c0,0.1,0.1,0.2,0.1,0.3
			c-0.4-0.4-0.9-0.6-1.4-0.6c-0.1,0-0.3,0-0.4,0c-1.1,0.3-1.1,1.3-1.1,1.8c-0.1,0.4-0.1,0.7-0.1,1.1c0,0.2,0,0.4-0.1,0.7
			c0,0.2,0,0.3,0,0.5c0,0.1,0,0.3,0,0.3c-0.1,0.1-0.2,0.4-0.2,0.7c0,0.2,0,0.4,0.2,0.6c0,0.1,0,0.2,0,0.3c0,0.5,0,1.3,1,1.6v0.2
			c0,0.3,0,0.5-0.1,0.8c-0.2,1.1,0.1,2.1,1,2.7c0.3,0.2,0.6,0.3,0.9,0.3c0.4,0,0.9-0.1,1.3-0.4c-0.5,0.5-1,1.1-1,2.1h-0.1
			c-0.4,0-0.8,0.2-1,0.4l-0.2,0.1c-0.2,0.2-0.5,0.3-0.8,0.4c-0.2,0.1-0.5,0.1-0.8,0.3c-0.2-0.2-0.4-0.4-0.6-0.5
			c0.1-0.1,0.1-0.1,0.2-0.2c0.2-0.5,0.1-1-0.1-1.5c0-0.3-0.2-0.5-0.5-0.5l-0.2-0.1c-0.2-0.1-0.5-0.2-0.9-0.2c-0.1,0-0.2,0-0.3-0.1
			c-0.1,0-0.1,0-0.2,0c0-0.1,0.1-0.2,0.2-0.2c0.3-0.5,0.3-1.1,0.1-1.6l-0.2-0.1l-0.3-0.2c0.1,0,0.3,0.1,0.3,0.2
			c-0.1-0.5-0.2-1.1-0.3-1.8c0-0.1,0-0.2,0-0.2c0.8-0.6,1-1.4,1.1-2.2c0-0.2,0-0.5-0.3-0.8l-0.3-0.7c0-0.1-0.1-0.3-0.4-0.4
			c-0.1,0-0.2-0.1-0.4-0.1c-0.3,0-0.5,0.1-0.6,0.4c-0.2,0.4-0.1,0.7,0.1,0.9c-0.2,0.2-0.2,0.5-0.3,0.7c-0.1,0.5-0.2,0.5-0.5,0.5
			c0,0,0,0,0,0c-0.4,0-0.6,0.4-0.8,0.8c-0.3,0.6-0.3,1.1-0.3,1.7c-0.1-0.1-0.2-0.2-0.3-0.3c0.4-0.7,0.4-1.5,0.4-2.2l0-0.2
			c-0.1-0.3-0.1-0.7-0.1-1v-0.3c0-0.4,0-0.7-0.1-1.1c-0.1-0.6-0.1-1.2,0-1.9v-0.5l-0.1-0.2c-0.1-0.2-0.2-0.5-0.4-0.8
			c-0.2-0.5-0.5-1.1-0.9-1.5l-0.1-0.1c-0.2-0.1-0.4-0.2-0.6-0.2c0,0-0.1,0-0.1,0c0,0,0-0.2,0-0.2c-0.1-0.2-0.1-0.5-0.4-0.8
			c-0.1-0.2-0.1-0.5-0.4-0.8l-0.1-0.1c-0.1,0-0.2-0.1-0.2-0.3c-0.1-0.2-0.2-0.5-0.5-0.7l-0.1-0.1c-0.2-0.1-0.5-0.1-0.7-0.1h-0.3
			c-1.2,0-1.3,0.6-1.4,1.5c-0.1,0.1-0.2,0.2-0.5,0.3c-0.2,0.1-0.5,0.3-0.7,0.6c-0.3,0.5-0.6,1.3-0.1,2.1c0,0.1,0.1,0.1,0.1,0.2
			c0,0.1,0.1,0.2,0.1,0.4c0,0,0,0.1,0,0.3c0,0.1,0,0.2,0,0.4c0,0.3,0.1,0.5,0.3,0.6c-0.1,0.1-0.2,0.2-0.2,0.4
			c-0.1,0.2-0.1,0.4,0,0.6c0.1,0.3,0.1,0.5,0.2,0.7c0,0-0.1,0-0.1,0.1c-0.1,0-0.1,0-0.2,0c-0.1,0-0.2,0-0.2,0
			c-0.2,0-0.3,0.1-0.4,0.2c0,0,0-0.1-0.1-0.1c-0.1-0.1-0.2-0.2-0.2-0.3l-0.1-0.1c-0.1-0.1-0.2-0.1-0.3-0.2c-0.1-0.1-0.3-0.2-0.4-0.3
			l-0.1-0.1c-0.1-0.1-0.3-0.2-0.5-0.2c0,0,0-0.1,0-0.1c0-0.1,0-0.2,0-0.2c0-0.1,0-0.2-0.1-0.3c-0.1-0.2-0.1-0.3-0.2-0.5
			c-0.1-0.1-0.1-0.3-0.2-0.4c-0.2-0.3-0.5-0.5-0.7-0.6l-0.1-0.1c-0.2-0.1-0.5-0.2-0.9-0.2c-0.1,0-0.2,0-0.3,0l-0.3,0.1
			c-0.5,0.5-0.5,1.1-0.4,1.5c0,0.1,0,0.2,0,0.4c0,0,0,0.1-0.1,0.2c-0.1,0.2-0.2,0.5-0.1,1c0.2,0.3,0.4,0.4,0.6,0.5l0.1,0
			c0.2,0.1,0.3,0.2,0.4,0.4c-0.2,0.1-0.4,0.3-0.6,0.4l-0.2,0.5c-0.3-0.5-0.7-1-1.6-1l-0.1,0c-0.3,0.1-0.6,0.2-0.8,0.6
			c-0.1,0.1-0.1,0.3-0.1,0.4c-0.1,0.4,0,0.7,0,1.2c-0.2,0-0.4,0.1-0.6,0.2c-0.1,0.1-0.2,0.2-0.3,0.4l0,0.2l0,0.6
			c-0.2,0.4-0.1,0.8-0.1,1l0,0.2l0.2,0.3c0.1,0.1,0.3,0.2,0.5,0.2c0.1,0,0.2,0,0.2,0h0.1c0.1,0.1,0.1,0.2,0.2,0.4l0.1,0.5
			c-0.1,0.2-0.1,0.5,0.2,0.9c0.1,0.2,0.3,0.3,0.5,0.5c0.1,0.1,0.3,0.2,0.4,0.3c0.2,0.1,0.5,0.3,0.8,0.4c0.1,0,0.2,0.1,0.3,0.1
			c0.1,0,0.2,0.1,0.3,0.1c0.1,0.1,0.3,0.3,0.6,0.4c0.1,0,0.1,0.1,0.2,0.1c0.2,0.1,0.4,0.2,0.7,0.2c0.3,0,0.5-0.1,0.7-0.3l0.1-0.2
			c0.1-0.5,0.2-1,0.2-1.5l0.1,0l0.4,0c0,0.2,0.1,0.3,0.3,0.5c0.1,0.1,0.1,0.1,0.2,0.1c0.1,0.2,0.2,0.4,0.4,0.6
			c-0.2,0.1-0.3,0.2-0.4,0.4c-0.6,0.8-0.2,1.6,0,2.1c0.1,0.2,0.2,0.4,0.2,0.6c0.1,0.2,0.2,0.5,0.6,0.8c0.1,0,0.1,0.1,0.2,0.3
			l0.1,0.2c0.1,0.2,0.3,0.3,0.6,0.5c0.1,0,0.1,0.1,0.2,0.1c0,0.1,0,0.2,0,0.4c0,0.1,0.1,0.2,0.2,0.4c0.1,0.1,0.2,0.2,0.2,0.3
			c0.1,0.1,0.1,0.2,0.2,0.3c0.1,0.1,0.2,0.2,0.3,0.3c0.2,0.2,0.4,0.3,0.6,0.3c0,0.1,0,0.1,0,0.2c0,0.4,0.2,0.6,0.5,0.9
			c0.2,0.1,0.4,0.2,0.6,0.2c0.2,0,0.4,0,0.5-0.1c0.3-0.2,0.6-0.3,1-0.4c0.1,0,0.2,0,0.3,0c0.1,0,0.2,0,0.3-0.1c0,0,0.1,0,0.1,0
			c0.1,0,0.1,0,0.2,0c0.1,0,0.2,0,0.3,0c0.2,0,0.6,0,1-0.4v0.5c0,0.3,0,0.8,0.3,1.2c0.1,0.2,0.4,0.5,0.8,0.6l0.1,0
			c0.3,0,0.5-0.1,0.8-0.3c0.2-0.1,0.3-0.3,0.4-0.5c0.1-0.2,0.1-0.4,0.2-0.5c0.1-0.2,0.1-0.4,0.2-0.5c0-0.1,0.1-0.1,0.1-0.2
			c0.2,0.2,0.4,0.3,0.6,0.4c0,0,0,0,0,0c-0.1,0.1-0.2,0.2-0.3,0.2c-0.1,0.1-0.1,0.1-0.2,0.2c-0.4,0.4-0.5,0.9-0.3,1.3
			c0,0,0,0.1-0.1,0.3l-0.1,0.1l-0.1,0.1c-0.1,0.2-0.1,0.4-0.2,0.6c-0.1,0.3-0.1,0.5-0.3,0.7l-0.1,0.2c-0.1,0.3-0.1,0.6,0,0.9l0,0.1
			c0.2,0.5,0.4,1.4,1.4,1.4c0.2,0,0.5-0.1,0.9-0.2c1.2-0.4,2.1-1.2,2.7-2.5l0.1-0.2c0.2-0.4,0.3-0.6,0.5-0.7
			c0.9-0.4,1.4-1.2,1.5-2.4c0-0.2,0-0.2,0.3-0.4c0,0,0.4-0.2,0.6-0.3c0,0.2,0.1,0.4,0.1,0.6c0.1,0.2,0.2,0.4,0.4,0.6
			c-0.8,0.3-1.3,0.9-1.8,1.4c-0.3,0.3-0.5,0.6-0.8,0.8c-0.4,0.3-0.5,0.8-0.3,1.3c0.1,0.3,0.4,0.6,0.7,0.8c-0.5,0.1-1.1,0.5-1.5,1
			c-0.3,0.6-0.4,1.2-0.5,1.8c0,0.2-0.1,0.3-0.1,0.5c0,0.1-0.1,0.3-0.2,0.5c-0.2,0.3-0.4,0.8-0.3,1.3c-0.4,0.1-0.9,0.4-1,1.1
			c-0.1,1,0.8,1.1,1.1,1.2c0.1,0,0.1,0,0.2,0l0.1,0l0.4,0l0.2,0c0.4-0.2,0.9-0.2,1.4-0.3c0,0.1,0,0.2,0,0.3c0,0.1,0,0.2,0,0.3
			c-0.2,0.1-0.4,0.1-0.5,0.1l-0.1,0c-0.1,0-0.1,0-0.2,0c-0.1,0-0.3,0-0.6,0.2c-0.3,0.2-0.5,0.5-0.6,0.8c0,0.1-0.1,0.2-0.2,0.3
			c-0.2,0.3-0.5,0.8-0.4,1.2c0,0.1,0.1,0.1,0.1,0.2c0,0,0,0.1,0,0.1c-0.4-0.4-0.8-0.6-1.1-0.6c-0.4,0-0.7,0.3-1.2,0.7
			c-0.1,0-0.1,0.1-0.2,0.1l-0.1,0c-0.1,0-0.2,0-0.3,0c-0.2,0-0.3,0-0.5,0c-0.2,0-0.4,0-0.6,0c-0.2,0-0.5,0-0.7,0.1l-0.4,0
			c-0.1,0-0.2,0-0.3,0c-0.2,0-0.4,0.1-0.6,0.2l-0.2,0.1c-0.1,0.1-0.3,0.2-0.5,0.2c-0.1,0-0.2,0.1-0.4,0.2c-0.1,0.1-0.3,0.2-0.3,0.4
			l0,0.1l0,0.1c0,0,0,0.1,0,0.1l-0.1,0.1c0,0-0.1,0.1-0.1,0.1c-0.2,0.1-0.4,0.3-0.5,0.6c0,0.2-0.1,0.5,0,0.8c0.2,0.4,0.4,0.7,0.6,1
			c0.3,0.4,0.8,0.6,1,0.6c0.3,0.1,0.6,0.1,0.9,0.1c0.2,0,0.5,0,0.7-0.1c0.2-0.1,0.4-0.1,0.6-0.1c0.1,0,0.3,0,0.4,0.1
			c0.5,0.2,1.1,0.3,1.6,0.4c-0.3,0.2-0.6,0.4-0.7,0.7c0,0,0,0.1,0,0.1c-0.6-0.6-1.4-0.9-2.3-0.9c-1.2,0-2.2,0.6-2.8,1.5l0,0.1h-0.1
			c0,0-0.1,0-0.2,0c-0.1,0-0.2,0-0.4,0.1c-0.7,0.1-1.2,0.2-1.5,0.7c-0.2,0.4-0.1,0.9,0.2,1.7c-0.6,0.6-0.7,1.1-0.6,1.5
			c0.1,0.3,0.3,0.8,1.1,1.1c0,0,0.1,0,0.1,0c-0.2,0.1-0.4,0.4-0.5,0.7c-0.2,1,0.6,1.2,0.9,1.3c0.1,0,0.2,0,0.2,0.1l0.4,0
			c0,0,0.1,0,0.1,0c0.4,0.4,1,0.6,1.6,0.6c0.3,0,0.5-0.1,0.8-0.1c-0.2,0.3-0.3,0.6-0.4,0.9c0,0.1-0.1,0.2-0.2,0.3
			c-0.1,0.1-0.1,0.2-0.2,0.3c-0.5,0.2-1,0.7-0.9,1.9c0,0.1,0,0.2,0.1,0.3c-0.3,0-0.4,0.1-0.6,0.2c-0.4-0.3-0.8-0.4-1.3-0.4
			c-0.7,0-1.4,0.3-1.7,0.9l-0.1,0.3l0,1.1l0,0.2c0.1,0.1,0.1,0.3,0.1,0.4c0.2,0.6,0.5,1.4,1.4,1.7h0.1v0l0.1,0
			c0.1,0,0.2,0.1,0.3,0.1c0.2,0.1,0.4,0.1,0.6,0.1c0.3,0,0.6-0.1,0.8-0.4c0.3-0.4,0.7-0.6,1.2-0.6c0.2,0,0.3,0,0.5,0
			c0.1,0,0.2,0,0.2,0c0.3,0,0.6-0.1,0.9-0.2c0.3-0.1,0.7-0.2,1.1-0.2c0.8-0.1,1.7-0.2,2.4-0.9c0.5,0,1-0.2,1.3-0.5
			c0,0.1,0,0.1,0.1,0.1c0.2,0.3,0.6,0.5,1.1,0.5h0.1c0.4,0,0.8-0.1,1.2-0.3c0.1-0.1,0.3-0.2,0.5-0.3c0.4-0.2,0.8-0.5,1.2-0.8
			c1.3-1,2.7-2.5,2.6-4.9l-0.1-0.2c-0.4-0.6-0.9-1.1-1.4-1.5c0.1,0,0.1,0,0.2,0c0.7,0,1.2-0.4,2.1-1.2c0.1-0.1,0.1-0.1,0.2-0.1
			c0.1-0.1,0.2-0.2,0.3-0.2c0.9-0.8,1.5-1.7,2-2.8c0.1-0.2,0.2-0.4,0.5-0.6c0.2-0.2,0.5-0.4,0.8-0.6c0.6-0.4,1.2-0.8,1.6-1.5
			c0,0,0,0.1,0,0.1c0.1,0.3,0,0.4-0.4,0.8l-0.2,0.2c-0.5,0.5-0.7,1.1-0.9,1.6c-0.1,0.2-0.1,0.3-0.2,0.4c-0.7,0.6-0.8,1.1-0.5,1.7
			c-0.2,0.1-0.4,0.3-0.6,0.5c-0.3,0.4-0.5,0.9-0.7,1.3c-0.3,0.7,0,1.1,0.2,1.2c0.1,0.1,0.2,0.1,0.2,0.2c-0.2,0.1-0.3,0.3-0.4,0.5
			c-0.3,0.5-0.8,0.8-1.3,1c-0.6,0.3-1.3,0.7-1.4,1.4c-0.1,0.7,0.3,1.3,0.7,1.8c-0.1,0.1-0.2,0.2-0.4,0.4c-0.2,0.2-0.4,0.5-0.7,0.5
			c-0.5,0.1-0.9,0.5-1,0.8c-0.2,0.3-0.2,0.6-0.1,1c0.1,0.3,0,0.6-0.1,1c-0.1,0.1-0.1,0.2-0.1,0.4c0,0.1,0,0.1-0.1,0.2
			c0,0-0.1-0.1-0.2-0.1c-0.4-0.4-0.8-0.6-1.2-0.6c-0.7,0-1,0.7-1.1,1.2l-0.8,0.8l-0.2,0.4l0.5,0.6c0.5,0,0.9-0.3,1.1-0.6
			c0,0,0.1-0.1,0.1-0.1c0.1,0,0.1,0.1,0.1,0.4c0,0.2-0.1,0.5-0.2,0.7c-0.1,0.2-0.2,0.4-0.2,0.7l0,0.1l0,0.4l0,0.2
			c0.1,0.2,0.2,0.4,0.4,0.5c0,0,0,0,0,0l-0.2,0.3l-0.1,0c-1,0.6-1.9,1.3-2.7,2c-0.3,0.2-0.5,0.5-0.8,0.7c-1,0.9-2,1.9-2.3,3.4l0,0.7
			l0.1,0.3c0,0,0,0,0,0.1c-0.7,0.2-1.3,0.7-1.7,1.4c-0.2-0.5-0.5-0.9-1.1-0.9c-0.4,0-0.8,0.1-1.3,0.4c-0.3,0.1-0.5,0.3-0.7,0.5
			c-0.4,0.5-0.9,0.9-1.6,1.4c-0.1-0.1-0.1-0.2-0.2-0.2c-0.2-0.1-0.4-0.2-0.6-0.2c-0.3,0-0.5,0.1-0.7,0.3c-0.5,0.6-1.2,1-2.2,1.1
			l-0.3,0.2c-0.3,0.5-0.4,0.9-0.4,1.4c0,0.3,0,0.5-0.1,0.7c-0.1,0.2-0.2,0.4-0.3,0.7l0,0.6l0.1,0.2c0.1,0.2,0.2,0.4-0.1,0.9
			c0,0.1-0.1,0.2-0.2,0.3c-0.1,0.2-0.2,0.4-0.3,0.6c-0.1,0.2-0.1,0.4-0.1,0.7c0,0.1,0,0.2-0.1,0.3c-0.1,0.2-0.3,0.5-0.3,0.9
			c0,0.1,0,0.3,0.1,0.4c0.1,0.2,0.3,0.6,0.7,0.8c0.2,0.1,0.5,0.2,0.7,0.2c0.6,0,1.1-0.4,1.4-0.6c0.6-0.5,1.2-1.1,1.6-1.8
			c0.1,0.3,0.4,0.5,0.8,0.8c0.4,0.2,0.6,0.6,0.6,1c0,0,0,0,0,0c-0.2,0.1-0.5,0.1-0.7,0.4l0,0.1c-0.2,0.1-0.3,0.3-0.4,0.5
			c-0.2,0.4-0.3,0.8-0.4,1.3c-0.1,0.6-0.1,1.1,0.2,1.4c0.3,0.5,0.9,0.6,1.3,0.6c0.1,0,0.2,0,0.2,0c1.2,0,1.8-0.8,2.3-1.6
			c0.2-0.3,0.2-0.3,0.3-0.3h0c0.1,0,0.2,0,0.4,0c0.8,0,1.5-0.4,2.1-0.7l0.3-0.2l0.2-0.7c0.1,0.2,0.1,0.4,0,0.5
			c0.1-0.1,0.2-0.3,0.3-0.4c0.1-0.1,0.2-0.3,0.3-0.3c0.7-0.5,1-1.2,0.7-2c0,0,0-0.1,0-0.2c0-0.1,0-0.3-0.1-0.5
			c-0.1-0.3-0.1-0.6-0.2-0.9c-0.1-0.4-0.1-0.9-0.4-1.4c0.2,0,0.5,0.1,0.7,0.1c0.9,0,1.5-0.5,1.7-1.2c0.1-0.2,0.1-0.4,0-0.6
			c0,0,0-0.1,0-0.2c0-0.1,0.1-0.3,0.1-0.4c0-0.1,0-0.2,0-0.4c0-0.2,0-0.5,0-0.5c0,0,0.1,0,0.3,0h0.2c0.3,0,0.7-0.4,0.9-0.5
			c0.3-0.3,0.4-0.6,0.4-0.9c-0.1-0.8,0.3-1.5,0.6-2.2c0.1-0.2,0.2-0.3,0.2-0.5c0.8-1.8,1.8-3.6,2.7-5.2c0.3-0.4,0.5-0.9,0.6-1.4
			c0,0,0-0.1,0-0.1c0,0,0,0,0,0h0c0,0.4,0,0.7,0.2,0.9c0.1,0.1,0.2,0.2,0.4,0.3c-0.6,0.9-1.1,1.9-1.5,2.9c-0.2,0.5-0.5,1.1-0.7,1.6
			c-0.2,0.4-0.2,0.9-0.1,1.5c0.1,0.4,0.3,0.6,0.5,0.8c0,0.2,0,0.4-0.1,0.6c0,0.1,0,0.3,0,0.4c-0.1,0.5,0.2,0.9,0.6,1.1
			c0.1,0,0.2,0.1,0.3,0.1c-0.3,0.7-0.5,1.4-0.5,2.3c0,0.3,0.1,1.4,1.1,1.8h0c0,0.3,0.1,0.9,0.5,1.1c0,0.1-0.1,0.1-0.1,0.2
			c-0.4,0.6-0.7,1.2-1.2,1.6c-0.2,0.1-0.3,0.4-0.3,0.6c0,1.5-0.3,3-0.9,4.5c-0.1,0.1-0.1,0.3,0,0.4c0.1,0.7,0,1.4,0,2.1
			c-0.1,0.6-0.1,1.2,0,1.9c0,0.6-0.1,1-0.6,1.4c-1.1,0.8-1.5,1.9-1.4,3.3c0,0.3,0,0.6,0,1c0,0.2,0,0.3,0,0.5c0,1,0.4,1.6,1.2,1.8
			c0.2,0.1,0.6,0.1,0.9,0.1c0.5,0,1-0.2,1.3-0.7c0.2-0.1,0.4-0.1,0.6-0.1l0.4,0c1,0,1.8-0.4,2.4-1.1c0.2-0.3,0.4-0.5,0.5-0.8
			c0.1-0.2,0.2-0.3,0.2-0.4l0-0.1c0.1-0.1,0.1-0.3,0-0.4c0.1-0.3,0.2-0.6,0.1-0.9c-0.1-0.6-0.2-1.4-0.8-2c0.5-0.9,0.8-1.8,1.1-2.6
			c0.2-0.5,0.3-1,0.4-1.5c0.2-0.7,0.3-1.3,0.6-1.8l0-0.1c0.1-0.2,0.1-0.4,0-0.6l0-0.2c-0.3-0.6-0.2-1.2-0.2-1.9
			c0-0.3,0.1-0.6,0.1-0.8l0-0.1c0.1-0.1,0.2-0.2,0.3-0.4l0-0.1c0.3-1.5,1-2.4,2.3-2.8c0.4-0.1,0.9-0.5,0.9-1.5
			c0-0.9-0.3-1.6-0.7-2.2c0.1,0,0.1,0,0.2,0c0.5,0,1,0.3,1.4,0.7c0.2,0.2,0.5,0.3,0.7,0.3c0.3,0,0.6-0.1,0.7-0.4
			c0.1,0.1,0.2,0.2,0.2,0.3l0,0.4c0,0.1,0.1,0.3,0.1,0.5c0,0.4,0.1,0.9,0.5,1.3l0.3,0.2c0.6,0.5,1.1,0.9,1.4,1.6
			c0.1,0.4,0.5,0.4,0.7,0.5l0.3,0l0,0l0.4,0c0.4-0.2,0.6-0.5,0.7-0.9c0-0.3,0.1-0.6,0.2-0.9c0.2-0.9,0.5-2-0.3-3.1v-0.1
			c0-0.3,0-0.6-0.2-0.9c0.7,0,1.1-0.4,1.5-1c0.1-0.2,0.2-0.4,0.3-0.6c-0.1,0.8-0.1,1.6,0,2.4c0,0.6,0.1,1.2,0.4,1.7
			c0.4,0.7,0.3,1.2-0.2,1.9c-0.8,0.9-0.7,1.8,0.2,2.6l0.2,0.1c0.4,0.3,0.7,0.6,0.8,1c0.3,1.3,1.3,1.5,1.9,1.6l0.1,0
			c0.3,0.1,0.7,0.1,0.9,0.2l0.3,0.2c0.1,0.2,0.3,0.5,0.4,0.6c0.1,0.1,0.2,0.2,0.2,0.3c0.2,0.3,0.1,0.4,0.1,0.5
			c-0.3,0.3-0.4,0.6-0.4,0.9c0,0.4,0.3,0.7,0.6,1l0.1,0.1c0.3,0.2,0.5,0.4,0.5,0.6c0.1,1.1-0.4,2-1.5,2.3c-1,0.4-1.7,1.1-1.8,1.9
			c-0.1,1-0.7,1.7-1.4,2.4l-0.1,0.1c-0.2,0.4-0.2,0.9-0.1,1.2l0,0.1c0.2,1.1-0.3,2.2-0.7,2.9c-0.4,0.7-1,1.5-1.6,2.2
			c-0.8,0.8-1.2,1.7-1.4,2.9c-0.2,0.2-0.2,0.5-0.2,0.6c-0.8,0.8-1.1,1.7-1.1,2.6l-0.2-0.1l-0.8,0l-0.1,0c-1.3,0.4-1.6,1.2-1.7,2.5
			c-0.2,2.9,0.8,5.3,3,7c0.5,0.4,0.9,0.9,1.2,1.5l0.1,0.3c0.2,0.5,0.4,1,0.8,1.4c0.1,0.1,0.1,0.2,0,0.4c-0.4,0.7-0.2,1.4,0.4,2v0
			c0.7,1,1.4,1.5,2.3,1.5c0.2,0,0.4,0,0.7-0.1l0.3-0.2c0.3-0.5,0-1-0.1-1.2c0,0-0.1-0.1-0.1-0.1c0.3-0.6,0.4-1.4-0.5-2.1
			c0,0-0.1-0.1-0.1-0.3c-0.2-0.9-0.5-1.8-0.8-2.6l-0.2-0.5c-0.1-0.3-0.1-0.6,0.2-0.8c0.3-0.2,0.6-0.4,0.9-0.6
			c0.2-0.2,0.5-0.3,0.7-0.5c0.4,0.6,1,0.9,1.5,1.1c0.3,0.1,0.5,0.3,0.7,0.4c0.4,0.3,0.7,0.5,1.1,0.7c0.9,0.5,1.7,1,2,2
			c0.1,0.2,0.2,0.4,0.4,0.6c1,1,2.1,1.6,3.3,2.2l0.4,0.2c0.2,0.1,0.4,0.2,0.7,0.2c0.3,0,0.7-0.1,1-0.4c0.6-0.4,0.8-1.1,0.7-1.9
			c-0.1-0.8,0-1.6,0.1-2.4l0-0.3c0.1-1.2,0.1-1.6-1-2.2c-0.2-0.1-0.4-0.3-0.5-0.5c0.2,0.2,0.5,0.4,0.8,0.6l0.2,0.1
			c0.4,0.2,0.9,0.5,1.5,0.5c0.2,0,0.5,0,0.7-0.1c0.1,0.4,0.3,0.7,0.5,1.1c0.5,0.9,1.3,1.2,2.1,1.6l0.2,0.1c0.2,0.1,0.4,0.2,0.6,0.2
			c0.2,0,0.5,0,0.7-0.3c0.1,0.1,0.3,0.2,0.5,0.2l0.2,0c0.2,0,0.3-0.1,0.5-0.1l1.3,0l0.2,0c0.6-0.2,1.1-0.5,1.6-0.8
			c0.3-0.2,0.7-0.4,1.1-0.6c0.4-0.2,0.8-0.4,0.9-0.8c0.1-0.2,0.1-0.3,0-0.5c0.2-0.1,0.2-0.2,0.3-0.2c0.1,0,0.1,0,0.2,0
			c0.4,0,0.8-0.2,1.1-0.6c0.3-0.3,0.7-0.5,1.2-0.5c0.2,0,0.5,0,0.8,0.1c0.3,0.1,0.5,0.1,0.8,0.1c0.5,0,0.9-0.2,1.1-0.8
			c0-0.1,0.1-0.2,0.2-0.3c0.3-0.3,0.7-0.9,0.4-1.5c-0.2-0.4-0.3-0.8-0.3-1.2c0.3,0.1,0.5,0.2,0.8,0.2c0.2,0,0.4,0,0.7-0.2
			c0.6-0.3,1.2-0.4,1.7-0.4c0.3,0,0.6,0.1,0.9,0.2c0.1,0,0.2,0.1,0.4,0.1c0.1,0,0.3,0,0.5-0.1c0.1,0,0.2,0,0.3,0c0.1,0,0.1,0,0.1,0
			c0,0,0.1,0,0.2,0.1c-0.4,0.3-0.6,0.7-0.7,1.2c0,0.1,0,0.2,0,0.3c-0.1,0-0.2,0-0.2,0c-0.8,0-1.2,0.7-1.5,1.2l-0.1,0.1
			c-0.6,1.2-1.2,2.4-1.2,3.8c0,0.7-0.3,1.3-0.8,1.8c-0.7,0.7-1.1,1.5-1.5,2.2c-0.2,0.5-0.4,0.9-0.7,1.2c-0.2,0.3-0.2,0.6-0.1,0.8
			c0,0.1,0,0.1,0,0.2c-0.1,1.3-0.2,2.5-0.9,3.6c-0.8,1.2-0.8,1.4,0.2,2.4c0.1,0.1,0.2,0.2,0.3,0.3c0.4,0.7,0.9,1.3,1.3,1.8l0.3,0.3
			c0.4,0.5,0.8,0.9,1,1.5c0.1,0.1,0.1,0.2,0.1,0.2c0.2,0.3,0.4,0.6,0.6,0.9c0.4,0.5,0.8,1,0.7,1.6c-0.1,1.1,0.3,1.9,0.7,2.6
			c0.1,0.2,0.3,0.4,0.4,0.6c0.2,0.2,0.3,0.5,0.4,0.7c0.5,1,0.8,1.5,1.8,1.5c0.1,0,0.2,0,0.4,0c0,0.1,0,0.3,0,0.4
			c-0.2,0.2-0.5,0.5-0.4,1c0.1,1.6,0.9,2.9,1.6,3.8c0.2,0.3,0.5,0.4,0.9,0.5l0.1,0c0.4,0,0.8-0.2,1-0.5c0.1-0.2,0.1-0.3,0.1-0.4
			c0.3-0.1,0.6-0.3,0.5-1c0,0,0-0.1,0.2-0.2l0.1-0.1c0.8-0.9,1.4-1.9,1.8-3c0,0.1,0.1,0.2,0.1,0.2c0.2,0.6,0.6,0.9,1.2,0.9
			c0.1,0,0.1,0,0.2,0l0.1,0c0.5,0,1.1-0.1,1.4-0.9c0-0.1,0.1-0.2,0.1-0.3c0-0.1,0-0.2,0.1-0.2c0.1,0.2,0.2,0.4,0.3,0.6
			c0.2,0.3,0.3,0.7,0.5,1.1c0.1,0.2,0.2,0.5,0.1,0.7c0,0.2-0.2,0.4-0.4,0.5c-1,0.5-1.7,1.3-1.9,2.2c-0.2,0.8,0.1,1.7,0.8,2.5
			c0,0.1,0.1,0.1,0.1,0.1c0,0-0.1,0.1-0.3,0.1c-0.7,0.1-1.3,0.4-1.9,0.7c-0.4,0.2-0.8,0.4-1.2,0.5c-0.2,0.1-0.4,0.3-0.4,0.6L143,276
			c-0.4,1-0.4,2.1-0.4,3.2v0.3c0,1.8,0.8,2.7,2.4,2.9c-0.8,0.9-1.3,1.9-1.9,2.9l-0.1,0.3c0,0.1,0,0.1,0,0.2c0,0,0,0.1,0,0.1
			c-1.2,1-1.9,3-1.1,4c0.5,0.6,0.7,1.1,0.8,1.7c0.1,0.4,0.2,0.7,0.4,1.1c-0.3,0.1-0.6,0.2-1,0.5c-0.5,0.3-1,0.6-1.6,0.8l-0.4,0.2
			c-0.5,0.3-1.1,1-0.3,2.2c0.3,0.4,0.6,0.8,1,1.2c0.5,0.5,0.8,1.1,0.8,1.6c-1-0.8-1.9-1.7-3.1-2.4c-0.1-0.1-0.2-0.2-0.3-0.3
			c-0.3-0.5-0.7-0.8-1.3-0.8c-0.2,0-0.3,0-0.5,0.1l-0.4,0.1c-1,0.3-2,0.6-2.8,1.2l-0.7,0.2c-0.6,0.2-1.3,0.4-1.9,0.7
			c-0.4,0.1-0.7,0.2-1,0.2c-0.3,0-0.6-0.1-0.8-0.2c-0.6-0.5-1.3-0.7-1.9-1c-0.5-0.2-0.9-0.3-1.3-0.6c-0.2-0.1-0.5-0.2-0.8-0.2
			c-0.3,0-0.7,0.1-0.9,0.4c-0.4,0.5-0.4,1,0.3,1.6c0,0,0,0,0,0c0,0-0.1,0-0.1,0.1c-0.3,0.2-0.7,0.4-1.1,0.5c-0.5,0.2-1,0.4-1.4,0.7
			c-0.6,0.4-1.1,0.7-1.6,0.8c0.2-0.2,0.3-0.5,0.5-0.8c0.3-0.8,0.5-1.5,0.2-2c-0.3-0.5-1-0.5-1.8-0.5h-0.1c-0.1,0-0.2,0-0.3,0.1
			c-0.3,0.1-0.4,0.2-0.6,0.3l-0.1,0.1c-0.2,0.1-0.4,0.2-0.4,0.2c-0.1,0-0.2-0.2-0.2-0.3l-0.1-0.1v-0.1c-0.1-0.7-0.5-1.3-0.9-1.7
			c-0.2-0.2-0.2-0.3-0.2-0.3c0.2-1.3-0.8-1.7-1.4-2c-0.7-0.2-1.3-0.3-2.1-0.3c-0.9,0-1.8,0.2-2.7,0.3c-0.2,0.1-0.5,0.1-0.8,0.1
			c-0.5,0.1-0.9,0.4-1.1,0.7c-0.2,0.3-0.2,0.7-0.1,1.1c0.2,0.6,0.1,1-0.3,1.7l0,0.1c0,0,0,0.1,0,0.1c-0.1-0.1-0.2-0.1-0.4-0.1
			c-0.1,0-0.2,0-0.2,0l-0.8,0l-0.2,0l-0.1,0c-0.4,0.1-1.2,0.5-1,1.5c0.1,0.5,0.4,1.3,1.4,1.4c0.1,0,0.2,0,0.3,0.2
			c0.3,0.6,0.7,1.2,1.4,1.2c0.2,0,0.4,0,0.7-0.1c0,0.1,0.1,0.2,0.1,0.3c0.1,0.2,0.2,0.4,0.3,0.6c0.2,0.5,0.4,1,1,1.4l0.5,0.4
			c0.6,0.4,1.1,0.9,1.8,1.3c0.3,0.2,0.5,0.3,0.8,0.4c-0.1,0.5,0,0.9,0,1.4c0.1,0.8-0.2,1.5-0.8,2c-0.7,0.5-1.4,1.1-2.1,1.8l-0.2,0.2
			c-0.3,0.4-0.6,0.6-0.9,0.6c-0.1,0-0.2,0-0.3-0.1l-0.2,0c-0.3,0-0.5,0.2-0.7,0.3c0,0,0,0-0.1,0.1c-1,0.7-1.8,1.7-2.6,2.6
			c-0.2,0.2-0.4,0.5-0.6,0.7c-0.5,0.6-1,1.4-1.2,2.3c-0.1,0.6,0.1,1.1,0.5,1.4c0.2,0.2,0.5,0.2,0.7,0.2c0.3,0,0.6-0.1,0.8-0.4
			c0.1-0.2,0.3-0.2,0.6-0.3c0.1,0,0.4,0,0.4,0c0.3,0,0.6-0.1,0.9-0.3c0.4-0.2,0.6-0.4,0.7-0.4c0.1,0,0.2,0.3,0.4,0.7
			c0.3,0.7,0.8,0.8,1,0.8c0.2,0,0.4-0.1,0.6-0.2l0.2-0.1c0.4-0.3,1.3-0.8,0.8-2c0,0,0-0.1,0.2-0.3l0.1-0.1c0.1-0.1,0.1-0.2,0.2-0.3
			l0.1-0.1c0-0.1,0-0.2,0-0.2c0.3-0.1,0.6-0.3,0.9-0.5c0.4-0.2,0.7-0.5,1.1-0.5c0,0,0.2,0,0.3,0c0.3,0,0.6-0.1,0.9-0.3
			c0.6-0.4,1.2-0.6,1.8-0.6c0.3,0,0.6,0.1,0.9,0.2c0.1,0,0.2,0.1,0.3,0.1c0,0.3,0.1,0.6,0.3,1c0,0.1,0.1,0.2,0.1,0.2
			c0.2,0.5,0.2,0.5,0.1,0.6c-0.9,0.9-0.3,1.8-0.1,2.1l0.5,0.8c0.3,0.5,0.6,1,0.9,1.5c0.1,0.2,0.2,0.3,0.4,0.5
			c-0.1,0.3-0.4,0.6-0.6,0.9c-0.2,0.3-0.4,0.6-0.6,1c-0.6,1.1-0.6,2.1,0,3.2l0.1,0.1c0.4,0.9,0.8,1.4,1.1,1.8c0,0.2-0.1,0.3,0,0.5
			c0.1,0.8-0.2,1.5-0.4,2.2c-0.1,0.2-0.2,0.5-0.2,0.7c-0.1,0.3-0.1,0.5-0.1,0.6l0,0.7c0,0-0.1,0.1-0.1,0.1c-0.2,0.5-0.5,1-0.7,1.5
			c-0.4,1-0.7,1.9-1.4,2.7c-0.5,0.5-1.1,0.9-1.7,1.3c-0.4,0.3-0.8,0.6-1.3,0.9c-0.1,0-0.2,0-0.3,0c-0.1,0-0.1,0-0.2,0
			c-0.5,0-0.9,0.2-1.1,0.6c-0.3,0.5-0.8,0.8-1.3,1.1c-0.5,0.3-1,0.7-1.4,1.2c0,0-0.1,0-0.1,0c0,0,0,0,0,0c-0.3-0.1-0.6-0.1-1-0.1
			c-0.8,0-1.5,0.2-2.1,0.4c-0.1,0-0.2,0-0.3,0.1c-0.4,0.1-0.7,0.3-0.9,0.6c-0.1,0-0.2,0-0.3,0c-0.6,0-0.8,0.5-1,1
			c-0.3,0.6-0.5,0.9-1.1,1.1c-0.3,0.1-0.7,0.2-0.8,0.6c-0.2,0.6-0.4,0.6-0.5,0.6c-0.1,0-0.2,0-0.4-0.1l-0.2,0
			c-0.2,0-0.5,0.1-0.7,0.5c-0.2,0.3-0.3,0.4-0.3,0.4c0,0-0.1,0-0.4-0.3c-0.3-0.3-0.9-0.5-1.5-0.5c-0.6,0-1.2,0.2-1.5,0.5l-0.1,0.2
			l0,0.1c-0.2,0.4-0.4,0.9-0.4,1.5c0,0.1,0,0.1-0.1,0.1c-0.4,0.1-0.7,0.2-1.1,0.4c-0.3,0.1-0.5,0.3-0.8,0.3l-0.1,0.1
			c-0.1,0.1-0.2,0.1-0.3,0.2c-0.1,0.1-0.2,0.2-0.3,0.2c-0.6,0.3-1.2,0.6-1.9,0.8l-0.1,0c-0.2,0.1-0.4,0.3-0.5,0.6c0,0.2,0,0.3,0,0.5
			c-0.1,0-0.3,0.1-0.4,0.2c-0.1,0.1-0.2,0.2-0.3,0.2c-0.2,0.2-0.3,0.4-0.3,0.7c0,0.3,0,0.5,0.1,0.8c0.1,0.1,0.2,0.2,0.3,0.3l0.2,0.1
			c0.2,0.1,0.4,0.1,0.6,0.1c0.2,0,0.4,0,0.6-0.1c0.1-0.1,0.3-0.1,0.5-0.2c0.2-0.1,0.5-0.2,0.9-0.5c0,0,0,0,0.1-0.1
			c0.1,0,0.2,0,0.3,0c0.1,0,0.2,0,0.3,0c0.4,0.6,1,0.6,1.4,0.6l0.1,0l0.1,0c0,0,0,0.1,0,0.2c-0.1,0.4,0.1,0.7,0.1,0.9
			c0.1,0.2,0.1,0.4,0.1,0.6c0,0,0,0-0.1,0c-0.3,0-0.7,0.1-1.1,0.4l-0.2,0.1c-0.2,0.2-0.5,0.4-0.7,0.7c-0.1,0.1-0.1,0.1-0.1,0.1
			c-0.1,0-0.2,0-0.3-0.1c-0.2-0.1-0.4-0.1-0.6-0.1c0,0-0.2,0-0.2,0l-0.3,0c-0.3,0-1.1,0-1.3,1l0.1,0.5l0.2,0.2
			c0.3,0.4,0.8,0.4,1.1,0.4c0.1,0,0.2,0,0.2,0c0.8,0.1,1.3,0.3,1.5,1c0.1,0.1,0.1,0.2,0.3,0.4c0.2,0.2,0.5,0.3,0.7,0.3
			c0.2,0,0.3,0,0.4-0.1c0.2,0.3,0.5,0.5,0.6,0.6l0.1,0.1c0.8,0.3,0.8,0.3,0.9,1.1c0,0.2,0.1,0.3,0.1,0.4c0.1,0.1,0.2,0.3,0.4,0.4
			c0.2,0.1,0.3,0.1,0.5,0.1c0.1,0,0.2,0,0.3,0.1c0.3,0.2,0.6,0.2,0.9,0.3c0.1,0,0.3,0.1,0.5,0.2l0.1,0.1c0.2,0.1,0.4,0.1,0.6,0.1
			c0.5,0,0.8-0.2,1.2-0.4c0.1-0.1,0.2-0.1,0.3-0.2l0.1-0.1c0.4-0.9,0.6-0.9,0.7-0.9c0.1,0,0.2,0,0.4,0.1c0.2,0.1,0.5,0.2,0.7,0.2
			c0.3,0,0.6-0.1,0.9-0.4l0.1-0.1c0-0.1,0.1-0.2,0.2-0.2c0.1,0,0.1,0,0.2,0c0.2,0,0.4-0.1,0.5-0.2l0.3,0c0.9-0.2,0.9-1,0.9-1.3
			c0-0.1,0-0.2,0-0.3l0.1-0.1c0.1-0.2,0.1-0.4,0.2-0.6c0.1-0.4,0.1-0.5,0.3-0.5c0.1,0,0.2,0,0.4,0c0.2,0,0.4,0,0.6-0.1
			c0.1,0.1,0.3,0.1,0.5,0.1c0.2,0,0.4-0.1,0.7-0.2c0.1-0.1,0.2-0.1,0.2-0.1c0,0,0.1,0,0.2,0c0.4,0.1,0.7,0.2,1.1,0.2
			c0.1,0,0.2,0,0.3,0.1c0.2,0.1,0.3,0.1,0.5,0.1c0.4,0,0.7-0.2,0.9-0.4l0,0.1c0,0.2,0.1,0.4,0.2,0.7c0.2,0.3,0.4,0.5,0.5,0.8
			c0.1,0.3,0.4,0.5,0.7,0.7c0.5,0.3,1,0.6,1.5,0.6h0.1c-0.1,0.1-0.1,0.1-0.2,0.2c-0.2,0.2-0.3,0.3-0.5,0.4l-0.1,0.1
			c-0.1,0.1-0.2,0.2-0.4,0.5c-0.1,0.1-0.1,0.3-0.1,0.5c0,0.2,0.1,0.4,0.1,0.5c0,0.1,0.1,0.2,0.1,0.2c0,0,0,0.1,0,0.2
			c-0.1,0.3-0.2,0.8,0.2,1.2l0.1,0.1c0.2,0.1,0.4,0.2,0.7,0.3c0.2,0.1,0.4,0.1,0.6,0.2c0.1,0,0.2,0.1,0.2,0.1c0.1,0,0.1,0.1,0.2,0.1
			c0.2,0.1,0.3,0.2,0.6,0.2c0.1,0,0.1,0,0.2,0c0.2,0,0.3,0,0.4-0.1l0.2-0.1c0.1,0,0.1,0,0.2,0c0.1,0,0.2,0,0.4,0c0.9,0,1-0.6,1-0.8
			c0,0,0-0.1,0-0.1c0.1,0,0.2,0,0.4,0.1c0.2,0.1,0.5,0.1,0.8,0.1c0.3,0,0.6,0,0.8-0.1c0.2,0,0.5,0,0.8,0c0.1,0,0.2,0,0.3,0
			c0.3,0,0.6-0.2,0.7-0.6l-0.1-0.4c-0.1-0.2-0.3-0.5-0.3-0.6c0,0,0.1-0.1,0.3-0.2c0.4-0.2,0.8-0.2,1.3-0.2c0.4,0,0.7,0,1.1-0.1
			c0.2,0.3,0.4,0.6,0.6,0.9c0.5,0.7,1,1.4,1.1,2.2c0.1,0.6,0.4,1,0.7,1.3c0.1,0.2,0.2,0.3,0.3,0.5c0.1,0.2,0.4,0.4,0.7,0.4
			c0.2,0,0.5-0.1,0.7-0.1c0.1,0,0.2-0.1,0.2-0.1c0.2,0.5,0.6,0.8,0.9,1c0.2,0.2,0.5,0.4,0.5,0.6c0.6,1.1,1.4,1.4,2.4,1.5
			c0.4,0,0.9,0.1,1.3,0.2c0.7,0.1,1.5,0.3,2.2,0.3c0.5,0,1-0.1,1.5-0.2c0.2-0.1,0.4-0.1,0.6-0.2c0.2-0.1,0.4-0.1,0.6-0.2
			c0.1,0,0.2-0.1,0.3-0.1c0.1,0,0.2-0.1,0.4-0.1h0c0.2,0,0.3,0.1,0.5,0.1c0.4,0,0.9-0.2,1.1-1.1c0.1-0.3,0.1-0.6,0-0.9
			c0.2-0.1,0.5-0.3,0.6-0.9c0.1-0.3,0.2-0.4,0.6-0.6c1-0.4,1.8-1.1,2.5-1.7l0.1,0c0.1,0,0.2,0.1,0.3,0.1c0.3,0.1,0.6,0.2,1,0.2
			c0.3,0,0.5,0,0.8-0.2c0.5-0.2,1-0.5,1.5-0.7c1.1-0.5,2.3-1,3.4-1.8c0,0,0,0.1-0.1,0.1c-0.3,0.4-0.4,0.8-0.6,1.2
			c-0.2,0.5-0.3,0.9-0.6,1.2l-0.1,0.2c-0.1,0.2-0.3,0.4-0.4,0.4c-0.1,0-0.2,0-0.3,0c-0.7,0-1.1,0.4-1.6,0.8
			c-0.8,0.7-1.4,1.5-1.9,2.4c-0.2,0.4-0.3,0.5-0.5,0.5c0,0-0.1,0-0.1,0c-0.1,0-0.2,0-0.3,0c-0.5,0-0.8,0.2-0.9,0.4
			c-0.2,0.3-0.1,0.6,0,0.9c-0.2,0.1-0.5,0.2-0.6,0.5c-0.1,0.1-0.1,0.4,0,0.7l0,0l-0.1,0c-0.1,0-0.2,0-0.3,0c-0.1,0-0.2,0-0.3,0
			l-0.2,0.9c0.4,0.2,0.5,0.4,0.3,1c-0.2,0.6-0.1,1.1,0.2,1.6c0.1,0.2,0.2,0.3,0.1,0.6c-0.1,0-0.1,0-0.2,0c-0.3,0-0.5,0.2-0.7,0.4
			c-0.1,0.1-0.2,0.1-0.2,0.1c-0.1,0-0.2,0-0.3-0.1c-0.3-0.1-0.7-0.2-1-0.2c-0.4,0-0.7,0.1-1.1,0.2c-1.4,0.6-2.9,0.9-4.4,0.9h-0.2
			c-0.1,0-0.2,0-0.3,0c0,0-0.1,0-0.1,0c0,0-0.1,0-0.1,0c-0.4-0.5-1-1-1.7-1.3l-0.2-0.1c-0.6-0.3-1.1-0.6-1.8-0.6
			c-0.5,0-1,0.2-1.4,0.5c0,0-0.1,0-0.2,0c0,0-0.7-0.2-0.9-0.2c-1-0.2-2-0.5-3.1-0.5c-0.5,0-1,0.1-1.5,0.2c-0.3,0.1-0.6,0.1-0.9,0.1
			c-0.5,0-1.2,0.1-1.8,0.5c-0.1,0.1-0.3,0.1-0.5,0.1h-0.3c-0.3,0-0.7,0-1,0.2c-0.3-0.1-0.5-0.2-0.8-0.2c-0.4,0-0.7,0.1-1,0.2
			c-0.2,0.1-0.5,0.1-0.7,0.1c-0.5,0-1.2,0.1-1.7,0.6c0,0-0.1,0.1-0.1,0.1l-0.1,0c-0.2,0-0.4,0.1-0.5,0.2l-0.1,0.5
			c0.1,0.2,0.2,0.3,0.2,0.5c0.2,0.2,0.2,0.3,0.2,0.4l-0.1,0l-0.1,0c-0.2,0.1-0.6,0.3-0.7,0.7c0,0.3,0.2,0.5,0.4,0.7l0.1,0.4
			l-0.1,0.1l0,0l0.1,0l0.1,0.1c0,0,0.1,0.1,0.1,0.1s0,0,0,0.1c0,0.2,0,0.4,0.1,0.6c0.1,0.4,0.1,0.6,0,0.9c-0.3,0.1-0.5,0.3-0.6,0.5
			l-0.1,0.1l-0.4,0.6l-0.1,0.1c-0.3,0.2-0.6,0.4-0.9,0.6c-0.1,0-0.2,0.1-0.3,0.2h-0.1c-0.2,0-0.4-0.1-0.5-0.2
			c-0.2-0.5-0.6-0.6-0.8-0.6c-0.1,0-0.1,0-0.1,0l-1-0.2c-0.2,0-0.5-0.1-0.7-0.1c-0.2,0-0.5,0-0.7,0.1l-0.2,0.1
			c-0.1,0.1-0.5,0.3-0.4,0.8c0.1,0.4,0,0.8-0.1,1.3c-0.2,0.4-0.2,0.7-0.3,1.1c0,0.2-0.1,0.5-0.2,0.8l0,0.1c-0.2,0.5-0.2,1,0,1.6
			c0,0.2,0.1,0.3,0.1,0.4c0,0.1,0.1,0.2,0,0.2c-0.1,0.4-0.1,0.8,0,1.1l0,1.1c-0.2,0.2-0.3,0.3-0.5,0.5c-0.1,0.1-0.2,0.2-0.2,0.2
			l-0.2,0.2c-0.1,0-0.2,0.1-0.3,0.2c0,0-0.1,0.1-0.1,0.2c-0.4,0.3-0.9,0.7-1,1.3c-0.3,0.5-0.7,0.8-1.2,1.1l-0.2,0.1
			c-0.3,0.2-0.8,0.4-1,0.9c-0.2,0.4-0.1,0.8-0.1,1c0,0,0,0,0,0c0,0.1-0.1,0.2-0.1,0.3c-0.1,0.3-0.1,0.6-0.3,0.8
			c-0.2,0.1-0.3,0.1-0.4,0.2c-0.1,0-0.1,0.1-0.1,0.1c-0.1,0-0.1,0-0.2,0c0,0-0.4,0-0.5,0c-0.2,0-0.5,0-0.8,0.2c-0.1,0-0.1,0-0.2,0
			c0,0-0.1,0-0.1,0c-0.1-0.1-0.3-0.2-0.4-0.2l-0.3,0.1l-0.3,0.4c0,0.1,0,0.3-0.1,0.4h0l-0.3,0c-0.3,0.1-0.5,0.3-0.6,0.5
			c-0.1,0.1-0.2,0.2-0.2,0.2c0,0,0,0,0,0l-0.1,0c-0.2-0.2-0.4-0.2-0.5-0.2c-0.3,0-0.5,0.2-0.6,0.3c-0.1,0.1-0.3,0.5-0.1,0.9
			c-0.1,0.1-0.1,0.3-0.1,0.5c-0.2,0.5-0.1,1-0.1,1.4c0,0.3,0.1,0.6,0,0.9c-0.2,0.2-0.2,0.4-0.2,0.6c0,0,0,0.1,0,0.1l-0.2,0.1
			c-0.8,0-1.4,0.3-1.9,0.8c-0.4,0.4-0.5,0.9-0.5,1.4c0,0.4-0.1,0.7-0.3,1.1l-0.3,0.3c-0.4,0-0.7,0.2-1,0.4c-0.3,0.3-0.4,0.7-0.3,1.2
			c0,0,0,0,0,0l-0.2,0.1c-0.3,0.1-0.5,0.2-0.6,0.4c-0.2,0.1-0.3,0.3-0.5,0.4c-0.2,0.2-0.3,0.3-0.5,0.4l-0.1,0c0,0-0.1,0-0.2,0
			c-0.1,0-0.3-0.1-0.5-0.1c-0.2,0-0.3,0-0.5,0.1l-0.1,0.1c0,0,0.1,0,0.1,0l-0.4,0.3c-0.2,0.4-0.4,0.8-0.7,1.3
			c-0.1,0-0.1-0.1-0.2-0.1l0,0l-0.1-0.2c-0.3-0.4-0.7-0.6-1.1-0.6c-0.4,0-0.7,0.2-1,0.3c-0.1,0-0.2,0.1-0.2,0.1l-0.1,0.1l-0.4,0.3
			c0,0-0.1,0-0.1,0.1c-0.2,0.1-0.6,0.2-0.8,0.6l-0.1,0.1c-0.2,0.1-0.4,0.3-0.5,0.5c0,0,0,0,0,0h-0.1c-0.2,0-0.5,0-0.8,0.2
			c-0.5,0.2-0.7,0.7-0.7,1c-0.2,0.2-0.3,0.4-0.4,0.7l0,0.4c0,0.1,0,0.2,0,0.4c0.1,0.5,0.1,0.8-0.1,1.1l-0.1,0.2
			c-0.1,0.6,0.3,1,0.5,1.2c0.1,0.1,0.2,0.2,0.2,0.2l0.2,0.4c0.3,0.2,0.5,0.2,0.8,0.2c0.5,0,1-0.3,1.3-0.6l0.1,0h0.1
			c0.1,0,0.5,0,0.8-0.3l0.6-0.2c0.3-0.2,0.4-0.5,0.5-0.7l0-0.1l0-0.1c0,0,0,0.1,0,0.1l0-0.1l0-0.1c0,0,0,0,0,0l0-0.1
			c0.1-0.8,0.1-1,0.5-1.1c0.3,0.3,0.6,0.5,1,0.6l0.1,0.1l0.2,0.1c0.2,0.1,0.5,0.1,0.6,0.1c0.1,0,0.3,0,0.3,0
			c0.4,0.3,0.8,0.4,1.2,0.5c0.2,0,0.3,0.1,0.5,0.1c0.2,0.3,0.4,0.5,0.5,0.8c0.1,0.2,0.1,0.4,0.1,0.6c0,0.4,0.1,0.9,0.4,1.4
			c0.1,0.3,0.2,0.5,0.5,0.7c0.1,0.2,0.3,0.2,0.4,0.2c0.2,0.6,0.7,0.7,0.9,0.7c0.2,0,0.4-0.1,0.6-0.2c0.4-0.2,0.4-0.6,0.4-0.9
			c0.1-0.1,0.2-0.3,0.4-0.4c0.2-0.3,0.3-0.4,0.4-0.4c0,0,0.1,0,0.2,0l0.1,0c0.8,0,1-0.7,1-1c0.6-0.2,0.9-0.7,0.9-1.3
			c0-0.1,0-0.2,0-0.2c-0.1-0.6-0.4-1.2-0.8-1.5c0.1-0.1,0.1-0.3,0.1-0.4c0.2-0.2,0.4-0.5,0.6-0.7c0,0,0,0,0,0l0,0l0.2,0.2
			c0.1,0.1,0.2,0.1,0.3,0.1c0.3,0,0.5-0.2,0.6-0.3l0.2-0.2c0.2-0.1,0.3-0.3,0.4-0.5l0-0.1c0.2-0.3,0.3-0.6,0.4-0.9
			c0,0,0.1-0.1,0.1-0.1c0,0,0.1-0.1,0.1-0.1l0.4,0.1c0.5-0.1,0.7-0.5,0.8-0.7c0.1-0.1,0.1-0.2,0.2-0.2c0.1-0.1,0.2-0.2,0.3-0.4
			c0,0,0.1-0.1,0.1-0.1c0.1,0.1,0.3,0.2,0.6,0.3c0.1,0.1,0.2,0.3,0.5,0.3c0.2,0,0.3,0,0.5-0.2c0.4-0.3,0.6-0.7,0.7-1.2
			c0.2-0.3,0.2-0.6,0-1l0-0.1c-0.1-0.3,0-0.3,0-0.3c0.2-0.1,0.6-0.3,0.6-0.8c0-0.2,0-0.3,0.4-0.5c0,0,0,0,0,0
			c0.1,0.2,0.2,0.5,0.5,0.6c0.1,0.1,0.3,0.1,0.4,0.1c0.4,0,0.6-0.3,0.7-0.5c0,0,0.1,0,0.1,0c0.1,0,0.2,0.1,0.4,0.1
			c0.1,0,0.2,0,0.3-0.1l0-0.5l0.1,0.5c0.1,0,0.1,0,0.2,0c0.1,0,0.3,0,0.4-0.1l0.6,0.1c0.2,0.1,0.4,0.1,0.5,0.1
			c0.2,0,0.5-0.1,0.7-0.3c0,0,0,0,0,0c0.8,0,1.3-0.4,1.6-1.1c0.2-0.1,0.4-0.1,0.7-0.1c0.2,0,0.3,0,0.5,0c0.8,0.1,1.6,0.2,2.3,0.4
			c0.1,0.4,0.5,0.6,0.7,0.8c0,0,0,0,0,0c0.2,0.5,0.7,0.5,0.9,0.5c0,0,0.1,0,0.1,0l0.4-0.1c0.3-0.2,0.6-0.6,0.7-0.9
			c0.4,0.9,1.2,1.2,1.9,1.4c0.2,0.1,0.3,0.1,0.6,0.2c0.1,0.1,0.3,0.2,0.5,0.2c0.2,0,0.5,0,0.7-0.4c0.1,0,0.2,0,0.2,0
			c0.2,0,0.3,0,0.4-0.1c0,0,0,0,0.1,0c0.3,0.3,0.6,0.4,0.9,0.5c0.1,0,0.1,0,0.2,0c0.3,0.3,0.5,0.6,0.5,1c0,0.2,0,0.7,0.4,0.9
			c0.4,0.5,0.9,0.7,1.3,0.8l0.1,0c0.1,0.1,0.3,0.2,0.5,0.2c0.2,0,0.4,0,0.6-0.3c0,0,0.1,0.1,0.1,0.2c0.2,0.2,0.5,0.6,0.9,0.6
			c0.3,0,0.6-0.1,0.9-0.4l0.1-0.1c0,0,0.1-0.1,0.1-0.1c0.1,0,0.2,0.1,0.3,0.1c0.1,0,0.3,0,0.4-0.1l0.1,0c0.3-0.2,0.5-0.5,0.4-0.8
			c-0.2-1.3,0.1-2.1,1-2.7c0.2-0.1,0.4-0.3,0.5-0.5l0.1-0.1c0,0,0.1,0,0.2,0c0.2,0,0.5-0.1,0.8-0.3l0.1-0.1c0.3-0.2,0.4-0.6,0.4-0.8
			c0,0,0-0.1,0-0.1l0.1-0.2l0-0.2c0.1-0.2,0.2-0.3,0.2-0.5c0.1-0.1,0.1-0.2,0.2-0.3l0.1-0.4v-0.3l-0.1-0.3c-0.3-0.3-0.6-0.4-0.9-0.5
			c-0.2,0-0.2-0.1-0.2-0.1c0-0.2,0-0.3,0.1-0.3c0.3-0.1,0.5-0.2,0.6-0.4c0.3-0.1,0.5-0.3,0.5-0.6c0.1-0.3,0-0.5-0.3-0.8
			c0-0.1-0.1-0.2-0.1-0.3l0-0.2c-0.1-0.4,0-0.7,0.2-1.2c0.1-0.2,0.2-0.5,0.3-0.8l0-0.1c0,0,0.1-0.1,0.1-0.1c0.1-0.1,0.2-0.2,0.2-0.3
			c0.3-0.4,0.5-0.8,0.7-1.2l0-0.1c0.2,0.1,0.4,0.2,0.7,0.2c0.2,0,0.5-0.1,0.7-0.2c0.3-0.1,0.5-0.3,0.6-0.5c1.2,0,1.5-0.6,1.9-1.8
			c0.3-0.3,0.7-0.3,1.3-0.3l0.3,0c0.1,0,0.3,0,0.4,0c0.2,0,0.4,0,0.6,0c0.7,0,1.2-0.3,1.5-0.8c0,0,1,0,1,0c0.1,0,0.2,0,0.4,0
			c0.8,0,1.4-0.3,1.8-0.9c0.1-0.1,0.3-0.1,0.6-0.1c0,0,0.2,0,0.3,0c0.4,0.2,0.8,0.3,1.2,0.3c0.2,0,0.4,0,0.6,0.1l0.1,0
			c0.2,0.2,0.4,0.3,0.6,0.3l0.8,0.4c0.1,0.1,0.2,0.3,0.5,0.4c0.2,0.2,0.4,0.2,0.5,0.3l0.1,0l1.3,0.8c0.1,0.2,0.4,0.3,0.5,0.4
			l0.2,0.2c0.1,0.2,0.3,0.3,0.5,0.4c0.7,0.8,1.4,1.6,2.3,2.2l0.1,0.2c-0.3,0.6-0.2,1.2,0.2,1.7l0,0l0,0l0.1,0.1
			c0.1,0.1,0.3,0.1,0.4,0.1c0.3,0,0.5-0.2,0.6-0.5l0.6-1.1c0.2-0.3,0.3-0.6,0.2-0.9c-0.1-0.4-0.5-0.7-0.7-0.8c0,0-0.1,0-0.1,0
			c0.1-0.7,0.3-0.9,1.2-0.9c0.1,0,0.2,0,0.3,0c0,0,0.1,0,0.1,0c0.4,0.2,0.8,0.2,1.1,0.3c0.1,0,0.3,0,0.3,0c0,0,0.1,0,0.1,0.1
			c0.2,0.1,0.4,0.2,0.7,0.2c0.2,0,0.3,0,0.4-0.1c0.1,0,0.3,0,0.4,0c0.8,0,1.5,0.3,2.2,0.6l0.1,0c0.2,0.1,0.4,0.2,0.6,0.3
			c0.2,0.1,0.4,0.2,0.6,0.3c0.2,0.2,0.5,0.4,0.8,0.4c0.4,0,0.7-0.3,0.9-0.5c0,0,0.1-0.1,0.1-0.1c0,0,0.1,0,0.1,0
			c0.2,0,0.3,0.1,0.5,0.1c0.2,0,0.4,0,0.6-0.2c0.5-0.3,0.5-0.8,0.5-1.2v-0.2c0.2-0.1,0.5-0.4,0.6-0.9c0-0.5-0.3-0.7-0.5-0.8
			c0.1-0.2,0.1-0.5,0.2-0.6c0-0.1,0-0.2,0.1-0.3c0.2-0.2,0.3-0.3,0.6-0.4c0.3,0,0.7-0.1,1-0.4c0.1,0,0.1,0,0.2,0
			c0.1,0,0.3,0,0.4,0.1c0.2,0,0.4,0.1,0.6,0.1c0.2,0.1,0.5,0.2,0.8,0.2c0.3,0,0.6-0.1,0.9-0.3l0.2-0.3c0-0.2,0.1-0.3,0.3-0.3
			c0.1,0,0.3,0,0.4,0c0.6,0.1,1.2,0.3,1.8,0.4c0.3,0.1,0.5,0.2,0.7,0.2c0.1,0,0.2,0.1,0.4,0.1c0,0,0,0,0,0c0,0.1-0.1,0.1-0.1,0.2
			c-0.1,0.1-0.3,0.2-0.5,0.4l-0.1,0.2c-0.3,0.2-0.4,0.4-0.4,0.7c0,0.3,0.2,0.5,0.4,0.6l0.3,0.1l0.6-0.1c0.1,0,0.2,0,0.4,0
			c0.3,0,0.5-0.1,0.7-0.1c0.1,0,0.2-0.1,0.3-0.1l0.1,0.1c0.1,0.1,0.3,0.3,0.5,0.4c0.2,0.2,0.4,0.3,0.6,0.3c0.1,0.1,0.3,0.2,0.4,0.2
			c0.1,0,0.1,0,0.2,0.1l0.1,0.1l0.3,0.3c0.5,0.6,1.1,1.2,1.8,1.6l0.2,0.1c0.2,0.1,0.5,0.2,0.7,0.2c0.5,0,0.9-0.2,1.2-0.4l0.1-0.1
			l0.1,0c0,0,0.1,0,0.2,0c0.2,0,0.6,0,0.9-0.4c0.3-0.3,0.3-0.6,0.3-0.8c0.1-0.1,0.1-0.3,0.1-0.4c0,0,0,0,0,0.1l0.1-0.4
			c0-0.2,0-0.5,0.3-0.7l0.2,0c0.2,0,0.5,0,0.8-0.3l0.6-0.4c0.3-0.3,0.5-0.6,0.5-0.9c0-0.5-0.3-0.8-0.5-1c-0.1-0.1-0.2-0.2-0.3-0.3
			l-0.1-0.2c-0.2-0.4-0.6-0.5-0.9-0.6c-0.1-0.1-0.3-0.2-0.4-0.2h0l-0.2-0.1l-0.1,0c-0.4,0-0.8-0.2-1.2-0.5c-0.5-0.3-1-0.6-1.7-0.6
			c-0.1,0-0.2,0-0.3,0c0,0-0.1,0-0.1,0c0.1-0.1,0.2-0.2,0.2-0.4c0.1-0.2,0.1-0.4,0.1-0.7c0.2,0.1,0.4,0.2,0.6,0.4
			c0.5,0.3,1,0.6,1.4,0.9c0.3,0.3,0.8,0.5,1.3,0.5c0.1,0,0.2,0,0.4,0c0.1,0,0.2-0.1,0.3-0.1c0.2,0.2,0.4,0.3,0.7,0.3
			c0.2,0,0.5-0.1,0.7-0.3c0.1,0,0.2-0.1,0.3-0.1c0,0,0,0,0,0c0.5,0,1,0.1,1.5,0.2l0.3,0.1c0.1,0,0.2,0,0.3,0c0.2,0,0.3,0,0.4-0.1
			c0.1,0.2,0.4,0.4,0.9,0.5c0.2,0.2,0.5,0.2,0.6,0.2c0.2,0.4,0.6,0.8,1.2,1l0.1,0l0,0c0.2,0.1,0.4,0.1,0.5,0.1c0.6,0,0.9-0.5,1-0.8
			l0.1-0.2c0.2-0.3,0.3-0.6,0.6-0.9l0.2,0c0.1,0,0.2,0,0.3,0c0.4,0,0.9,0,1.3-0.3c0.3-0.1,0.6-0.2,0.8-0.2c0.4-0.1,0.8-0.3,1.2-0.3
			h0.3c0.3,0,0.7,0,1-0.2l1.9,0c0.2,0,0.4-0.1,0.7-0.1c0.6,0,1.2-0.1,1.8-0.5h0.1c0.2,0,0.5,0,0.7-0.2l0.2,0c0,0,0.1,0,0.2,0
			c0.1,0,0.1,0,0.2,0.1c0.4,0.2,0.9,0.3,1.4,0.3c0.2,0,0.5,0,0.7-0.1l1,0.1c0.3,0.3,0.6,0.3,0.8,0.3c0,0,0.1,0,0.1,0
			c0.2,0.2,0.5,0.3,0.7,0.3l0.1,0c0.2,0.2,0.5,0.5,1,0.5c0.2,0,0.4-0.1,0.6-0.1c0.1,0,0.2,0.1,0.4,0.1c0.2,0,0.5,0.2,0.7,0.4
			c0.4,0.3,0.8,0.6,1.4,0.6h0.1c0.2,0.1,0.4,0.2,0.5,0.2l0,0c0.2,0.2,0.4,0.3,0.5,0.3c0,0,0.1,0,0.1,0c0.2,0.2,0.4,0.2,0.7,0.2
			c0.1,0,0.2,0,0.3,0l0.8-0.2c0.5-0.2,0.8-0.6,1.1-1c0-0.1,0.1-0.1,0.1-0.2l0.1-0.1c0.5-0.3,0.8-0.7,1.1-1c0.4-0.5,0.7-0.8,1.2-1
			l0.4,0c0.1,0,0.2,0,0.3,0c0.4,0,0.7-0.2,0.8-0.3c0.5-0.2,1-0.3,1.6-0.5c0.4-0.1,0.7-0.1,1.1-0.2c0.8,0,1.6-0.4,2.3-1l0.2-0.2
			c0.5-0.5,1-1,1.6-1.5c0.2,0.1,0.4,0.1,0.6,0.1c0.1,0,0.2,0,0.3,0c0,0,0.1,0,0.2,0c0.6,0.2,1.5,0.5,2.3,0.6c0.2,0,0.4,0.1,0.5,0.1
			c0.5,0,0.8-0.1,1-0.4c0.2-0.3,0.2-0.6,0.1-1.1c-0.3-1,0-1.9,0.3-2.9l0-0.1c0.8-0.6,1.8-1.2,2.8-1.5h0.2c0.2,0,0.3,0.1,0.5,0.1
			c0.3,0,0.6-0.1,0.8-0.3l0.1-0.1c0.2-0.1,0.4-0.2,0.6-0.4c0.2-0.1,0.4-0.2,0.6-0.4l0.8-0.2l0.2-0.1c0,0,0.1,0,0.1,0
			c0.2,0,0.4,0,0.6-0.2l0.1-0.3c1.2-0.2,2-0.8,2.1-1.8l0-0.1c0.1-0.8,0.3-1.8-0.1-2.7l0-0.4l-0.1-0.3c0,0,0,0.1,0.1,0.1c0,0,0,0,0,0
			c0-0.1,0-0.4-0.1-0.7v-0.3c0-0.3,0-0.7-0.2-1.1c0-0.1,0-0.1-0.1-0.1c0,0,0,0,0.1-0.1h0.2l0.1,0c0.5,0,0.7-0.5,0.7-0.6l0-0.1
			c0.3-0.6,0.6-1.4,0.1-2.3c-0.1-0.4-0.4-0.7-0.8-0.7c-0.1,0-0.3,0-0.5,0.1l-1.5,0.2l-0.2,0c-0.1,0-0.2,0-0.4,0.1l-1,0.1
			c-0.1,0-0.2-0.1-0.3-0.1c-0.1,0-0.3,0-0.4,0.1c-0.3-0.1-0.6-0.1-0.9-0.1c-0.3,0-0.6,0-0.9,0.1c-0.1,0-0.2,0-0.3,0.1
			c-0.2,0.1-0.5,0.1-0.7,0.1c-0.1,0-0.1,0-0.2,0l-0.4,0.1c0,0,0,0-0.1,0c0,0-0.3,0-0.3,0c-0.1,0-0.2,0-0.4,0.1h-0.1
			c-0.8,0-1.4,0.4-1.8,0.8c0,0-0.1,0-0.1,0c-0.1,0-0.2,0-0.2,0c0.1-0.1,0.2-0.2,0.2-0.4c0.1-0.3,0-0.7-0.3-1l-0.1-0.1l-0.4-0.3
			c-0.1-0.2-0.4-0.3-0.6-0.4c-0.2-0.2-0.4-0.3-0.6-0.3h0c-0.1,0-0.3-0.1-0.5-0.2c-0.1-0.1-0.2-0.1-0.3-0.2c-0.1-0.1-0.2-0.2-0.4-0.2
			l-0.1,0c0,0-0.1-0.1-0.1-0.1c-0.1,0-0.1-0.1-0.2-0.1c-0.4-0.3-0.9-0.4-1.5-0.4h0c-0.2-0.6-0.7-1-1.3-1.1l-0.2,0
			c-0.1,0-0.1,0-0.3,0l-0.2-0.1l-0.9,0c0,0,0,0-0.1,0c0.2-0.1,0.5-0.3,0.7-0.6l0.1-0.3c0-0.1,0-0.1,0-0.2c0.1,0,0.2,0.1,0.3,0.1
			c0.2,0.1,0.4,0.1,0.5,0.1l0.3,0l0.2,0v0c0.6,0.3,1,0.5,1.4,0.5c0.5,0,0.7-0.3,1-0.6l0.1-0.1c0.4-0.2,1-0.5,1.2-1.1l0.6-0.3
			c0.7-0.3,1.1-0.8,1.5-1.5l0.1-0.2l0-0.2c0-0.4-0.1-0.7-0.3-0.8c0.1-0.3,0.1-0.6,0-0.9c0-0.2,0-0.2,0.1-0.3
			c0.2-0.3,0.2-0.5,0.2-0.8c0-0.2-0.1-0.3-0.3-0.5c0,0,0-0.1,0-0.1l0-0.2c0.1-0.5,0.3-1.2-0.2-1.8l-0.1-0.1l0,0l0,0l0,0l0,0
			c-0.1,0-0.2-0.1-0.3-0.1h0.1c0.4,0,1,0,1.4-0.5c0,0,0,0,0,0c0.3,0.5,0.6,0.8,1.3,0.8c0.3,0,0.6,0,1-0.2l0.5,0l0.1,0
			c0,0,0.1,0,0.1,0c0.2,0,0.6-0.1,0.8-0.5l0.2-0.1c0,0,0.1,0,0.1,0c0.1,0,0.4-0.1,0.6-0.4l0.2-0.1l0.1,0c0.2-0.1,0.6-0.2,0.7-0.6
			l0.6-0.7l0.1-0.1c0.4-0.3,0.8-0.6,0.9-1.2c0.2-0.7-0.2-1.1-0.5-1.3c0,0-0.1-0.1-0.1-0.1c-0.2-0.2-0.1-0.5,0-1l0.2-0.1
			c0.2,0.1,0.3,0.2,0.5,0.2c0.3,0,0.6-0.2,0.9-0.6c0.1-0.1,0.2-0.3,0.2-0.4c0,0,0,0,0-0.1c0.3-0.1,0.5-0.3,0.6-0.6
			c0.1-0.1,0.2-0.3,0.3-0.4c0,0,0.1-0.1,0.1-0.1c0.8-0.2,1-0.9,1.1-1.3c0-0.2,0.1-0.3,0.1-0.4l0.2-0.4c0.3-0.1,0.5-0.3,0.7-0.5
			c0.1-0.1,0.2-0.2,0.2-0.2l1.1-0.5c1-0.2,1-1,1.1-1.4c0-0.1,0-0.2,0-0.3l0-0.3c0.1-0.4,0.2-0.7,0.2-1.1l0.1-0.6v-0.2
			c0-0.1,0-0.1,0.1-0.3c0-0.1,0.1-0.2,0.1-0.3c0.1-0.5,0.3-1,0.2-1.6V340c0.2-1.3,0.7-2.5,1.2-3.5l0-0.1c0.5-0.3,0.5-0.7,0.5-1v0
			c0.2-0.3,0.3-0.6,0.5-0.9l0.1-0.2l0-0.1c0-0.1,0-0.2,0.1-0.4c0.1-0.3,0.2-0.6,0.1-1l0-0.1c0,0,0-0.1,0.1-0.2
			c0-0.1,0.1-0.2,0.1-0.3c0.2-0.3,0.3-0.6,0.4-0.9C255.8,330.6,256,329.9,255.7,329.2z"/>
		<path class="st3" d="M50.8,112c-0.1-0.1-0.2-0.2-0.3-0.3c-0.1-0.1-0.2-0.1-0.4-0.1c-0.1,0-0.2,0-0.3,0c-0.5,0-0.9,0.2-1.3,0.6
			c-0.4,0.5-0.4,1.1,0.2,1.6c0.2,0.1,0.3,0.2,0.5,0.3c0.2,0.1,0.3,0.2,0.5,0.4l0.1,0.1c0.1,0.1,0.1,0.3,0.2,0.4l0,0.1
			c0.1,0.3,0.3,0.5,0.5,0.6c0.1,0.1,0.2,0.2,0.3,0.3c0.2,0.2,0.4,0.4,0.6,0.6c0.2,0.1,0.3,0.2,0.5,0.3l0,0l0.1,0.1l0,0.1
			c0.1,0.2,0.2,0.6,0.7,0.6c0.1,0,0.3,0,0.5-0.1c0.6-0.2,0.9-0.7,1.1-1l0.1-0.1c0.3-0.2,0.5-0.4,0.8-0.6l0.1-0.1
			c0.1-0.1,0.3-0.2,0.5-0.6c0-0.1,0.1-0.3,0.1-0.4c0,0,0.1-0.1,0.1-0.1c0.1-0.1,0.2-0.2,0.3-0.3c0.1,0,0.2,0,0.3,0
			c0.2,0,0.4-0.1,0.7-0.3l0.2-0.2c0.1-0.1,0.1-0.2,0.2-0.3c0,0,0,0,0.1,0c0.1,0,0.1,0,0.2,0c0.2,0,0.4-0.1,0.7-0.2
			c0.2-0.1,0.3-0.3,0.4-0.5l0-0.1c0-0.2,0-0.3,0-0.5c0.1,0.1,0.2,0.1,0.4,0.2c0.2,0,0.3,0.1,0.5,0.1c0.2,0,0.4,0,0.6-0.1l0.1,0
			l0.1,0c0.2-0.1,0.7-0.3,0.7-0.9c0-0.4-0.1-0.6-0.2-0.7c-0.1-0.2-0.3-0.4-0.4-0.5c0,0,0,0,0,0c0-0.1,0-0.2,0-0.3
			c0-0.2,0-0.3-0.1-0.4c0.1,0,0.2,0,0.3,0c0.2,0,0.4,0,0.5-0.1c0,0,0,0,0,0c0.2,0.1,0.3,0.1,0.5,0.1c0.1,0,0.2,0,0.4,0
			c0.2,0,0.4-0.1,0.5-0.2c0.1-0.1,0.2-0.1,0.3-0.2c0.1-0.1,0.2-0.1,0.3-0.1c0.1-0.1,0.3-0.2,0.5-0.4l0.1-0.1c0.1,0,0.1,0,0.2,0
			c0.3,0,0.5-0.2,0.7-0.3l0-0.1c0.8-0.7,0.7-1.6,0.6-2.2c0.2,0,0.4,0.1,0.6,0.1c0.3,0,0.6-0.1,0.9-0.3l0.1-0.1
			c0-0.1,0.1-0.2,0.2-0.3c0.3-0.5,0.6-1.1,0.4-1.9l-0.1-0.2c-0.1-0.1-0.1-0.2-0.1-0.2l0-0.1c0-0.1,0-0.3,0-0.4c0-0.3,0-0.5-0.1-0.8
			c-0.1-0.3-0.2-0.4-0.4-0.6l0-0.1l-0.1-0.2c-0.1-0.1-0.1-0.2-0.2-0.3c0.1,0,0.2-0.1,0.3-0.2l0.1-0.1c0.2-0.1,0.3-0.3,0.4-0.5
			l-0.1-0.4c0,0,0-0.1,0.1-0.2c0.1-0.2,0.2-0.4,0.1-0.6c0-0.1,0-0.2,0-0.4c0-0.1,0-0.2-0.1-0.3c0.2,0,0.4-0.2,0.7-0.3
			c0.1,0,0.1-0.1,0.1-0.1l0,0.1c0.1,0.1,0.2,0.2,0.4,0.4c0.4,0.2,0.8,0.4,1.1,0.4c0.6,0,1-0.5,1.4-1l0.2-0.1c1-0.3,1.2-1.2,1.3-1.9
			l0-0.1c0-0.1,0-0.2,0.1-0.2c0.1-0.3,0.3-0.8-0.1-1.4c-0.2-0.2-0.5-0.4-0.8-0.4c-0.2,0-0.4,0.1-0.6,0.2l-0.2,0.1
			c-0.1,0.1-0.2,0.1-0.3,0.2c-0.2,0.1-0.5,0.3-0.6,0.5c-0.1,0.1-0.2,0.2-0.3,0.4c-0.1,0.1-0.1,0.2-0.1,0.2c0,0,0,0,0,0
			c-0.3,0.1-0.5,0.2-0.7,0.4c-0.1,0.1-0.2,0.2-0.3,0.2c0,0-0.1,0-0.1-0.1c0.1-0.1,0.2-0.2,0.2-0.4c0-0.2,0-0.3,0-0.4
			c0,0,0-0.1,0-0.1c0,0,0,0,0,0c0.5-0.1,0.8-0.5,0.9-0.8c0.1-0.3,0.1-0.5,0.3-0.6l0.1,0l0.1,0c0.2-0.1,0.3-0.2,0.4-0.4l0-0.1
			c0-0.2,0.2-0.4,0.4-0.6c0.1-0.1,0.3-0.3,0.3-0.4c0.1-0.1,0.2-0.1,0.3-0.2c0.2-0.1,0.5-0.3,0.6-0.6l0.1-0.3
			c-0.1-0.7-0.6-0.8-0.8-0.8c0,0-0.1,0-0.1,0c-0.1,0-0.2-0.1-0.2-0.1c0,0,0,0,0,0c0-0.1,0-0.2,0.2-0.7c0.3-0.2,0.5-0.6,0.6-0.8
			l0.1-0.1c0.1-0.2,0.2-0.3,0.2-0.5c0.1-0.3,0.1-0.6,0-0.9c0-0.1-0.1-0.2-0.1-0.3c0-0.1-0.1-0.1-0.1-0.2c0-0.1-0.1-0.2-0.1-0.3
			c0.3-0.7,0.1-1.2-0.4-1.5c-0.1-0.1-0.2-0.3-0.3-0.5c-0.1-0.3-0.3-0.6-0.7-0.9l-0.3-0.1l0.1,0l-0.1-0.1c-0.2-0.1-0.5-0.3-0.8-0.3
			c-0.2,0-0.5,0.1-0.6,0.2l0,0l0,0l0,0l0,0l0,0c-0.4,0.3-0.5,0.7-0.5,1.1c-0.1,0.1-0.3,0.2-0.6,0.2l-0.3,0.1
			c-0.3,0.2-0.4,0.4-0.5,0.6c-0.1,0.1-0.1,0.2-0.2,0.2c-0.1,0.1-0.2,0.2-0.3,0.2c-0.1,0-0.1,0.1-0.2,0.1c-0.1,0.1-0.2,0.1-0.4,0.2
			c-0.1,0-0.2,0.1-0.3,0.1l-0.1,0.1c-0.3,0.2-0.5,0.5-0.8,0.8c-0.4,0.4-0.8,0.8-1.3,1.1l-0.1,0.1c-0.2,0.2-0.4,0.5-0.6,0.7
			c-0.1,0.2-0.2,0.3-0.2,0.6c0,0-0.2,0.1-0.2,0.1c-0.1,0-0.3,0.1-0.4,0.1c-0.4,0.1-0.6,0.4-0.7,0.6c0,0,0,0,0,0l-0.8,0l-0.2,0.1
			c-0.2,0.1-0.4,0.2-0.5,0.4c0,0-0.1,0.1-0.3,0.1C58.6,90,58.3,90,58,90.3c-0.1,0.1-0.1,0.2-0.2,0.3c0,0.1-0.1,0.2-0.1,0.2
			c0,0,0,0,0,0c-0.1,0.1-0.2,0.1-0.2,0.2c-0.1,0.1-0.2,0.1-0.5,0.1c-0.2,0-0.4,0-0.7,0.1l-0.2,0.2c-0.5,0.8-0.6,1.5-0.6,2.2l-0.1,0
			l-0.6-0.2l-0.4,0C54,93.8,54,94.3,54,94.6l0,0.1c0,0.1,0,0.2,0,0.2c-0.3-0.5-0.7-0.6-1-0.6c-0.2,0-0.3,0-0.5,0.1
			c-0.1,0-0.3-0.1-0.5-0.2c-0.2-0.1-0.4-0.2-0.6-0.2c-0.3,0-0.7,0.1-1,0.7l0,0.3c0,0,0-0.1,0-0.1c0,0,0,0,0,0c0,0-0.1,0.1-0.1,0.2
			c-0.3,0.3-0.4,0.6-0.3,1.1c-0.4,0-0.6,0.2-0.7,0.4l-0.1,0.4c0,0.1,0,0.2-0.1,0.4l0,0.1c0,0.2,0,0.4,0,0.6c0,0-0.1,0.1-0.1,0.2
			c-0.1,0.1-0.1,0.2-0.2,0.4c-0.3,0.4-0.6,0.9-0.4,1.6c0.1,0.4,0.4,0.7,0.8,1l0.1,0c-0.1,0.4,0,0.7,0,0.9c0,0.1,0,0.2,0,0.3l0,0.2
			c0.1,0.2,0.3,0.5,0.7,0.6c0.1,0,0.1,0,0.1,0.3c0,0.1,0,0.1,0.1,0.2c-0.5,0.2-0.7,0.6-0.9,0.9c-0.1,0.1-0.1,0.2-0.2,0.3l-0.1,0.3
			l0,0.6l0.1,0.4c0.1,0.1,0.3,0.2,0.4,0.2c0,0,0,0.1,0,0.1c0,0.1,0.1,0.2,0.2,0.4c0.2,0.3,0.5,0.4,0.7,0.5c0.3,0.2,0.6,0.4,1,0.4
			c0.1,0,0.1,0,0.2,0c0,0,0.4,0,0.4,0c0.1,0,0.3,0,0.4,0.1c0.2,0.1,0.3,0.1,0.6,0.2c0.2,0,0.4,0.1,0.6,0.3c-0.2,0.1-0.4,0.2-0.6,0.3
			c0-0.1-0.1-0.3-0.2-0.5l-0.3-0.3l-0.4-0.2l-0.3,0c-0.2,0-0.3,0.1-0.4,0.2l-0.2,0l-0.4,0.4c-0.1,0.5-0.5,0.7-1.1,0.9l-0.3,0.7
			c0.2,0.3,0.5,1,1.1,1c0.2,0,0.5-0.1,0.7-0.3c0.1,0.1,0.1,0.1,0.2,0.2c0,0.1-0.1,0.1-0.1,0.2C51.3,111.6,51.1,111.8,50.8,112z"/>
		<path class="st3" d="M39.4,123.6c0.1,0,0.2,0.1,0.3,0.1c0.1,0.1,0.3,0.2,0.5,0.2l0.1,0c0,0,0.1,0.1,0.1,0.2
			c0.1,0.1,0.1,0.1,0.2,0.2c0.3,0.5,0.7,0.5,0.9,0.5c0.2,0,0.5-0.1,0.7-0.3c0,0,0,0,0.1,0c0.1,0.1,0.1,0.1,0,0.1
			c-0.2,0.3-0.2,0.7,0,1.1c0.1,0.3,0.3,0.5,0.4,0.6c0.1,0.1,0.1,0.2,0.2,0.4c0,0.2,0,0.3-0.2,0.5c0,0-0.1,0.1-0.1,0.1
			c-0.2,0.2-0.6,0.4-0.5,1.1c0,0.3,0,0.5,0,0.8l0.1,0.3c0.1,0.4,0.2,0.8,0.5,1.2c-0.1,0.1-0.3,0.1-0.4,0.2c-0.1,0.1-0.3,0.2-0.5,0.5
			c-0.2,0.4-0.1,0.9,0.2,1.3l0.3,0.6c-0.1,0.3-0.2,0.8-0.1,1.2c0.1,0.3,0,0.6-0.1,0.9c-0.1,0.1-0.1,0.2-0.2,0.2l0,0.1
			c-0.1,0.2-0.1,0.4-0.1,0.6c0,0.1,0,0.2-0.1,0.3c0,0.2,0,0.3,0,0.5c0,0.1,0,0.1-0.3,0.3l-0.2,0.1l-0.1,0.1
			c-0.2,0.2-0.2,0.5-0.2,0.7c0.1,0.3,0.3,0.5,0.5,0.6c0,0,0.1,0,0.1,0.1c0.2,0.1,0.2,0.2,0.1,0.6c0,0.2-0.1,0.4,0,0.7
			c0,0.4,0.2,0.7,0.5,0.9c0,0.1,0,0.2,0,0.3c0,0.3,0,0.6,0.1,0.9l0,0.3c0,0.4,0.1,0.8,0.3,1.1c0.1,0.3,0.3,0.5,0.5,0.6l0.1,0.1
			c0.2,0.1,0.3,0.2,0.5,0.3c0.2,0,0.4,0.1,0.6,0.1l0.1,0c0,0,0,0.1,0,0.1c0,0.2-0.1,0.3-0.1,0.5c0,1.2,0.7,1.4,1.2,1.4l0.2,0
			c0.3-0.1,0.5-0.2,0.7-0.6c0.1-0.2,0.2-0.4,0.3-0.7c0-0.1,0.1-0.2,0-0.2c0.1-0.1,0.2-0.2,0.4-0.4c0.1-0.1,0.2-0.1,0.3-0.2
			c0.1-0.1,0.2-0.2,0.2-0.3c0.1-0.2,0.2-0.3,0.2-0.5l0.1-0.2c0-0.1,0.1-0.2,0.1-0.4c0-0.4-0.2-0.7-0.4-0.9c-0.2-0.2-0.4-0.4-0.5-0.6
			c0,0,0,0,0,0c0-0.1,0.1-0.1,0.1-0.2c0,0,0-0.1,0-0.1l0-0.1c0.1-0.6,0.1-1.1-0.2-1.6c-0.1-0.1-0.1-0.2-0.2-0.3
			c0-0.1-0.1-0.2-0.1-0.3c0.1,0,0.1-0.1,0.2-0.2l0,0l0,0l0,0l0,0l0,0c0,0,0,0,0,0c0.2-0.3,0.2-0.6,0.3-0.8c0-0.1,0.1-0.3,0.1-0.5
			l0-0.1c0-0.1,0-0.2,0.1-0.3c0-0.1,0.1-0.1,0.1-0.2c0,0,0.1-0.1,0.2-0.1c0.2-0.1,0.4-0.3,0.6-0.6c0.1-0.3,0.5-1.2-0.4-1.7
			c-0.1,0-0.2-0.1-0.3-0.2l0,0c0.3-0.3,0.4-0.7,0.3-1.1l-0.1-0.2c-0.2-0.2-0.4-0.3-0.6-0.4c-0.5-0.2-0.6-0.3-0.6-0.6l0-0.1
			c0,0,0,0,0,0c0.7-0.1,1.1-0.6,1.2-0.8l0.1-0.1c0.1-0.1,0.1-0.2,0.2-0.4c0-0.1,0-0.3,0-0.5c-0.1-0.4-0.2-0.6-0.4-0.8
			c0-0.1,0.1-0.2,0.1-0.2c0,0,0-0.1,0.1-0.1c0.1,0,0.2-0.1,0.2-0.1c0.3-0.1,0.7-0.4,0.9-0.9c0.2-0.4,0.3-0.7,0.4-1.1
			c0.1-0.3,0.2-0.6,0.3-0.9l0.1-0.2c0-0.1,0-0.3,0-0.4c0-0.2,0-0.3,0-0.5c0-0.1,0-0.2,0.1-0.4c0.1-0.1,0.1-0.2,0.2-0.3
			c0.2-0.4,0.3-0.8,0.3-1.2c0-0.1,0-0.2,0-0.3c0.4-0.3,0.6-0.9,0.8-1.3l0-0.1l0-0.3c0.1-0.6-0.3-1-0.5-1.2c-0.1-0.1-0.1-0.1-0.2-0.2
			l-0.1-0.1c-0.2-0.2-0.5-0.4-0.8-0.5c-0.1,0-0.2-0.1-0.4-0.1c-0.2-0.2-0.4-0.3-0.4-0.5c0-0.1,0-0.3,0.2-0.5
			c0.1-0.2,0.4-0.5,0.3-1.1c-0.2-0.4-0.4-0.7-0.8-0.9c-0.2-0.1-0.4-0.1-0.6-0.1c-0.1,0-0.2,0-0.3,0c0.1-0.1,0.1-0.2,0.2-0.3
			c0-0.1,0.1-0.1,0.1-0.2l0.3-0.5c0-0.5-0.4-0.7-0.6-0.8c0,0-0.1,0-0.1-0.1l-0.3-0.1c-0.1,0-0.1,0-0.2,0v0.5c0,0,0,0,0,0l-0.2-0.5
			c-0.2,0-0.6,0-1,0.3c-0.4,0.2-0.7,0.7-0.4,1.5l0.1,0.1l0.1,0.1c0.3,0.4,0.6,0.5,0.8,0.5c0,0,0.1,0,0.1,0c-0.2,0.2-0.3,0.3-0.4,0.5
			c0,0,0,0-0.1-0.1l-0.1-0.1c-0.1-0.1-0.3-0.3-0.6-0.3c-0.1,0-0.3,0-0.5,0.2c-0.7,0.4-0.9,1.1-1.1,1.7c0,0.1,0,0.1-0.1,0.1
			c-0.1,0.1-0.2,0.3-0.2,0.6c0,0-0.1,0-0.1,0c-0.2,0.1-0.5,0.2-0.6,0.5c0,0.1,0,0.1-0.1,0.2c-0.1,0-0.1-0.1-0.2-0.2
			c-0.2-0.2-0.5-0.5-0.9-0.6c-0.2,0-0.3-0.1-0.5-0.1c-0.3,0-0.5,0.1-0.7,0.2l-0.1,0.1c-0.4,0.4-0.6,0.9-0.8,1.3
			c-0.1,0.2-0.1,0.3-0.2,0.5l0,0.1c0,0.1,0,0.1,0,0.2c0,0.1,0,0.2-0.1,0.2c-0.5,0.1-0.7,0.6-0.6,1.2C38.8,123.3,39,123.5,39.4,123.6
			z"/>
		<path class="st3" d="M134.5,67.3l0.2,0.1l0.2,0c0.1,0,0.2,0.1,0.2,0.1c0.1,0,0.2,0.1,0.2,0.1l0,0.1c0,0.2,0,0.4,0.1,0.6
			c0.1,0.2,0.2,0.3,0.3,0.5c0,0.1,0.1,0.1,0.1,0.2c0.1,0.2,0.3,0.4,0.5,0.6c0,0,0,0.1,0,0.2c0,0.1,0,0.3,0.1,0.4
			c0,0.1,0.1,0.2,0.1,0.2c0.1,0.2,0.3,0.3,0.4,0.4c0,0,0.1,0.1,0.2,0.2c0.2,0.4,0.5,0.6,1,0.6l0.1,0c0.6,0,1.2-0.1,1.9-0.1l0.6,0
			c0.1,0,0.2,0,0.3,0c0.2,0,0.6-0.1,0.9-0.5l0.1-0.2l0-0.4c0-0.1,0.1-0.3,0-0.4l0.4-0.2c0.1,0,0.1,0,0.2,0c0.1,0,0.2,0,0.3,0
			l0.5-0.5c0,0.1,0.1,0.2,0.1,0.3c0.2,0.4,0.4,0.7,0.7,0.9c0.2,0.2,0.3,0.3,0.4,0.5c0,0.1,0,0.1,0,0.2c-0.2,0.4-0.2,0.8-0.2,1.2
			l0.1,0.2c0.4,0.6,0.8,1.2,1.5,1.2c0.3,0,0.5-0.1,0.9-0.2c0.3-0.1,0.5-0.3,0.5-0.4c0.1-0.1,0.1-0.4,0-0.7c0-0.3-0.1-0.7-0.3-1
			c-0.1-0.2-0.1-0.3,0.1-0.7c0.1-0.2,0.2-0.4,0.2-0.7c0,0,0-0.1,0.1-0.1c0.2-0.1,0.4-0.2,0.5-0.3c0.3-0.3,0.2-0.8,0.1-1.1l-0.1-0.2
			c0.2-0.2,0.5-0.4,0.4-0.9l-0.2-0.2c0,0,0-0.1,0-0.1c0,0,0-0.1,0-0.1c0.1,0.1,0.2,0.1,0.4,0.2l0.5,0c0.4-0.2,0.5-0.5,0.6-0.8
			c0.3-0.2,0.4-0.5,0.5-0.8l0.4-0.2c0.2,0,0.4-0.2,0.5-0.3c0.1,0.1,0.3,0.1,0.4,0.1c0.2,0,0.6-0.1,0.8-0.7c0-0.1,0.1-0.3,0-0.4
			l0-0.1c-0.1-0.2,0-0.5,0.1-0.7c0.1-0.3,0.1-0.6,0.1-0.8c0-0.1,0-0.1,0-0.2l0-0.1c-0.2-0.8-0.7-0.8-0.9-0.8c-0.2,0-0.4,0.1-0.7,0.2
			c-0.1,0-0.2,0.1-0.3,0.2c-0.1,0-0.1,0.1-0.2,0.1c0-0.2-0.1-0.5-0.3-0.8c0-0.1-0.1-0.1-0.1-0.2c0,0,0,0,0,0l0,0
			c-0.2-0.2-0.4-0.3-0.6-0.3c-0.2,0-0.4,0.1-0.5,0.1c0,0-0.1,0-0.1,0c-0.1,0-0.1,0-0.2,0c-0.3,0-0.5,0.1-0.6,0.2
			c0-0.3-0.1-0.7-0.4-1c0.2,0,0.4,0.1,0.6,0.2c0.2,0.2,0.5,0.2,0.7,0.2c0.4,0,0.7-0.2,0.9-0.6l0.1-0.2c0-0.3-0.1-0.5-0.1-0.7
			c-0.1-0.4-0.1-0.4,0-0.6l0.1-0.3l0.2-0.9l0-0.2c-0.1-0.6-0.4-0.8-0.7-0.8l-0.2,0l-0.4,0.3c0,0-0.1,0.1-0.1,0.1
			c-0.2,0.1-0.6,0.3-0.7,0.8c0,0,0,0,0,0c0,0,0,0-0.1,0c-0.2-0.2-0.4-0.4-0.8-0.4c-0.6,0-0.8,0.6-0.9,0.8c0,0.1-0.1,0.3-0.2,0.4
			c-0.1,0.2-0.2,0.4-0.2,0.5c0,0.1-0.2,0.6,0.1,0.9c0,0,0,0.1,0.1,0.1c-0.1,0.1-0.2,0.2-0.3,0.3c0,0,0,0-0.1-0.1
			c-0.3-0.3-0.7-0.5-1.1-0.5c-0.1,0-0.2,0-0.3,0c0,0,0.1-0.1,0.2-0.1l0.1,0c0.2,0,0.4-0.1,0.5-0.2c0.3-0.3,0.4-0.7,0.4-1.1
			c0-0.5,0-1.4-0.8-1.9c-0.2-0.1-0.3-0.3-0.3-0.6l-0.1-0.2c0.1,0,0.3,0.1,0.4,0.1l0.3-0.1c0,0,0.2-0.1,0.3-0.1
			c0.3-0.1,1.1-0.2,1-1.2c0-0.2-0.1-0.4-0.2-0.6c0-0.1-0.1-0.3-0.1-0.3c0,0,0,0,0.2-0.1l0.3-0.3c0.1-0.2-0.1-0.7-0.3-0.8
			c-0.2-0.3-0.5-0.3-0.7-0.3c-0.2,0-0.4,0.1-0.7,0.2l-0.2,0.1c-0.1,0-0.3,0.1-0.4,0.1c0,0,0-0.1,0-0.3c0-0.3-0.2-0.6-0.7-0.6l-0.1,0
			c0,0,0.1,0,0.1,0l-0.3-0.1l-0.4,0l-0.1,0c0,0,0,0,0,0l0,0.1l-0.5,0.2l-0.5,0.7l-0.1,0.3c-0.2,0.2-0.3,0.4-0.3,0.7
			c0,0.4,0.3,0.7,0.5,0.8l0,0l0.1,0.2c-0.2-0.3-0.5-0.4-0.8-0.6c-0.1-0.1-0.2-0.1-0.3-0.2c-0.1-0.1-0.2-0.1-0.2-0.1
			c-0.2-0.1-0.5-0.2-0.7-0.2c-0.4,0-0.7,0.2-0.9,0.3l-0.8,0.2l-0.8,0.2c-0.6,0.1-0.8,0.6-0.8,0.8l0,0.2c0,0.1-0.1,0.3-0.2,0.4
			c-0.1,0.1-0.2,0.3-0.3,0.5c-0.1,0.2-0.3,0.6-0.2,1l0,0.1c0.1,0.1,0,0.3,0,0.5c0,0.3,0,0.6,0.2,1c-0.2,0.2-0.2,0.5-0.2,0.7
			c0,0.1,0,0.1,0,0.1l-0.1,0.3l0,2.6c0,0.7,0.4,1.2,0.8,1.5c0,0-0.1,0-0.1,0l-0.2,0l-0.1,0l-0.7,0.2l-0.2,0.1l-0.1,0.1
			c-0.6,0.3-0.7,0.8-0.8,1.2c0,0.1,0,0.1,0,0.2c0,0.1-0.1,0.1-0.1,0.2c-0.1,0.2-0.3,0.5-0.4,0.9C134,66.5,133.9,67.1,134.5,67.3z"/>
		<path class="st3" d="M38.7,152.6c0.1,0.2,0.2,0.4,0.3,0.7c0.1,0.3,0.3,0.6,0.6,0.9c0.3,0.2,0.5,0.4,0.8,0.4l0.2,0
			c0.2,0,0.3-0.2,0.5-0.3l0.1-0.2l0.2-0.7l0-0.2c0-0.2-0.1-0.4-0.1-0.5c0,0,0,0,0,0c0.2,0,0.4-0.1,0.5-0.2L42,152
			c0-0.2,0-0.3,0.1-0.4c0.1-0.1,0.2-0.1,0.4-0.1c0.2,0,0.3-0.2,0.4-0.2L43,151c0.2-0.8,0.3-1.1,0.9-1.1c0.2,0,0.4-0.1,0.6-0.3
			c0.3-0.3,0.3-0.8,0.2-1c-0.1-0.4-0.4-0.8-0.8-1.1c-0.2-0.1-0.3-0.1-0.5-0.2c-0.1,0-0.1,0-0.2-0.1c0.1-0.3,0.1-0.5,0-0.8
			c-0.1-0.3-0.3-0.5-0.4-0.6c-0.1-0.1-0.1-0.1-0.2-0.3c-0.2-0.2-0.5-0.5-0.9-0.5c-0.2,0-0.4,0.1-0.5,0.2c-0.6,0.5-0.3,1.1-0.2,1.3
			l0.1,0.1l0,0.1l-0.1,0.1c0,0-0.1,0.1-0.2,0.1l-0.2,0c-0.2,0-0.5,0-0.8,0.1l-0.2,0.1c-0.2,0.1-0.4,0.2-0.5,0.5
			c-0.1,0.2,0,0.4,0.1,0.7l0.1,0.2c0.1,0,0.1,0.1,0.1,0.1c0,0.1-0.1,0.2-0.2,0.2c-0.2,0.1-0.4,0.2-0.6,0.4c-0.1,0.1-0.1,0.2-0.2,0.3
			c-0.4,0.7-0.5,1.3-0.3,1.9C38.3,152,38.5,152.3,38.7,152.6z"/>
		<path class="st3" d="M149.1,50.6c0,0,0,0.1,0,0.1c0,0.2-0.1,0.7,0.3,1.1c0,0,0,0,0,0c-0.1-0.1-0.3-0.2-0.5-0.2
			c-0.1,0-0.4,0.1-0.6,0.4c-0.2,0.3-0.2,0.6-0.1,0.9c0.1,0.3,0.3,0.6,0.5,0.7c0.2,0.1,0.2,0.2,0.2,0.7l0.1,0.3l0.2,0.3
			c0.2,0.1,0.3,0.1,0.5,0.1c0,0,0,0,0,0c0.2,0,0.4,0,0.5-0.1c0.1,0,0.2,0,0.3,0c0,0,0,0,0,0c0.3,0,0.7-0.2,0.8-0.5
			c0.1-0.1,0.2-0.5-0.2-0.8c-0.4-0.5-0.4-1-0.1-1.7c0,0.3,0,0.5,0.1,0.8l0.2,0.2l0,0.1l0,0l0.1-0.1l0.2,0.1l0.2,0l0.4-0.2
			c0.3-0.5,0.6-1,1-1.5l0.3-0.5c0.1,0,0.2,0.1,0.3,0.1c0.1,0,0.1,0,0.2,0l0,0.1l0.6,0.5l0.1,0l0.3-0.1c0.2-0.1,0.3-0.3,0.5-0.4
			c0.1,0.2,0.3,0.3,0.5,0.3l0.3-0.1c0.5-0.3,0.4-0.8,0.3-1l0-0.1c0-0.1,0.1-0.2,0.1-0.3l0.1-0.1c0.2-0.2,0.4-0.4,0.5-0.6
			c0-0.1,0.1-0.1,0.1-0.1c0.1-0.1,0.2-0.2,0.2-0.2c0,0,0.1,0,0.2,0.1c0.2,0.1,0.4,0.2,0.7,0.2l0.2,0c0.2,0,0.7,0,0.9-0.6l0-0.2
			l0-0.1l0-0.2c-0.1-0.1-0.1-0.3-0.2-0.4c-0.1-0.1-0.2-0.2-0.2-0.3c0,0,0-0.1,0-0.1c0-0.2,0.1-0.6-0.3-1l-0.1-0.1
			c-0.2-0.1-0.4-0.2-0.6-0.2c-0.1,0-0.3,0-0.5,0.1c-0.3,0.1-0.5,0.3-0.6,0.5l-0.1,0.1c-0.1,0.1-0.2,0.1-0.3,0.2c0,0-0.1,0-0.1,0
			c-0.1-0.2-0.3-0.4-0.6-0.5c-0.2,0-0.4-0.1-0.6-0.1c-0.2,0-0.4,0-0.7,0.1l-0.1,0.1c0,0-0.1,0-0.2,0c-0.1,0-0.1,0-0.2,0
			c-0.1,0-0.2,0-0.3,0.1c-0.3,0.1-0.5,0.2-0.6,0.5c-0.2,0.3-0.2,0.6-0.2,0.8l0.2,0.6c0,0,0,0,0,0c0,0,0,0,0,0
			c-0.1,0.1-0.1,0.2-0.2,0.2c-0.2,0.2-0.4,0.4-0.6,0.7c-0.3,0.3-0.6,0.7-0.9,1.1c0,0,0,0,0,0c-0.1-0.3-0.3-0.4-0.6-0.5
			c0.2-0.1,0.2-0.2,0.2-0.3c0-0.1,0.1-0.3-0.1-0.5c0-0.4-0.3-0.5-0.5-0.5c-0.1,0-0.2,0-0.4,0.1l-0.1,0c0,0-0.1,0-0.1,0
			c-0.2,0-0.5,0.1-0.7,0.4C149,49.8,148.9,50.2,149.1,50.6z"/>
		<path class="st3" d="M64.5,145.4l-0.2-0.2l-0.5-0.2l-0.2,0l-0.2,0c-0.2-0.1-0.4-0.2-0.6-0.2c-0.2,0-0.4,0-0.7,0.2
			c-0.5,0.1-1,0.3-1.5,0.7c-0.1,0.1-0.2,0.3-0.3,0.4l0,0.2c0,0.2,0,0.5,0.2,0.7l0.1,0.1c0.1,0.1,0.3,0.2,0.4,0.2
			c0.2,0,0.3,0.1,0.5,0.1c0.2,0,0.3,0,0.5,0c0.3-0.1,0.6-0.2,0.8-0.3l0.3,0.1l0.6,0c0.2,0.1,0.3,0.1,0.5,0.1c0.3,0,0.5-0.1,0.7-0.3
			c0.3-0.4,0.3-0.9-0.2-1.3l-0.1,0.1l0.1-0.2C64.6,145.5,64.6,145.4,64.5,145.4z"/>
		<path class="st3" d="M36.6,157.7l0.1,0.1c0.2,0.1,0.4,0.1,0.6,0.1c0.3,0,0.6-0.1,0.8-0.3c0.1-0.1,0.4-0.4,0.3-0.8l0.1-0.7
			c0.1-0.3,0.1-0.5,0.1-0.7c-0.1-0.3-0.3-0.5-0.6-0.6l-0.2,0l-0.5,0.1c-0.2,0.2-0.5,0.4-0.7,0.6c-0.2,0.2-0.3,0.4-0.3,0.7l0.1,0.2
			c0,0,0,0.1,0,0.2C36.2,156.8,36,157.3,36.6,157.7z"/>
		<path class="st3" d="M152,55.8c-0.1,0.1-0.2,0.2-0.2,0.3l-0.2,0.2c0,0.1-0.1,0.1-0.1,0.2c-0.1,0.2-0.4,0.5-0.3,0.9
			c0.1,0.3,0.3,0.5,0.6,0.7l0.2,0.1l0.7,0l0.4-0.2c0.1-0.1,0.2-0.2,0.2-0.3c0,0.1,0.1,0.3,0.2,0.4l0.6,0.2c0.2-0.1,0.3-0.2,0.5-0.3
			c0.1-0.1,0.2-0.2,0.3-0.2c0,0,0,0,0.1,0.1l0.4,0.2c0.3,0,0.5-0.1,0.7-0.3c0.1-0.1,0.2-0.3,0.1-0.7l-0.1-0.3l0-0.5
			c-0.2-0.1-0.3-0.2-0.3-0.8c0-0.1,0-0.2,0-0.3l0-0.1l0,0c-0.1-0.2-0.2-0.4-0.5-0.5c0-0.1,0-0.3,0-0.4l-0.4-0.4l-0.5-0.1
			c0,0,0,0,0-0.1c-0.1-0.2-0.2-0.5-0.6-0.6l-0.1,0c-0.1,0-0.2,0-0.3,0c-0.5,0-1,0.2-1.4,0.7l0.2,0.8c0.3,0.1,0.4,0.3,0.6,0.7
			C152.3,55.4,152.1,55.6,152,55.8z"/>
		<path class="st3" d="M69.9,153.5c0.1,0.4,0.5,0.6,0.7,0.6c0,0,0.1,0,0.1,0l0.1,0c0.3,0.4,0.8,0.4,1,0.4l0.1,0c0.1,0,0.2,0,0.3,0
			l0.2,0c0.6-0.1,0.7-0.5,0.7-0.8c0.1-0.6,0.2-1.2,0.2-1.8c0-0.2,0-0.5,0-0.8c-0.1-1-0.8-1.1-1-1.1c-0.2,0-0.4,0-0.6,0.1l-0.2,0.1
			l-0.4,0.4c-0.2,0.2-0.2,0.4-0.3,0.6C69.6,151.8,69.8,153,69.9,153.5z"/>
		<path class="st3" d="M69.9,146.7c0,0-0.1-0.1-0.1-0.1l-0.2-0.2c-0.6-0.5-1.2-1-2.1-1.1l-0.2,0c-0.2,0-0.3,0.1-0.4,0.2
			c-0.1,0.1-0.2,0.1-0.3,0.1c0,0-0.2,0-0.2,0c-0.3,0.1-0.9,0.2-1.1,0.8l-0.5,0.7c0,0-0.1,0-0.1,0.1c-0.2,0.1-0.7,0.3-0.7,0.9
			c0,0.6,0.5,1,0.8,1.2l0.1,0l0,0c0.1,0.1,0.1,0.3,0.2,0.4c0.2,0.3,0.4,0.5,0.7,0.7c0,0,0.1,0.1,0.1,0.2c0,0.1,0,0.1,0.1,0.2
			c0.1,0.1,0.1,0.2,0.3,0.4c0.1,0,0.1,0.1,0.2,0.2c0.1,0.1,0.3,0.3,0.5,0.4c0.3,0.1,0.5,0.2,0.8,0.2l0.1,0c0.1,0,0.3,0,0.4-0.1
			c0.3-0.1,0.6-0.3,0.8-0.5c0.1-0.1,0.2-0.2,0.3-0.3c0.1-0.1,0.2-0.2,0.4-0.3c0.3-0.3,0.5-0.8,0.5-1.3c0-0.2,0-0.3-0.1-0.4
			c0,0,0-0.1,0-0.2c0.3-0.5,0.2-0.9,0-1.1C70.4,147.3,70.1,146.9,69.9,146.7z"/>
		<g>
			<path class="st3" d="M113.8,255.3c-0.1-1-0.5-1.2-0.9-1.2c-0.2,0-0.5,0.1-0.9,0.3l0,0c-1.1,0.2-2.3,0.5-3,1.7
				c-0.6,0.2-0.8,0.7-0.9,1.1c0,0.1,0,0.1-0.1,0.2c-0.1,0.3-0.2,0.6-0.3,0.8c-0.4,1.2-0.8,2.3-1.8,2.9c-1.3,0.8-1.7,1.9-2,3
				c-0.1,0.4-0.1,0.9-0.1,1.4c0,0.5-0.1,0.8-0.4,1c-0.5,0.4-0.6,0.9-0.6,1.4c0,0.2-0.1,0.5-0.1,0.6l0,0.5c0,0.1,0.1,0.4,0.7,0.6
				l0.2,0l0.4,0l0.3-0.1c0.1-0.1,0.3-0.2,0.4-0.3c0.3-0.2,0.5-0.4,0.7-0.4c0.1,0,0.3,0.1,0.4,0.3l0.5,0.2c0.1,0,0.2,0,0.3,0
				c0.1,0.1,0.1,0.2,0.2,0.2l0.2,0.1l0.2,0c0.1,0,0.3,0,0.4-0.1c0.5-0.2,0.7-0.7,0.8-1.3c0-0.1,0-0.2,0.3-0.3c0.6-0.2,1.1-0.6,1.5-1
				c0.3-0.3,0.6-0.5,0.9-0.7c0.3-0.1,0.5-0.5,0.5-0.8c0-0.1,0-0.2,0.4-0.4c1.2-0.5,1.3-1.4,1.2-2.1c0-0.2,0-0.3,0.2-0.5l0.2-0.3
				c0.5-0.7,1-1.4,1.3-2.3c0.3-0.9-0.1-1.3-0.6-1.5c-0.9-0.4-1-0.5-0.7-1.5C113.8,256.5,113.9,255.9,113.8,255.3z"/>
			<path class="st3" d="M93.3,201.6c-0.4-0.2-0.7-0.3-1.1-0.3c-0.3,0-0.6,0.1-0.8,0.3c-0.2,0.2-0.4,0.4-0.7,0.5
				c-0.8,0.6-1.8,1.3-1.9,2.8l0,1.4c-0.1,0.5,0.1,0.8,0.2,1.1l0.2,0.3c0.4,0.8,0.7,1.4,0.4,2.1c-0.1,0.3-0.2,0.8,0.3,1.5
				c0.2,0.2,0.2,0.5,0.3,0.8c0.4,1.5,2,2.5,3.6,2.5c0.5,0,1.1-0.1,1.5-0.4l0.1-0.1c0.2-0.1,0.3-0.1,0.4-0.1l0.1,0
				c0.8,0,1.3-0.5,1.4-1.4c0.1-1,0-1.9-0.4-2.6c-0.2-0.4-0.2-0.6,0-1l0-0.2l0-0.5l0-0.2l-0.1-0.2c-0.1-0.3-0.3-0.7-0.7-0.9
				c0,0,0,0,0-0.2C96.8,204.7,95.2,202.6,93.3,201.6z"/>
			<path class="st3" d="M59.2,165c-0.2,0.1-0.5,0.1-0.7,0.3c-0.3,0.2-0.4,0.5-0.5,0.7c0,0,0,0.1-0.1,0.1c-0.1,0.1-0.3,0.2-0.4,0.4
				c-0.1,0-0.1,0-0.2,0.1c-0.1,0-0.2,0.1-0.3,0.2c-0.1,0.1-0.3,0.1-0.6,0.1c-0.2,0-0.4,0-0.6,0.1c-0.4,0.1-0.6,0.3-0.8,0.5l-0.1,0.1
				c0,0,0,0-0.1,0c-0.1,0-0.1,0-0.2,0l-0.1,0l-0.8,0c-0.2-0.1-0.3-0.1-0.5-0.1c-0.1,0-0.2,0-0.4,0.1c-0.4,0.2-1,0.6-1.3,1.3
				c-0.1,0.4,0,0.8,0.1,1c0.1,0.1,0.1,0.2,0.1,0.4c0,0.1,0,0.2,0,0.4l0,0.3c0,0.2,0,0.7,0.4,1.1l0.3,0.1c0.4,0,0.8,0.2,1.3,0.5
				l0.3,0.1l0.2,0l0.2-0.1c0.1,0,0.1,0,0.2-0.1c0.2-0.1,0.6-0.2,0.8-0.7c0-0.2,0.1-0.3,0.1-0.5c0-0.2,0-0.4,0-0.5c0.1,0,0.2,0,0.4,0
				l0.2,0l0.1,0c0.5-0.1,1.2-0.5,1.3-1.5l0.1,0c0.2,0,0.3,0,0.5,0c0.4-0.1,0.7-0.2,0.9-0.5c0.2-0.3,0.2-0.6,0.1-1.1
				c0.3-0.1,0.6-0.3,0.9-0.6c0.1,0,0.2,0,0.3,0c0.5,0,1-0.1,1.4-0.4c0.1-0.1,0.2-0.1,0.3-0.2c0.2-0.1,0.5-0.2,0.7-0.4
				c0.1-0.1,0.2-0.2,0.3-0.3c0.1-0.2,0.2-0.3,0.3-0.5c0.1-0.1,0.2-0.1,0.3-0.2c0.3-0.2,0.7-0.4,0.8-0.9l0.4-0.8
				c0-0.1,0.1-0.2,0.1-0.3c0.2-0.6,0.3-1.2,0-1.9l-0.1-0.1c-0.1-0.1-0.4-0.3-0.7-0.3c-0.2,0-0.5,0.1-0.7,0.1l-0.1,0l-0.1,0
				c-0.1,0-0.2,0.1-0.3,0.1c-0.4,0.2-1,0.4-1.2,1c-0.1,0.1-0.2,0.2-0.3,0.3c-0.1,0.1-0.2,0.2-0.3,0.2c-0.2,0.1-0.3,0.2-0.5,0.4
				c-0.1,0.1-0.2,0.2-0.3,0.3l-0.1,0.1c-0.5,0.5-0.8,1-1,1.5C59.4,165,59.3,165,59.2,165z"/>
			<path class="st3" d="M69.3,191.1l0.2-0.3l0.2,0.4c0.5-0.1,0.7-0.5,0.9-0.7l0.1-0.1c0.7-0.9,1-1.9,1.4-2.9
				c0.2-0.6,0.4-1.2,0.6-1.7l0.1-0.2l0-0.3l-0.2-0.4c-0.2-0.2-0.5-0.3-0.7-0.3c-0.5,0-0.8,0.4-1.1,0.7c-0.1,0.1-0.1,0.2-0.2,0.3
				c-1.3,0.4-2.3,2-2.1,3.4c0,0.1,0,0.2,0.2,0.4c-0.1,0.2-0.1,0.3-0.1,0.5C68.6,190.3,68.9,190.7,69.3,191.1z"/>
			<path class="st3" d="M71.6,218.8c-0.1-0.2-0.3-0.2-0.6-0.3c-0.2,0-0.4-0.1-0.6-0.1c-0.1,0-0.2-0.1-0.4-0.1c-0.1,0-0.2,0-0.3,0
				c-0.5,0-0.9,0.3-1.3,0.5c-0.2,0.1-0.3,0.3-0.3,0.6c0,0.2,0.1,0.5,0.3,0.7c0.2,0.2,0.4,0.3,0.7,0.3c0.2,0,0.4-0.1,0.5-0.1
				c0.1,0,0.2-0.1,0.2-0.1c0.1,0,0.2,0,0.3-0.1c0,0,0,0,0,0c-0.1,0.3-0.1,0.7,0.1,0.9c0.1,0.2,0.3,0.3,0.6,0.3c0,0,0.1,0,0.1,0
				c0.7,0,0.8-0.7,0.8-0.9c0-0.1,0-0.1,0-0.2c0-0.1,0-0.3,0.1-0.5l0-0.2c0,0,0-0.1,0-0.1C71.7,219.3,71.8,219,71.6,218.8z"/>
			<g class="st0">
				<path class="st4" d="M55,223c0,0-5.3,3.7-7.8,4.5c-2.5,0.8-3.2,1.5-3.2,1.5s0.5,4.5-1.2,6.8c-1.7,2.3-2.8,4.8-2.8,4.8l-2.3,1.6
					c-1.6,1.1-3.3-0.1-4.5,0.3c-1.2,0.4-2.4,1.6-0.5,2c1.9,0.4,3.6,0,4,0.9c0.4,0.9-0.5,1.7-0.5,1.7s-4.4,2.4-6.1,2.9
					c-1.7,0.5-3.6,2.1-3.6,2.1l2.1,5.6l3.8,2l2.5,2.9c0,0,1.1-0.9,2.5,0.1c1.5,1.1,4.6,2.9,4.6,2.9s0.3,0.4,4-0.7
					c3.7-1.1,3-0.8,3.4-2.5c0.4-1.7-0.4-1.9-0.3-3c0.1-1.2,4-4.8,4-4.8l2.8,4.5l0.4,3l4.1,1.3c0,0,2-0.5,0.5,2.1
					c-1.5,2.7-3.7,2.1-0.9,3c2.8,0.9,4.5,0.1,4.5,0.1l2.7,0.4l0.1,1.7c0,0-0.1,1.2,1.5,1.9"/>
				<path class="st4" d="M137,233.3c0,0,5.3-1.3,7.9-3.4c2.6-2.1,5.5-4.7,5.5-4.7l4-5.2c0,0,5.2-4.7,6.9-5.9c1.7-1.2,4-1.7,3.3-2.8
					c-0.7-1.2-1-3.9-2.1-4.3c0,0-2-2.6-1.7-3.6c0.3-1,3.8-2.1,3.8-2.1c0.5-1.4,2.4-5.7,2.4-5.7"/>
				<path class="st4" d="M151.5,222.1c0,0,1.9,2.6,3.1,3.3c1.2,0.7,1.9,3.3,1.9,3.3l-1.7,4c0,0-1,2.8-0.2,3.2c0.7,0.4,1,1.3,1.6,1.3
					s2-1.4,2-1.4s2.6,1,2.7,1.4c0.1,0.4-0.3,2.6-0.1,3c0.1,0.4-0.4,1.7,0.3,2c0.7,0.3,0.9,3,0.9,3s-1.1,0.3,0.7,0.6
					c1.9,0.3,2,1.3,2.4,2c0.4,0.7-0.3,2.1-0.3,2.1s0,1,1.4,1c1.4,0,3.7-0.6,3.7-0.6l3.4-1.3c0,0,0.9-1.6,3-1.1c2.1,0.4,2.1,2,2.1,2
					s0.9,1.2,1.3,1.1c0.6,0,1.7-1.7,1.7-1.7h2c0,0,0.4,1.1,0.7,1.1c0.5,0.1,1.4-1.4,1.4-1.4l2.9-0.3h4.6c0,0,1.7-0.5,2.8-0.6
					c1.2-0.1,2.2,0,4,0"/>
				<path class="st4" d="M166,249.7l-3.7,1.4c0,0-1.4,1.9-1.3,2.6c0.1,0.7,0.1,1.7,0.1,1.7s-1.1,0.3-0.3,0.9
					c0.9,0.6-0.9,1.7-0.6,2.3c0.3,0.6-0.9,1.1-1.3,1.7c-0.4,0.6-4.7,0.9-3.6,2.3c1.1,1.4,1.1,2,1.1,2l2.1,2.6c0,0,4,3.6,5.3,3.6
					c1.3,0-0.9,0.7,0.7,1.6c1.6,0.9,2.7,1.1,2.6,2.1c-0.1,1-1.9,1.7-1.9,1.7s-1.9,4.4-0.4,5.1c1.4,0.7,2.1,1.7,2.1,1.7l1.1,1.4
					c0,0,2,2.4,2,3s2,1.1,3.1,2c1.1,0.9,2.3,4.3,3.9,5.1c1.6,0.9,0.1,1.4,1.1,1.9c1,0.4,1.7-0.2,2.9-0.4c3.1-0.6,3.3-0.9,4.6-0.3
					c1.3,0.6,2-1,2-1s0.1-1.4,2.6-2.1c2.4-0.7,3.6-3.3,4.7-3.3c1.1,0,1,1.4,2.4,0.1c1.4-1.3,1.3-2,1.3-2s2.6,0.1,2.9,1
					c0.3,0.9-2,1.9,0,1.6c2-0.3,2.6-1,2.6-1s-0.7-2.4,1-2.9c1.7-0.4,1.6-1.1,2.4-1.4c0.9-0.3,2.3,0.3,2.3,0.3l0.4,2.6l0.4,2
					c0,0-1.3,1.4,0.4,1.1c1.7-0.3,1.1-2.7,1.1-2.7c2.7-0.9,2.7-0.9,2.7-0.9"/>
				<path class="st4" d="M141.7,299.3c0,0,3.1,0.9,4.1,1.6c1,0.7,1.1,2,1.1,2.7c0,0.7,1.6,1.3,1.6,1.3s1.3,2.7,2,3.3
					c0.7,0.6,2.4,1.1,2.4,1.1"/>
				<path class="st4" d="M143.9,311.3c2.1-0.9,1.9-1.7,3-1.7l2.9,1.3c1.9,0.6,2.4-0.6,2.4-0.6s0.1-1.9,1.7-2
					c1.6-0.1,2.6,1.1,2.6,1.1s2.1,0,2.6-0.4c0.4-0.4-0.1-3.3,1.6-3.9c1.7-0.6,3.4-2.6,3.4-2.6s0.6-1.7,2-1.9
					c1.4-0.1,2.1-0.6,3.3-0.7c1.1-0.1,1.6,1.6,2.7,2.7c1.1,1.1,1.9,4,1.9,4l-1.4,3.3l1.4,2.9c0,0,2.1,1.4,2.4,2.4
					c0.3,1-0.6,0.9-0.6,1.9c0,1,0.3,2,0.3,2l2.3,0.6c0,0-1.7,3.6,0,4.1c1.7,0.6,2.9,1.6,2.9,1.6l1.1,1.6l3.6,2.1l1.4,3.4
					c0,0-0.4,1-0.9,1.9c-0.4,0.9-0.9,2.6-0.9,2.6s-4.1,4.7-4.7,5.7c-0.6,1-2.7,3.6-3.3,5c-0.6,1.4-0.3-2.4-1-3
					c-0.7-0.6-1-1.4-2.3-1.4c-1.3,0-3.9,0.3-4,0.7c-0.1,0.4,0.7,1.3-1.6,1.6c-2.3,0.3-3.8,0.9-4.3,0c-0.4-0.9-2.6,1.3-2.6,1.3
					s1.6,0-1.9,0c-3.4,0-3.3-1.1-2.4,1.9c0.9,3-1.6,1.6-3.3,2.9c-1.7,1.3-3.4-2-6-2.4c-2.6-0.4-5.6-3.6-5.3-6.1
					c0.3-2.6,0.3-6.6,2-7.6c1.7-1,2.1-1.7,0.6-2.7c-1.6-1-6-0.7-4.7-2.7c1.3-2,2.9-3.3,2.9-3.3l0.7-1l-1.1-2.7c0,0-0.4-2,0.7-2.4
					c1.1-0.4,1.1-3,1.1-3l-0.3-2c0,0-1.6-0.1-2.1-0.9c-0.6-0.7-0.7-1.4,0-2C143.5,312.2,143.9,311.3,143.9,311.3z"/>
				<path class="st4" d="M219.6,316.4c0,0-0.9,2.3-2.5,2.2c-1.6-0.1-1-0.3-1.6,0.9c-0.6,1.1-1.4,1.6-1.6,2c-0.1,0.4-1.9,0.6-3.4,0.4
					c-1.6-0.1-4.8-0.7-4.8-0.7l-2.3,1.7l0.6,2.7c0,0,3,2,2.7,2.4c-0.3,0.4-0.1,0.9-1,2.1c-0.9,1.3-1.3,0.9-1.4,1.9
					c-0.1,1,0.9,0.9-0.7,1.6c-1.6,0.7-2.1-0.1-2.4,1.1c-0.3,1.3,1.3,1.6-0.6,2.3c-1.9,0.7-0.4,3.7-0.4,3.7s-1,2.7-0.7,6.7
					c0.3,4-2.6,2-0.3,3.6c2.3,1.6,3.6,2.1,1,2.4c-2.6,0.3-1.7,1.3,0.7,2.3c2.4,1-0.3,1.1,0.3,2.7c0.6,1.6,1.6,2,4.8,1.7
					c3.3-0.3,3.1-1.4,3.1-1.4l2.6-1h2.9l0.6,1.1c0,0,0.7,0.7,2.3,0.9c1.6,0.1,2.7,0.9,2.7,0.9s1.4,0.6,1.6,1.4
					c0.1,0.9-1.6,3.1-1.6,3.1s0.9,1.4,1.9,1.4c1,0,0.3,0.7,2.4,0.1c2.1-0.6,4.1-0.1,4.6,0"/>
				<path class="st4" d="M203,360c0,0-1,4.4,0,5.3c1,0.9,2.1,2.3,2.1,2.3s2.1,0.6,2.9,1.3c0.7,0.7,2,2,2,2l2.4,1.1
					c2.9,1.3,3.8,1.3,4.1,0c0.3-1.3,0.4-1.6,0.7-2c0.3-0.4,2-2.9,2-2.9s0.3-1.7,0.9-2"/>
				<path class="st4" d="M177.6,347.7c0,0-2.6,3.3-1.9,5.3c0.7,2,0.4,7.1,0.4,7.1l1.7,4.3c0,0,1,1.4,1.1,3.1
					c0.1,1.7,0.3,4.4-0.6,5.4c-0.9,1-0.4,1-1.4,1.9c-1,0.9-1.6,0.4-0.7,1.4c0.9,1,0.6,2.4,0.6,2.4s1.7-1.1,1.3,2.4
					c-0.4,3.6,0,3.9-1.7,3.9c-1.7,0-2.3-0.9-2.3-0.9l-1.9-1.1c-3.1-0.1-2.4,0.6-2.4,0.6l1.4,2c0,0,1.4,0.7,1,2.7
					c-0.4,2-0.7,3.1-0.7,3.1s3.4,0.9,3.7,2c0.3,1.1,0.6,2.6,0.6,2.6l-0.3,0.7"/>
				<path class="st4" d="M183,340.3c0,0,1,1,1,1.9c0,0.9,0,2.4,0,2.4l0.7,2.3c1.9-0.3,3.1-1.4,3.1-1.4l1.4-1.4c0,0-0.4-1.1,1.1-1.3
					c1.6-0.1,2.6,0,2.6,0l0.4,1.3c1-0.6,2-2.3,1.9-2.7c-0.1-0.4-0.1-1.1,1.3-2.4c1.4-1.3,0.6,0.3,1.7,0.1l1.3-0.9"/>
				<path class="st4" d="M152.1,364.2c0,0,2.6-2.4,1.9-3.4c-0.7-1-1-9.3-1-9.3"/>
			</g>
		</g>
	</g>
</g>
<g id="Layer_7">
</g>
<g id="Routes">
</g>
<g id="Layer_6">
	<polyline class="st17" points="231.8,335.3 225.8,335.3 225.8,344 222.8,346.8 222.8,349.7 220.8,352.6 220.8,356.1 217.7,361.1 
		211.3,356.1 211.3,352.6 204.7,357 204.7,360.4 192.1,360.4 192.1,369.1 197,369.1 	"/>
	<polyline class="st17" points="198.7,340.1 179.1,317.2 179.1,289.8 175.7,289.8 175.7,294.9 168.7,294.9 168.7,302.2 161.6,309.3 
		164.2,312.2 164.2,325.9 174.3,336 174.3,344 192.1,360.4 	"/>
</g>
<g id="Small_Ones">
	<circle class="st18" cx="231.8" cy="335.3" r="2.9"/>
	<circle class="st18" cx="187.7" cy="323.1" r="2.9"/>
	<circle class="st18" cx="175.7" cy="294.9" r="2.9"/>
	<circle class="st18" cx="200.7" cy="338.1" r="2.9"/>
	<circle class="st18" cx="197" cy="360.4" r="2.9"/>
	<circle class="st18" cx="197" cy="369.1" r="2.9"/>
	<polyline class="st17" points="204.7,357 176.7,325.9 188,325.9 	"/>
</g>
<g id="Big_Ones">
</g>
<g id="LABELS">
	<g>
		<path class="st19" d="M154.1,289.8v0.4h-1v2.3h-0.5v-2.3h-1v-0.4H154.1z"/>
		<path class="st19" d="M155,289.8v1.6c0,0.2,0,0.3,0.1,0.4c0,0.1,0.1,0.2,0.2,0.2s0.2,0.1,0.4,0.1c0.2,0,0.3,0,0.4-0.1
			c0.1-0.1,0.2-0.1,0.2-0.2c0.1-0.1,0.1-0.2,0.1-0.4v-1.6h0.5v1.6c0,0.4-0.1,0.6-0.3,0.8s-0.5,0.3-0.9,0.3c-0.3,0-0.5,0-0.7-0.1
			s-0.3-0.2-0.4-0.4s-0.1-0.4-0.1-0.6v-1.6H155z"/>
		<path class="st19" d="M158,289.8l1.6,1.9v-1.9h0.5v2.7h-0.5l-1.6-1.9v1.9h-0.5v-2.7H158z"/>
		<path class="st19" d="M161.5,289.7c0.3,0,0.5,0.1,0.8,0.2v0.5c-0.3-0.2-0.5-0.3-0.8-0.3c-0.1,0-0.2,0-0.3,0.1
			c-0.1,0.1-0.1,0.1-0.1,0.2c0,0.1,0.1,0.2,0.2,0.3c0,0,0.2,0.1,0.5,0.2c0.2,0.1,0.4,0.2,0.5,0.4s0.1,0.3,0.1,0.5
			c0,0.2-0.1,0.4-0.3,0.6c-0.2,0.1-0.4,0.2-0.7,0.2c-0.2,0-0.3,0-0.5-0.1c-0.1,0-0.3-0.1-0.4-0.2v-0.5c0.3,0.2,0.6,0.4,0.8,0.4
			c0.1,0,0.2,0,0.3-0.1c0.1-0.1,0.1-0.1,0.1-0.2c0-0.1-0.1-0.2-0.2-0.3c-0.1-0.1-0.3-0.1-0.4-0.2c-0.2-0.1-0.4-0.2-0.5-0.3
			c-0.1-0.1-0.2-0.3-0.2-0.5c0-0.2,0.1-0.4,0.3-0.5C161,289.8,161.3,289.7,161.5,289.7z"/>
		<path class="st19" d="M165.1,289.8v0.4h-1v2.3h-0.5v-2.3h-1v-0.4H165.1z"/>
		<path class="st19" d="M167.2,289.8v0.4H166v0.7h1.2v0.4H166v0.8h1.3v0.4h-1.8v-2.7H167.2z"/>
		<path class="st19" d="M169.1,289.8l1.2,2.7h-0.6l-0.3-0.7h-1.2l-0.3,0.7h-0.6l1.1-2.7H169.1z M168.4,291.4h0.9l-0.5-1.1
			L168.4,291.4z"/>
		<path class="st19" d="M171.8,289.8c0.3,0,0.5,0.1,0.8,0.2c0.2,0.1,0.4,0.3,0.5,0.5c0.1,0.2,0.2,0.4,0.2,0.7c0,0.3-0.1,0.5-0.2,0.7
			c-0.1,0.2-0.3,0.4-0.5,0.5s-0.5,0.2-0.8,0.2h-1.1v-2.7H171.8z M171.7,292.1c0.3,0,0.5-0.1,0.7-0.3c0.2-0.2,0.3-0.4,0.3-0.7
			c0-0.3-0.1-0.5-0.3-0.7c-0.2-0.2-0.4-0.3-0.7-0.3h-0.5v1.9H171.7z"/>
	</g>
	<g>
		<path class="st19" d="M192.9,321.6l0.9,1.1l0.9-1.1h0.5v2.7h-0.5v-1.9h0l-0.8,1h-0.1l-0.8-1h0v1.9h-0.5v-2.7H192.9z"/>
		<path class="st19" d="M197.2,321.6c0.3,0,0.5,0.1,0.8,0.2c0.2,0.1,0.4,0.3,0.5,0.5c0.1,0.2,0.2,0.5,0.2,0.7c0,0.3-0.1,0.5-0.2,0.7
			c-0.1,0.2-0.3,0.4-0.5,0.5c-0.2,0.1-0.5,0.2-0.8,0.2c-0.3,0-0.5-0.1-0.8-0.2c-0.2-0.1-0.4-0.3-0.5-0.5c-0.1-0.2-0.2-0.5-0.2-0.7
			c0-0.2,0.1-0.5,0.2-0.7c0.1-0.2,0.3-0.4,0.5-0.5C196.6,321.6,196.9,321.6,197.2,321.6z M196.2,323c0,0.2,0,0.3,0.1,0.5
			s0.2,0.3,0.3,0.3c0.1,0.1,0.3,0.1,0.5,0.1c0.3,0,0.5-0.1,0.7-0.3s0.3-0.4,0.3-0.7c0-0.2,0-0.3-0.1-0.5c-0.1-0.1-0.2-0.3-0.3-0.3
			c-0.1-0.1-0.3-0.1-0.5-0.1s-0.4,0-0.5,0.1s-0.3,0.2-0.3,0.3C196.3,322.6,196.2,322.8,196.2,323z"/>
		<path class="st19" d="M199.7,321.6v1.6c0,0.2,0,0.3,0.1,0.4c0,0.1,0.1,0.2,0.2,0.2s0.2,0.1,0.4,0.1c0.2,0,0.3,0,0.4-0.1
			c0.1-0.1,0.2-0.1,0.2-0.2c0.1-0.1,0.1-0.2,0.1-0.4v-1.6h0.5v1.6c0,0.4-0.1,0.6-0.3,0.8s-0.5,0.3-0.9,0.3c-0.3,0-0.5,0-0.7-0.1
			s-0.3-0.2-0.4-0.4s-0.1-0.4-0.1-0.6v-1.6H199.7z"/>
		<path class="st19" d="M202.7,321.6l1.6,1.9v-1.9h0.5v2.7h-0.5l-1.6-1.9v1.9h-0.5v-2.7H202.7z"/>
		<path class="st19" d="M207.7,321.6v0.4h-1v2.3h-0.5V322h-1v-0.4H207.7z"/>
		<path class="st19" d="M208.8,321.6c0.3,0,0.5,0.1,0.8,0.2v0.5c-0.3-0.2-0.5-0.3-0.8-0.3c-0.1,0-0.2,0-0.3,0.1
			c-0.1,0.1-0.1,0.1-0.1,0.2c0,0.1,0.1,0.2,0.2,0.3c0,0,0.2,0.1,0.5,0.2c0.2,0.1,0.4,0.2,0.5,0.4s0.1,0.3,0.1,0.5
			c0,0.2-0.1,0.4-0.3,0.6c-0.2,0.1-0.4,0.2-0.7,0.2c-0.2,0-0.3,0-0.5-0.1c-0.1,0-0.3-0.1-0.4-0.2v-0.5c0.3,0.2,0.6,0.4,0.8,0.4
			c0.1,0,0.2,0,0.3-0.1c0.1-0.1,0.1-0.1,0.1-0.2c0-0.1-0.1-0.2-0.2-0.3c-0.1-0.1-0.3-0.1-0.4-0.2c-0.2-0.1-0.4-0.2-0.5-0.3
			c-0.1-0.1-0.2-0.3-0.2-0.5c0-0.2,0.1-0.4,0.3-0.5C208.3,321.6,208.6,321.6,208.8,321.6z"/>
		<path class="st19" d="M211.6,321.6c0.3,0,0.5,0.1,0.8,0.2c0.2,0.1,0.4,0.3,0.5,0.5c0.1,0.2,0.2,0.5,0.2,0.7c0,0.3-0.1,0.5-0.2,0.7
			c-0.1,0.2-0.3,0.4-0.5,0.5c-0.2,0.1-0.5,0.2-0.8,0.2c-0.3,0-0.5-0.1-0.8-0.2c-0.2-0.1-0.4-0.3-0.5-0.5c-0.1-0.2-0.2-0.5-0.2-0.7
			c0-0.2,0.1-0.5,0.2-0.7c0.1-0.2,0.3-0.4,0.5-0.5C211,321.6,211.3,321.6,211.6,321.6z M210.6,323c0,0.2,0,0.3,0.1,0.5
			s0.2,0.3,0.3,0.3c0.1,0.1,0.3,0.1,0.5,0.1c0.3,0,0.5-0.1,0.7-0.3s0.3-0.4,0.3-0.7c0-0.2,0-0.3-0.1-0.5c-0.1-0.1-0.2-0.3-0.3-0.3
			c-0.1-0.1-0.3-0.1-0.5-0.1s-0.4,0-0.5,0.1s-0.3,0.2-0.3,0.3C210.7,322.6,210.6,322.8,210.6,323z"/>
		<path class="st19" d="M214.6,321.6c0.3,0,0.5,0.1,0.6,0.2c0.2,0.1,0.2,0.3,0.2,0.6c0,0.2,0,0.3-0.1,0.4s-0.2,0.2-0.4,0.3
			c0.1,0,0.2,0.1,0.2,0.2c0.1,0.1,0.2,0.2,0.3,0.4c0.2,0.3,0.3,0.6,0.4,0.7h-0.6c0-0.1-0.1-0.2-0.2-0.3c-0.2-0.3-0.3-0.5-0.3-0.6
			c-0.1-0.1-0.1-0.2-0.2-0.2c-0.1,0-0.1-0.1-0.2-0.1h-0.2v1.2h-0.5v-2.7H214.6z M214.4,322.8c0.1,0,0.2,0,0.3-0.1
			c0.1-0.1,0.1-0.2,0.1-0.3c0-0.1,0-0.2-0.1-0.3c-0.1-0.1-0.2-0.1-0.3-0.1h-0.3v0.8H214.4z"/>
		<path class="st19" d="M217.1,321.6c0.3,0,0.5,0.1,0.6,0.2c0.2,0.1,0.2,0.3,0.2,0.6c0,0.2,0,0.3-0.1,0.4s-0.2,0.2-0.4,0.3
			c0.1,0,0.2,0.1,0.2,0.2c0.1,0.1,0.2,0.2,0.3,0.4c0.2,0.3,0.3,0.6,0.4,0.7h-0.6c0-0.1-0.1-0.2-0.2-0.3c-0.2-0.3-0.3-0.5-0.3-0.6
			c-0.1-0.1-0.1-0.2-0.2-0.2c-0.1,0-0.1-0.1-0.2-0.1h-0.2v1.2h-0.5v-2.7H217.1z M217,322.8c0.1,0,0.2,0,0.3-0.1
			c0.1-0.1,0.1-0.2,0.1-0.3c0-0.1,0-0.2-0.1-0.3c-0.1-0.1-0.2-0.1-0.3-0.1h-0.3v0.8H217z"/>
		<path class="st19" d="M220.5,321.6v0.4h-1.2v0.7h1.2v0.4h-1.2v0.8h1.3v0.4h-1.8v-2.7H220.5z"/>
		<path class="st19" d="M221.5,321.6v2.3h1.3v0.4H221v-2.7H221.5z"/>
	</g>
	<g>
		<path class="st19" d="M216.3,328c0.2,0,0.5,0.1,0.6,0.2c0.2,0.1,0.2,0.3,0.2,0.5c0,0.1,0,0.2-0.1,0.3c-0.1,0.1-0.2,0.2-0.3,0.2v0
			c0.2,0,0.3,0.1,0.4,0.3s0.2,0.3,0.2,0.4c0,0.2,0,0.3-0.1,0.4s-0.2,0.2-0.3,0.3c-0.1,0.1-0.3,0.1-0.5,0.1h-1.1V328H216.3z
			 M216.2,329.1c0.1,0,0.2,0,0.3-0.1s0.1-0.2,0.1-0.3c0-0.1,0-0.2-0.1-0.3c-0.1-0.1-0.2-0.1-0.3-0.1h-0.4v0.7H216.2z M216.3,330.3
			c0.2,0,0.3,0,0.4-0.1c0.1-0.1,0.1-0.2,0.1-0.3c0-0.1,0-0.2-0.1-0.3c-0.1-0.1-0.2-0.1-0.4-0.1h-0.5v0.8H216.3z"/>
		<path class="st19" d="M218.4,328v1.6c0,0.2,0,0.3,0.1,0.4c0,0.1,0.1,0.2,0.2,0.2s0.2,0.1,0.4,0.1c0.2,0,0.3,0,0.4-0.1
			c0.1-0.1,0.2-0.1,0.2-0.2c0.1-0.1,0.1-0.2,0.1-0.4V328h0.5v1.6c0,0.4-0.1,0.6-0.3,0.8s-0.5,0.3-0.9,0.3c-0.3,0-0.5,0-0.7-0.1
			s-0.3-0.2-0.4-0.4s-0.1-0.4-0.1-0.6V328H218.4z"/>
		<path class="st19" d="M221.9,328c0.3,0,0.5,0.1,0.6,0.2c0.2,0.1,0.2,0.3,0.2,0.6c0,0.2,0,0.3-0.1,0.4s-0.2,0.2-0.4,0.3
			c0.1,0,0.2,0.1,0.2,0.2c0.1,0.1,0.2,0.2,0.3,0.4c0.2,0.3,0.3,0.6,0.4,0.7h-0.6c0-0.1-0.1-0.2-0.2-0.3c-0.2-0.3-0.3-0.5-0.3-0.6
			c-0.1-0.1-0.1-0.2-0.2-0.2c-0.1,0-0.1-0.1-0.2-0.1h-0.2v1.2h-0.5V328H221.9z M221.8,329.2c0.1,0,0.2,0,0.3-0.1
			c0.1-0.1,0.1-0.2,0.1-0.3c0-0.1,0-0.2-0.1-0.3c-0.1-0.1-0.2-0.1-0.3-0.1h-0.3v0.8H221.8z"/>
		<path class="st19" d="M223.6,328l0.7,0.9l0.7-0.9h0.6l-1,1.4v1.4H224v-1.4l-1-1.4H223.6z"/>
		<path class="st19" d="M227.8,328c0.3,0,0.5,0.1,0.8,0.2v0.5c-0.3-0.2-0.5-0.3-0.8-0.3c-0.1,0-0.2,0-0.3,0.1
			c-0.1,0.1-0.1,0.1-0.1,0.2c0,0.1,0.1,0.2,0.2,0.3c0,0,0.2,0.1,0.5,0.2c0.2,0.1,0.4,0.2,0.5,0.4s0.1,0.3,0.1,0.5
			c0,0.2-0.1,0.4-0.3,0.6c-0.2,0.1-0.4,0.2-0.7,0.2c-0.2,0-0.3,0-0.5-0.1c-0.1,0-0.3-0.1-0.4-0.2V330c0.3,0.2,0.6,0.4,0.8,0.4
			c0.1,0,0.2,0,0.3-0.1c0.1-0.1,0.1-0.1,0.1-0.2c0-0.1-0.1-0.2-0.2-0.3c-0.1-0.1-0.3-0.1-0.4-0.2c-0.2-0.1-0.4-0.2-0.5-0.3
			c-0.1-0.1-0.2-0.3-0.2-0.5c0-0.2,0.1-0.4,0.3-0.5C227.3,328,227.5,328,227.8,328z"/>
		<path class="st19" d="M231.3,328v0.4h-1v2.3h-0.5v-2.3h-1V328H231.3z"/>
		<path class="st19" d="M234.6,328v0.4h-1.2v0.7h1.2v0.4h-1.2v0.8h1.3v0.4h-1.8V328H234.6z"/>
		<path class="st19" d="M236.2,328c0.3,0,0.5,0.1,0.8,0.2c0.2,0.1,0.4,0.3,0.5,0.5c0.1,0.2,0.2,0.4,0.2,0.7c0,0.3-0.1,0.5-0.2,0.7
			c-0.1,0.2-0.3,0.4-0.5,0.5s-0.5,0.2-0.8,0.2h-1.1V328H236.2z M236.2,330.3c0.3,0,0.5-0.1,0.7-0.3c0.2-0.2,0.3-0.4,0.3-0.7
			c0-0.3-0.1-0.5-0.3-0.7c-0.2-0.2-0.4-0.3-0.7-0.3h-0.5v1.9H236.2z"/>
		<path class="st19" d="M238.7,328l0.9,1.1l0.9-1.1h0.5v2.7h-0.5v-1.9h0l-0.8,1h-0.1l-0.8-1h0v1.9h-0.5V328H238.7z"/>
		<path class="st19" d="M242,328v1.6c0,0.2,0,0.3,0.1,0.4c0,0.1,0.1,0.2,0.2,0.2c0.1,0.1,0.2,0.1,0.4,0.1c0.2,0,0.3,0,0.4-0.1
			c0.1-0.1,0.2-0.1,0.2-0.2c0.1-0.1,0.1-0.2,0.1-0.4V328h0.5v1.6c0,0.4-0.1,0.6-0.3,0.8c-0.2,0.2-0.5,0.3-0.9,0.3
			c-0.3,0-0.5,0-0.7-0.1s-0.3-0.2-0.4-0.4s-0.1-0.4-0.1-0.6V328H242z"/>
		<path class="st19" d="M245,328l1.6,1.9V328h0.5v2.7h-0.5l-1.6-1.9v1.9h-0.5V328H245z"/>
		<path class="st19" d="M248.9,328c0.3,0,0.5,0.1,0.8,0.2c0.2,0.1,0.4,0.3,0.5,0.5c0.1,0.2,0.2,0.4,0.2,0.7c0,0.3-0.1,0.5-0.2,0.7
			c-0.1,0.2-0.3,0.4-0.5,0.5s-0.5,0.2-0.8,0.2h-1.1V328H248.9z M248.9,330.3c0.3,0,0.5-0.1,0.7-0.3c0.2-0.2,0.3-0.4,0.3-0.7
			c0-0.3-0.1-0.5-0.3-0.7c-0.2-0.2-0.4-0.3-0.7-0.3h-0.5v1.9H248.9z"/>
		<path class="st19" d="M251.7,328c0.3,0,0.5,0.1,0.8,0.2v0.5c-0.3-0.2-0.5-0.3-0.8-0.3c-0.1,0-0.2,0-0.3,0.1
			c-0.1,0.1-0.1,0.1-0.1,0.2c0,0.1,0.1,0.2,0.2,0.3c0,0,0.2,0.1,0.5,0.2c0.2,0.1,0.4,0.2,0.5,0.4c0.1,0.1,0.1,0.3,0.1,0.5
			c0,0.2-0.1,0.4-0.3,0.6c-0.2,0.1-0.4,0.2-0.7,0.2c-0.2,0-0.3,0-0.5-0.1c-0.1,0-0.3-0.1-0.4-0.2V330c0.3,0.2,0.6,0.4,0.8,0.4
			c0.1,0,0.2,0,0.3-0.1c0.1-0.1,0.1-0.1,0.1-0.2c0-0.1-0.1-0.2-0.2-0.3c-0.1-0.1-0.3-0.1-0.4-0.2c-0.2-0.1-0.4-0.2-0.5-0.3
			c-0.1-0.1-0.2-0.3-0.2-0.5c0-0.2,0.1-0.4,0.3-0.5C251.2,328,251.4,328,251.7,328z"/>
	</g>
	<g>
		<path class="st19" d="M196.5,342.1l0.7,1.7l0.7-1.7h0.4l0.7,1.7l0.7-1.7h0.5l-1.1,2.8H199l-0.9-2l-0.9,2h-0.2l-1.1-2.8H196.5z"/>
		<path class="st19" d="M202.4,342.1v0.4h-1.2v0.7h1.2v0.4h-1.2v0.8h1.3v0.4h-1.8v-2.7H202.4z"/>
		<path class="st19" d="M203.4,342.1v2.3h1.3v0.4h-1.9v-2.7H203.4z"/>
		<path class="st19" d="M205.6,342.1v2.3h1.3v0.4h-1.9v-2.7H205.6z"/>
		<path class="st19" d="M207.9,342.1v2.7h-0.5v-2.7H207.9z"/>
		<path class="st19" d="M208.9,342.1l1.6,1.9v-1.9h0.5v2.7h-0.5l-1.6-1.9v1.9h-0.5v-2.7H208.9z"/>
		<path class="st19" d="M213.1,342.1c0.3,0,0.7,0.1,1,0.2v0.5c-0.3-0.2-0.7-0.3-1-0.3c-0.2,0-0.4,0-0.5,0.1
			c-0.2,0.1-0.3,0.2-0.4,0.3c-0.1,0.1-0.1,0.3-0.1,0.5c0,0.3,0.1,0.5,0.3,0.7s0.4,0.3,0.7,0.3c0.1,0,0.2,0,0.2,0
			c0.1,0,0.2,0,0.3-0.1v-0.5h-0.5v-0.4h1v1.1c-0.1,0.1-0.3,0.2-0.5,0.2s-0.4,0.1-0.6,0.1c-0.3,0-0.5-0.1-0.8-0.2
			c-0.2-0.1-0.4-0.3-0.5-0.5c-0.1-0.2-0.2-0.5-0.2-0.7c0-0.3,0.1-0.5,0.2-0.7c0.1-0.2,0.3-0.4,0.6-0.5
			C212.6,342.1,212.8,342.1,213.1,342.1z"/>
		<path class="st19" d="M215.7,342.1c0.2,0,0.5,0.1,0.6,0.2c0.2,0.1,0.2,0.3,0.2,0.5c0,0.1,0,0.2-0.1,0.3c-0.1,0.1-0.2,0.2-0.3,0.2
			v0c0.2,0,0.3,0.1,0.4,0.3s0.2,0.3,0.2,0.4c0,0.2,0,0.3-0.1,0.4s-0.2,0.2-0.3,0.3c-0.1,0.1-0.3,0.1-0.5,0.1h-1.1v-2.7H215.7z
			 M215.6,343.2c0.1,0,0.2,0,0.3-0.1s0.1-0.2,0.1-0.3c0-0.1,0-0.2-0.1-0.3c-0.1-0.1-0.2-0.1-0.3-0.1h-0.4v0.7H215.6z M215.7,344.4
			c0.2,0,0.3,0,0.4-0.1c0.1-0.1,0.1-0.2,0.1-0.3c0-0.1,0-0.2-0.1-0.3c-0.1-0.1-0.2-0.1-0.4-0.1h-0.5v0.8H215.7z"/>
		<path class="st19" d="M218.6,342.1c0.3,0,0.5,0.1,0.8,0.2c0.2,0.1,0.4,0.3,0.5,0.5c0.1,0.2,0.2,0.5,0.2,0.7c0,0.3-0.1,0.5-0.2,0.7
			c-0.1,0.2-0.3,0.4-0.5,0.5c-0.2,0.1-0.5,0.2-0.8,0.2c-0.3,0-0.5-0.1-0.8-0.2c-0.2-0.1-0.4-0.3-0.5-0.5c-0.1-0.2-0.2-0.5-0.2-0.7
			c0-0.2,0.1-0.5,0.2-0.7c0.1-0.2,0.3-0.4,0.5-0.5C218.1,342.1,218.3,342.1,218.6,342.1z M217.7,343.5c0,0.2,0,0.3,0.1,0.5
			s0.2,0.3,0.3,0.3c0.1,0.1,0.3,0.1,0.5,0.1c0.3,0,0.5-0.1,0.7-0.3s0.3-0.4,0.3-0.7c0-0.2,0-0.3-0.1-0.5c-0.1-0.1-0.2-0.3-0.3-0.3
			c-0.1-0.1-0.3-0.1-0.5-0.1s-0.4,0-0.5,0.1s-0.3,0.2-0.3,0.3C217.7,343.1,217.7,343.3,217.7,343.5z"/>
		<path class="st19" d="M221.6,342.1c0.3,0,0.5,0.1,0.6,0.2c0.2,0.1,0.2,0.3,0.2,0.6c0,0.2,0,0.3-0.1,0.4s-0.2,0.2-0.4,0.3
			c0.1,0,0.2,0.1,0.2,0.2c0.1,0.1,0.2,0.2,0.3,0.4c0.2,0.3,0.3,0.6,0.4,0.7h-0.6c0-0.1-0.1-0.2-0.2-0.3c-0.2-0.3-0.3-0.5-0.3-0.6
			c-0.1-0.1-0.1-0.2-0.2-0.2c-0.1,0-0.1-0.1-0.2-0.1h-0.2v1.2h-0.5v-2.7H221.6z M221.5,343.3c0.1,0,0.2,0,0.3-0.1
			c0.1-0.1,0.1-0.2,0.1-0.3c0-0.1,0-0.2-0.1-0.3c-0.1-0.1-0.2-0.1-0.3-0.1h-0.3v0.8H221.5z"/>
		<path class="st19" d="M224.5,342.1c0.3,0,0.5,0.1,0.8,0.2c0.2,0.1,0.4,0.3,0.5,0.5c0.1,0.2,0.2,0.5,0.2,0.7c0,0.3-0.1,0.5-0.2,0.7
			c-0.1,0.2-0.3,0.4-0.5,0.5c-0.2,0.1-0.5,0.2-0.8,0.2c-0.3,0-0.5-0.1-0.8-0.2c-0.2-0.1-0.4-0.3-0.5-0.5c-0.1-0.2-0.2-0.5-0.2-0.7
			c0-0.2,0.1-0.5,0.2-0.7c0.1-0.2,0.3-0.4,0.5-0.5C223.9,342.1,224.2,342.1,224.5,342.1z M223.5,343.5c0,0.2,0,0.3,0.1,0.5
			s0.2,0.3,0.3,0.3c0.1,0.1,0.3,0.1,0.5,0.1c0.3,0,0.5-0.1,0.7-0.3s0.3-0.4,0.3-0.7c0-0.2,0-0.3-0.1-0.5c-0.1-0.1-0.2-0.3-0.3-0.3
			c-0.1-0.1-0.3-0.1-0.5-0.1s-0.4,0-0.5,0.1s-0.3,0.2-0.3,0.3C223.6,343.1,223.5,343.3,223.5,343.5z"/>
		<path class="st19" d="M227,342.1v1.6c0,0.2,0,0.3,0.1,0.4c0,0.1,0.1,0.2,0.2,0.2s0.2,0.1,0.4,0.1c0.2,0,0.3,0,0.4-0.1
			c0.1-0.1,0.2-0.1,0.2-0.2c0.1-0.1,0.1-0.2,0.1-0.4v-1.6h0.5v1.6c0,0.4-0.1,0.6-0.3,0.8s-0.5,0.3-0.9,0.3c-0.3,0-0.5,0-0.7-0.1
			s-0.3-0.2-0.4-0.4s-0.1-0.4-0.1-0.6v-1.6H227z"/>
		<path class="st19" d="M231,342.1c0.3,0,0.7,0.1,1,0.2v0.5c-0.3-0.2-0.7-0.3-1-0.3c-0.2,0-0.4,0-0.5,0.1c-0.2,0.1-0.3,0.2-0.4,0.3
			c-0.1,0.1-0.1,0.3-0.1,0.5c0,0.3,0.1,0.5,0.3,0.7s0.4,0.3,0.7,0.3c0.1,0,0.2,0,0.2,0c0.1,0,0.2,0,0.3-0.1v-0.5H231v-0.4h1v1.1
			c-0.1,0.1-0.3,0.2-0.5,0.2s-0.4,0.1-0.6,0.1c-0.3,0-0.5-0.1-0.8-0.2c-0.2-0.1-0.4-0.3-0.5-0.5c-0.1-0.2-0.2-0.5-0.2-0.7
			c0-0.3,0.1-0.5,0.2-0.7c0.1-0.2,0.3-0.4,0.6-0.5C230.4,342.1,230.7,342.1,231,342.1z"/>
		<path class="st19" d="M233.1,342.1v1.1h1.4v-1.1h0.5v2.7h-0.5v-1.2h-1.4v1.2h-0.5v-2.7H233.1z"/>
	</g>
	<g>
		<path class="st19" d="M185.9,373.9v1.1h1.4v-1.1h0.5v2.7h-0.5v-1.2h-1.4v1.2h-0.5v-2.7H185.9z"/>
		<path class="st19" d="M190.2,373.9v0.4H189v0.7h1.2v0.4H189v0.8h1.3v0.4h-1.8v-2.7H190.2z"/>
		<path class="st19" d="M192.2,373.9l1.2,2.7h-0.6l-0.3-0.7h-1.2l-0.3,0.7h-0.6l1.1-2.7H192.2z M191.5,375.6h0.9l-0.5-1.1
			L191.5,375.6z"/>
		<path class="st19" d="M195.6,373.9v0.4h-1v2.3h-0.5v-2.3h-1v-0.4H195.6z"/>
		<path class="st19" d="M196.5,373.9v1.1h1.4v-1.1h0.5v2.7H198v-1.2h-1.4v1.2H196v-2.7H196.5z"/>
		<path class="st19" d="M200.1,373.9c0.3,0,0.5,0.1,0.6,0.2c0.2,0.1,0.2,0.3,0.2,0.6c0,0.2,0,0.3-0.1,0.4s-0.2,0.2-0.4,0.3
			c0.1,0,0.2,0.1,0.2,0.2c0.1,0.1,0.2,0.2,0.3,0.4c0.2,0.3,0.3,0.6,0.4,0.7h-0.6c0-0.1-0.1-0.2-0.2-0.3c-0.2-0.3-0.3-0.5-0.3-0.6
			c-0.1-0.1-0.1-0.2-0.2-0.2c-0.1,0-0.1-0.1-0.2-0.1h-0.2v1.2h-0.5v-2.7H200.1z M200,375.1c0.1,0,0.2,0,0.3-0.1
			c0.1-0.1,0.1-0.2,0.1-0.3c0-0.1,0-0.2-0.1-0.3c-0.1-0.1-0.2-0.1-0.3-0.1h-0.3v0.8H200z"/>
		<path class="st19" d="M202.9,373.9c0.3,0,0.5,0.1,0.8,0.2c0.2,0.1,0.4,0.3,0.5,0.5c0.1,0.2,0.2,0.5,0.2,0.7c0,0.3-0.1,0.5-0.2,0.7
			c-0.1,0.2-0.3,0.4-0.5,0.5c-0.2,0.1-0.5,0.2-0.8,0.2c-0.3,0-0.5-0.1-0.8-0.2c-0.2-0.1-0.4-0.3-0.5-0.5c-0.1-0.2-0.2-0.5-0.2-0.7
			c0-0.2,0.1-0.5,0.2-0.7c0.1-0.2,0.3-0.4,0.5-0.5C202.4,373.9,202.7,373.9,202.9,373.9z M202,375.3c0,0.2,0,0.3,0.1,0.5
			s0.2,0.3,0.3,0.3c0.1,0.1,0.3,0.1,0.5,0.1c0.3,0,0.5-0.1,0.7-0.3c0.2-0.2,0.3-0.4,0.3-0.7c0-0.2,0-0.3-0.1-0.5
			c-0.1-0.1-0.2-0.3-0.3-0.3c-0.1-0.1-0.3-0.1-0.5-0.1c-0.2,0-0.4,0-0.5,0.1c-0.1,0.1-0.3,0.2-0.3,0.3
			C202,374.9,202,375.1,202,375.3z"/>
		<path class="st19" d="M205.1,373.9l0.7,1.7l0.7-1.7h0.4l0.7,1.7l0.7-1.7h0.5l-1.1,2.8h-0.2l-0.9-2l-0.9,2h-0.2l-1.1-2.8H205.1z"/>
	</g>
	<g>
		<path class="st19" d="M157.2,358.9l0.7,1.7l0.7-1.7h0.4l0.7,1.7l0.7-1.7h0.5l-1.1,2.8h-0.2l-0.9-2l-0.9,2h-0.2l-1.1-2.8H157.2z"/>
		<path class="st19" d="M163.1,358.9v0.4h-1.2v0.7h1.2v0.4h-1.2v0.8h1.3v0.4h-1.8v-2.7H163.1z"/>
		<path class="st19" d="M164.4,358.9c0.3,0,0.5,0.1,0.8,0.2v0.5c-0.3-0.2-0.5-0.3-0.8-0.3c-0.1,0-0.2,0-0.3,0.1
			c-0.1,0.1-0.1,0.1-0.1,0.2c0,0.1,0.1,0.2,0.2,0.3c0,0,0.2,0.1,0.5,0.2c0.2,0.1,0.4,0.2,0.5,0.4c0.1,0.1,0.1,0.3,0.1,0.5
			c0,0.2-0.1,0.4-0.3,0.6c-0.2,0.1-0.4,0.2-0.7,0.2c-0.2,0-0.3,0-0.5-0.1c-0.1,0-0.3-0.1-0.4-0.2v-0.5c0.3,0.2,0.6,0.4,0.8,0.4
			c0.1,0,0.2,0,0.3-0.1c0.1-0.1,0.1-0.1,0.1-0.2c0-0.1-0.1-0.2-0.2-0.3c-0.1-0.1-0.3-0.1-0.4-0.2c-0.2-0.1-0.4-0.2-0.5-0.3
			c-0.1-0.1-0.2-0.3-0.2-0.5c0-0.2,0.1-0.4,0.3-0.5C163.9,359,164.1,358.9,164.4,358.9z"/>
		<path class="st19" d="M167.9,358.9v0.4h-1v2.3h-0.5v-2.3h-1v-0.4H167.9z"/>
		<path class="st19" d="M170.5,358.9c0.3,0,0.5,0.1,0.8,0.2c0.2,0.1,0.4,0.3,0.5,0.5c0.1,0.2,0.2,0.4,0.2,0.7c0,0.3-0.1,0.5-0.2,0.7
			c-0.1,0.2-0.3,0.4-0.5,0.5s-0.5,0.2-0.8,0.2h-1.1v-2.7H170.5z M170.5,361.3c0.3,0,0.5-0.1,0.7-0.3c0.2-0.2,0.3-0.4,0.3-0.7
			c0-0.3-0.1-0.5-0.3-0.7c-0.2-0.2-0.4-0.3-0.7-0.3h-0.5v1.9H170.5z"/>
		<path class="st19" d="M173.5,358.9c0.3,0,0.5,0.1,0.6,0.2c0.2,0.1,0.2,0.3,0.2,0.6c0,0.2,0,0.3-0.1,0.4s-0.2,0.2-0.4,0.3
			c0.1,0,0.2,0.1,0.2,0.2c0.1,0.1,0.2,0.2,0.3,0.4c0.2,0.3,0.3,0.6,0.4,0.7h-0.6c0-0.1-0.1-0.2-0.2-0.3c-0.2-0.3-0.3-0.5-0.3-0.6
			c-0.1-0.1-0.1-0.2-0.2-0.2c-0.1,0-0.1-0.1-0.2-0.1H173v1.2h-0.5v-2.7H173.5z M173.4,360.1c0.1,0,0.2,0,0.3-0.1
			c0.1-0.1,0.1-0.2,0.1-0.3c0-0.1,0-0.2-0.1-0.3c-0.1-0.1-0.2-0.1-0.3-0.1H173v0.8H173.4z"/>
		<path class="st19" d="M176.5,358.9l1.2,2.7h-0.6l-0.3-0.7h-1.2l-0.3,0.7h-0.6l1.1-2.7H176.5z M175.8,360.6h0.9l-0.5-1.1
			L175.8,360.6z"/>
		<path class="st19" d="M178.1,358.9l0.7,0.9l0.7-0.9h0.6l-1,1.4v1.4h-0.5v-1.4l-1-1.4H178.1z"/>
		<path class="st19" d="M182.6,358.9v0.4h-1v2.3h-0.5v-2.3h-1v-0.4H182.6z"/>
		<path class="st19" d="M184.2,358.9c0.3,0,0.5,0.1,0.8,0.2c0.2,0.1,0.4,0.3,0.5,0.5c0.1,0.2,0.2,0.5,0.2,0.7c0,0.3-0.1,0.5-0.2,0.7
			c-0.1,0.2-0.3,0.4-0.5,0.5c-0.2,0.1-0.5,0.2-0.8,0.2c-0.3,0-0.5-0.1-0.8-0.2c-0.2-0.1-0.4-0.3-0.5-0.5c-0.1-0.2-0.2-0.5-0.2-0.7
			c0-0.2,0.1-0.5,0.2-0.7c0.1-0.2,0.3-0.4,0.5-0.5C183.7,359,183.9,358.9,184.2,358.9z M183.3,360.3c0,0.2,0,0.3,0.1,0.5
			s0.2,0.3,0.3,0.3c0.1,0.1,0.3,0.1,0.5,0.1c0.3,0,0.5-0.1,0.7-0.3c0.2-0.2,0.3-0.4,0.3-0.7c0-0.2,0-0.3-0.1-0.5
			c-0.1-0.1-0.2-0.3-0.3-0.3c-0.1-0.1-0.3-0.1-0.5-0.1c-0.2,0-0.4,0-0.5,0.1c-0.1,0.1-0.3,0.2-0.3,0.3
			C183.3,360,183.3,360.1,183.3,360.3z"/>
		<path class="st19" d="M186.7,358.9l1.6,1.9v-1.9h0.5v2.7h-0.5l-1.6-1.9v1.9h-0.5v-2.7H186.7z"/>
	</g>
</g>
<g id="POP_Outs" class="st0">
</g>
</svg>
