<svg width="36" height="36" viewBox="0 0 36 36" fill="none" xmlns="http://www.w3.org/2000/svg">
<g clip-path="url(#clip0_830_988)">
<path d="M24.9152 20.2629C25.4423 19.7486 25.468 18.9257 24.9666 18.3729C24.7352 18.1157 24.4009 17.9614 24.0409 17.9486C23.668 17.9357 23.308 18.0643 23.0509 18.3086L19.3352 21.8057L19.3352 10.35C19.3352 9.60429 18.7309 9 17.9852 9C17.2395 9 16.6352 9.60428 16.6352 10.35L16.6352 21.8057L12.9195 18.3086C12.3923 17.82 11.5309 17.8329 11.0295 18.3471C10.7852 18.5914 10.6566 18.9257 10.6566 19.2729L10.6566 19.2986C10.6566 19.6586 10.8238 20.0057 11.0809 20.25L17.0466 25.8686C17.3809 26.2157 17.7409 26.2543 17.9852 26.2543C18.358 26.2543 18.7309 26.0614 18.9237 25.8814L24.9152 20.2371L24.9152 20.2629Z" fill="white"/>
<path d="M36 18C36 8.07429 27.9257 -3.52938e-07 18 -7.86805e-07C8.07429 -1.22067e-06 -3.52938e-07 8.07428 -7.86805e-07 18C-1.22067e-06 27.9257 8.07428 36 18 36C27.9257 36 36 27.9257 36 18ZM2.57143 18C2.57143 9.48857 9.48857 2.57143 18 2.57143C26.5114 2.57143 33.4286 9.48857 33.4286 18C33.4286 26.5114 26.5114 33.4286 18 33.4286C9.48857 33.4286 2.57143 26.5114 2.57143 18Z" fill="white"/>
</g>
<defs>
<clipPath id="clip0_830_988">
<rect width="36" height="36" fill="white" transform="translate(36) rotate(90)"/>
</clipPath>
</defs>
</svg>
