<svg width="28" height="28" viewBox="0 0 28 28" fill="none" xmlns="http://www.w3.org/2000/svg">
<path d="M15.76 8.6212C15.36 8.2112 14.72 8.1912 14.29 8.5812C14.09 8.7612 13.97 9.0212 13.96 9.3012C13.95 9.5912 14.05 9.8712 14.24 10.0712L16.96 12.9612H8.05C7.47 12.9612 7 13.4312 7 14.0112C7 14.5912 7.47 15.0612 8.05 15.0612H16.96L14.24 17.9512C13.86 18.3612 13.87 19.0312 14.27 19.4212C14.46 19.6112 14.72 19.7112 14.99 19.7112H15.01C15.29 19.7112 15.56 19.5812 15.75 19.3812L20.12 14.7412C20.39 14.4812 20.42 14.2012 20.42 14.0112C20.42 13.7212 20.27 13.4312 20.13 13.2812L15.74 8.6212H15.76Z" fill="#0A2882"/>
<path d="M14 0C6.28 0 0 6.28 0 14C0 21.72 6.28 28 14 28C21.72 28 28 21.72 28 14C28 6.28 21.72 0 14 0ZM14 26C7.38 26 2 20.62 2 14C2 7.38 7.38 2 14 2C20.62 2 26 7.38 26 14C26 20.62 20.62 26 14 26Z" fill="#0A2882"/>
</svg>
