<svg width="28" height="28" viewBox="0 0 28 28" fill="none" xmlns="http://www.w3.org/2000/svg">
<g clip-path="url(#clip0_1196_1271)">
<path d="M8.609 11.66C8.199 12.06 8.179 12.7 8.569 13.13C8.749 13.33 9.009 13.45 9.289 13.46C9.579 13.47 9.859 13.37 10.059 13.18L12.949 10.46L12.949 19.37C12.949 19.95 13.419 20.42 13.999 20.42C14.579 20.42 15.049 19.95 15.049 19.37L15.049 10.46L17.939 13.18C18.349 13.56 19.019 13.55 19.409 13.15C19.599 12.96 19.699 12.7 19.699 12.43L19.699 12.41C19.699 12.13 19.569 11.86 19.369 11.67L14.729 7.30005C14.469 7.03005 14.189 7.00004 13.999 7.00004C13.709 7.00004 13.419 7.15005 13.269 7.29005L8.609 11.68L8.609 11.66Z" fill="white"/>
<path d="M28 14C28 6.28 21.72 -2.74508e-07 14 -6.11959e-07C6.28 -9.49411e-07 -2.74508e-07 6.28 -6.11959e-07 14C-9.49411e-07 21.72 6.28 28 14 28C21.72 28 28 21.72 28 14ZM2 14C2 7.38 7.38 2 14 2C20.62 2 26 7.38 26 14C26 20.62 20.62 26 14 26C7.38 26 2 20.62 2 14Z" fill="white"/>
</g>
<defs>
<clipPath id="clip0_1196_1271">
<rect width="28" height="28" fill="white" transform="translate(28) rotate(90)"/>
</clipPath>
</defs>
</svg>
