<svg width="29" height="28" viewBox="0 0 29 28" fill="none" xmlns="http://www.w3.org/2000/svg">
<g clip-path="url(#clip0_666_3151)">
<path d="M16.26 8.6212C15.86 8.2112 15.22 8.1912 14.79 8.5812C14.59 8.7612 14.47 9.0212 14.46 9.3012C14.45 9.5912 14.55 9.8712 14.74 10.0712L17.46 12.9612H8.55C7.97 12.9612 7.5 13.4312 7.5 14.0112C7.5 14.5912 7.97 15.0612 8.55 15.0612H17.46L14.74 17.9512C14.36 18.3612 14.37 19.0312 14.77 19.4212C14.96 19.6112 15.22 19.7112 15.49 19.7112H15.51C15.79 19.7112 16.06 19.5812 16.25 19.3812L20.62 14.7412C20.89 14.4812 20.92 14.2012 20.92 14.0112C20.92 13.7212 20.77 13.4312 20.63 13.2812L16.24 8.6212H16.26Z" fill="#FF7A00"/>
<path d="M14.5 0C6.78 0 0.5 6.28 0.5 14C0.5 21.72 6.78 28 14.5 28C22.22 28 28.5 21.72 28.5 14C28.5 6.28 22.22 0 14.5 0ZM14.5 26C7.88 26 2.5 20.62 2.5 14C2.5 7.38 7.88 2 14.5 2C21.12 2 26.5 7.38 26.5 14C26.5 20.62 21.12 26 14.5 26Z" fill="#FF7A00"/>
</g>
<defs>
<clipPath id="clip0_666_3151">
<rect width="28" height="28" fill="white" transform="translate(0.5)"/>
</clipPath>
</defs>
</svg>
