<?xml version="1.0" encoding="utf-8"?>
<!-- Generator: Adobe Illustrator 26.0.2, SVG Export Plug-In . SVG Version: 6.00 Build 0)  -->
<svg version="1.1" xmlns="http://www.w3.org/2000/svg" xmlns:xlink="http://www.w3.org/1999/xlink" x="0px" y="0px"
	 viewBox="0 0 1396.03 595.39" style="enable-background:new 0 0 1396.03 595.39;" xml:space="preserve">
<style type="text/css">
	.st0{fill:#FF8200;}
</style>
<g id="Clearspace">
</g>
<g id="Logo">
	<g>
		<path class="st0" d="M455.85,288.39c4.86,0,9.47,0.05,14.08-0.02c1.88-0.03,3.8-0.15,5.64-0.54c6.38-1.35,11.03-4.92,12.6-11.65
			c0.61-2.67,0.82-5.54,0.62-8.27c-0.41-5.49-2.7-10.04-7.52-12.94c-2.51-1.52-5.27-2.45-8.18-2.57c-5.11-0.21-10.22-0.22-15.33-0.3
			c-0.63,0-1.26,0.09-1.92,0.14V288.39z M488.77,313.36c12.85,19.27,25.59,38.38,38.53,57.77h-36.24
			c-11.59-19.44-23.24-38.98-35.2-59.05v59.06h-29.15v-147.4h2.16c13.45,0,26.89-0.02,40.34,0.01c8.27,0.02,16.45,0.79,24.27,3.79
			c14.45,5.53,22.87,16.24,25.65,31.65c1.62,9.01,1.51,18-1.67,26.69c-4.71,12.85-13.75,21.32-26.04,26.38
			C490.59,312.6,489.76,312.95,488.77,313.36"/>
		<path class="st0" d="M308.9,249.73v33.12c2.61,0,5.07,0.13,7.52-0.03c2.12-0.14,4.25-0.44,6.31-0.95
			c8.18-2,13.97-6.61,13.42-17.49c-0.2-3.94-1.45-7.53-4.64-9.88c-1.94-1.44-4.23-2.59-6.54-3.32
			C319.83,249.56,314.48,249.55,308.9,249.73 M308.87,344.91c4.88,0,9.63,0.16,14.37-0.05c4.01-0.17,7.96-0.99,11.65-2.76
			c3.92-1.88,6.83-4.79,7.91-9.09c2.35-9.29,0.02-20.42-12.4-24.33c-7.02-2.21-14.22-1.84-21.53-1.87V344.91z M349.21,291.72
			c16.09,5.32,23.28,19.1,23.47,33.47c0.13,10.03-2.24,19.31-7.84,27.59c-6.15,9.09-14.81,14.28-25.23,16.62
			c-6.21,1.41-12.53,1.66-18.85,1.69c-12.91,0.09-25.81,0.03-38.71,0.03h-1.54V223.85c0.55-0.03,1.08-0.11,1.63-0.11
			c12.74,0.02,25.48-0.01,38.22,0.1c10.83,0.1,20.94,2.72,29.69,9.62c10.88,8.59,15.2,20.1,13.95,33.9
			c-0.29,3.23-1.06,6.47-2.05,9.56c-1.9,5.88-5.67,10.35-10.81,13.58C350.6,290.83,350.06,291.18,349.21,291.72"/>
		<path class="st0" d="M1040.21,290.16c-3.61-4.55-8.85-6.96-14.6-6.94c-6.88,0.02-12.05,2.59-15.09,10.23
			c-0.62,1.54-1.08,3.16-1.47,4.78c-1.75,7.43-1.54,15.02-1.49,22.58c0.04,5.47,0.32,10.92,1.57,16.26
			c1.62,6.96,5.58,11.5,12.77,12.42c7.41,0.94,13.85-0.75,18.31-7.46V290.16z M1039.91,364.05c-3.4,2.85-7.15,5.08-11.36,6.3
			c-14.41,4.15-34.89-0.15-44.56-19.79c-3.44-6.98-5.36-14.39-6.09-22.16c-1.1-11.57-0.47-23,2.56-34.24
			c2.25-8.38,5.8-16.05,11.82-22.35c7.02-7.36,15.7-10.74,25.59-11.16c4.95-0.22,9.82,0.16,14.53,1.99
			c4.29,1.66,8.02,4.17,11.45,7.52c0.76-2.6,1.48-5.08,2.21-7.53h23.37c-0.22,1.11-0.4,2.06-0.6,3.01
			c-1.77,8.42-2.48,16.95-2.49,25.55c-0.04,26.11,0.01,52.21-0.03,78.32c-0.01,6.56-0.43,13.08-1.8,19.54
			c-2.25,10.62-8.35,17.76-18.06,21.92c-5.5,2.35-11.24,3.63-17.11,4.38c-17.25,2.19-33.13-2.41-48.38-10.21
			c-0.14-0.07-0.22-0.24-0.46-0.52c2.13-6.3,4.3-12.68,6.52-19.19c2.93,1.38,5.7,2.8,8.55,3.99c8.35,3.49,16.99,5.71,26.1,5.13
			c2.45-0.15,4.91-0.45,7.3-0.98c6.27-1.39,9.96-5.31,10.64-11.9c0.58-5.75,0.62-11.56,0.89-17.36
			C1040.31,364.23,1040.1,364.14,1039.91,364.05"/>
		<path class="st0" d="M1079.43,221.68c9.46-2.27,18.71-4.49,28.23-6.77c0.35,2.46,0.86,4.83,1.01,7.21
			c0.36,5.62,0.66,11.25,0.76,16.89c0.13,7.24,0.03,14.49,0.03,21.72v10.43c0.34-0.23,0.78-0.51,1.19-0.82
			c12.1-9.26,25.47-12.45,40.15-8.27c6.79,1.94,12.34,5.9,15.17,12.9c1.95,4.79,2.84,9.86,2.86,15.01
			c0.1,26.78,0.08,53.56,0.1,80.34c0,0.24-0.08,0.47-0.14,0.81h-26.99v-2.78c0-23.5,0.01-47-0.02-70.49c0-1.76-0.17-3.53-0.44-5.26
			c-1.06-6.71-4.66-8.94-10.9-8.54c-8.11,0.52-14.77,4.55-20.93,9.77v77.25h-28.12v-2.96c0-36.63,0.01-73.27,0-109.91
			C1081.39,246.11,1081.79,233.98,1079.43,221.68"/>
		<path class="st0" d="M580.86,323.32c-4.89-0.02-9.54-0.07-14.13,0.92c-1.91,0.41-3.83,0.96-5.62,1.73
			c-3.47,1.49-5.62,4.21-6.48,7.99c-0.7,3.07-0.85,6.17-0.29,9.24c1.39,7.66,7.7,11.81,15.13,10.08c4.4-1.02,7.88-3.56,10.91-6.9
			C580.53,338.73,580.7,331.12,580.86,323.32 M617.76,358.67c-4.85,5.75-9.67,11.47-14.63,17.34c-6.18-2.72-11.32-6.65-14.85-12.83
			c-0.81,0.71-1.56,1.32-2.23,2c-4.67,4.67-10.26,7.51-16.66,8.57c-8.89,1.45-17.69,1.1-26.2-2.23
			c-10.54-4.12-16.39-12.15-18.13-23.44c-1.05-6.82-0.86-13.62,1.2-20.22c3.07-9.84,9.9-15.99,19.08-19.66
			c5.62-2.25,11.47-3.55,17.47-3.98c6.05-0.43,12.11-0.57,18.39-0.85c0.19-4.52,0.3-9.2-1.04-13.75c-1.14-3.88-4.15-5.81-8.97-6.12
			c-5.43-0.35-10.59,0.86-15.63,2.81c-6.02,2.33-11.51,5.68-17.06,9.4c-3.89-6.71-7.77-13.41-11.81-20.38
			c2.19-1.3,4.23-2.65,6.39-3.78c9.16-4.76,18.53-8.96,28.79-10.53c10.11-1.55,20.15-1.48,29.8,2.53c9.66,4,15.41,11.28,16.37,21.99
			c0.5,5.6,0.45,11.26,0.41,16.9c-0.09,12.28-0.29,24.57-0.53,36.86c-0.14,7.4,2.39,13.45,8.21,17.96
			C616.63,357.65,617.12,358.1,617.76,358.67"/>
		<path class="st0" d="M869.99,304.46h31.54c0.21-3.84,0.19-7.53-0.66-11.15c-0.87-3.75-2.45-7.14-5.54-9.55
			c-7.5-5.85-18.78-2.76-22.81,6.28C870.51,294.55,869.88,299.36,869.99,304.46 M930.64,325.47h-61.08
			c-0.06,6.59,0.86,12.74,4.44,18.15c3.79,5.73,9.38,8.2,15.94,8.57c9.32,0.51,17.57-2.61,25.1-8.06c1.12-0.81,2.22-1.69,3.43-2.63
			c3.6,5.67,7.12,11.22,10.72,16.89c-3.64,3.25-7.59,5.91-11.79,8.14c-13.97,7.38-28.63,9.05-43.7,4.68
			c-14.65-4.25-24.39-14.28-29.9-28.71c-3.59-9.41-4.44-19.25-4.12-29.25c0.21-6.48,0.81-12.92,2.66-19.16
			c4.27-14.35,12.6-25.17,26.4-30.94c7.46-3.12,15.31-3.51,23.26-2.64c5.51,0.6,10.77,2.09,15.73,4.62
			c8.86,4.52,14.34,12.08,17.92,21.24c2.29,5.89,3.59,12.07,4.01,18.38C930.14,311.53,930.33,318.33,930.64,325.47"/>
		<path class="st0" d="M752.13,263.31h26.8c-2.41,6.69-4.67,13.01-7,19.46h-19.42v88.38h-27.1v-88.26h-9.3V263.4h9.73
			c-0.26-2.96-0.5-5.68-0.71-8.41c-0.53-6.84-0.39-13.64,1.87-20.19c3.53-10.23,10.82-16.3,20.95-18.58
			c11.84-2.67,23.32-1.33,34.15,4.52c0.43,0.23,0.85,0.51,1.26,0.78c0.13,0.08,0.21,0.25,0.4,0.48c-2.87,5.68-5.75,11.41-8.74,17.32
			c-1.27-0.56-2.48-1.22-3.76-1.64c-2.25-0.72-4.52-1.69-6.83-1.84c-7.09-0.48-11.53,3.57-12.24,10.79
			c-0.08,0.76-0.05,1.52-0.05,2.27C752.13,253.62,752.13,258.32,752.13,263.31"/>
		<path class="st0" d="M1187.28,281.99h-10.26v-19.37h10.01c0.33-8.64,0.65-17.07,0.97-25.6c9.55-2.45,18.74-4.81,28.13-7.23
			c-0.55,10.86-1.07,21.62-1.62,32.69h24.94c-2.41,6.72-4.69,13.04-7.02,19.51h-17.67v2.64c0,16.75-0.03,33.51,0.03,50.26
			c0.01,3.27,0.18,6.57,0.59,9.81c0.71,5.6,3.68,8.15,9.21,8.53c3.26,0.22,6.36-0.43,9.45-1.33c0.76-0.22,1.53-0.42,2.51-0.69
			c1.18,5.66,2.33,11.22,3.52,16.89c-4.25,1.99-8.64,3.29-13.15,4.08c-7.62,1.35-15.22,1.37-22.6-1.32
			c-2.59-0.95-5.14-2.24-7.44-3.79c-5.73-3.84-8.62-9.52-9.23-16.42c-0.25-2.76-0.35-5.54-0.35-8.31
			c-0.04-19.11-0.02-38.22-0.02-57.33V281.99z"/>
		<path class="st0" d="M710.47,353.25c1.58,5.67,3.13,11.21,4.72,16.86c-5.98,2.39-12.03,3.13-18.23,2.94
			c-3.39-0.1-6.66-0.8-9.83-2.02c-8.06-3.11-12.99-9.08-14.4-17.67c-0.83-5.11-1.03-10.38-1.05-15.58
			c-0.09-30.31,0.06-60.64-0.1-90.96c-0.04-8.31-0.86-16.62-1.31-24.93c-0.01-0.24,0.06-0.48,0.12-0.94
			c9.29-2.15,18.61-4.31,28.36-6.57c0.36,4.81,0.96,9.3,0.98,13.79c0.15,36.38,0.17,72.76,0.29,109.14
			c0.01,3.19,0.13,6.41,0.62,9.54c0.86,5.45,3.54,7.28,8.83,6.49C709.7,353.32,709.94,353.3,710.47,353.25"/>
		<path class="st0" d="M847.99,263.13c-2.54,8.32-5.03,16.46-7.56,24.73c-10.32-4.61-18.14-0.6-25.05,7.21v76.08h-27.54v-2.66
			c0-22.32,0-44.63,0-66.95c0-7.41-0.12-14.81-1.29-22.13c-0.57-3.56-1.47-7.05-2.22-10.57c-0.09-0.39-0.19-0.78-0.34-1.41
			c8.25-2.25,16.37-4.47,24.62-6.74c2.73,4.56,3.89,9.45,4.39,15.01c1.14-1.34,2.03-2.38,2.93-3.41c4.62-5.31,9.95-9.59,16.91-11.04
			C837.93,260.2,842.97,260.45,847.99,263.13"/>
		<g>
			<path class="st0" d="M626.76,371.14V265.15c9.17-1.47,18.27-2.93,27.52-4.41v110.41H626.76z"/>
			<path class="st0" d="M640.97,216.04c9.42,0.01,16.65,7.75,16.62,17.78c-0.04,9.58-7.58,17.31-16.9,17.35
				c-9.39,0.03-17.12-7.53-17.11-17.67C623.59,223.75,631.39,216.03,640.97,216.04"/>
		</g>
		<g>
			<path class="st0" d="M967.01,371.14h-27.3V265.08c9.02-1.45,18.08-2.91,27.3-4.39V371.14z"/>
			<path class="st0" d="M936.5,233.51c0.01-9.74,7.7-17.54,17.29-17.52c9.3,0.02,16.73,7.77,16.76,17.47
				c0.02,9.77-7.61,17.63-17.16,17.67C944,251.15,936.49,243.31,936.5,233.51"/>
		</g>
		<path class="st0" d="M265.75,265.63h-32.55c-2.07-3.18-3.8-6.34-6-9.11c-7.61-9.58-21.82-9.55-29.7,0.68
			c-3.84,4.99-6.17,10.68-7.51,16.8c-3.56,16.19-3.54,32.36,0.71,48.42c1.34,5.05,3.5,9.75,6.71,13.91
			c7.94,10.29,20.76,10.89,29.43,1.27c3.91-4.33,6.09-9.62,7.85-15.5h-11.58H211.9v-28.24h57.09c0.08,0.29,0.26,0.68,0.26,1.06
			c0.29,14.48-1.2,28.71-6.16,42.39c-3.35,9.24-8.18,17.55-15.23,24.41c-7.49,7.29-16.33,11.71-26.52,13.26
			c-10.19,1.55-20.13,0.64-29.65-3.58c-10.4-4.6-18.1-12.28-23.85-22.14c-5.01-8.61-8.02-17.98-9.79-27.79
			c-2.51-13.93-2.67-27.94-0.9-41.95c1.65-13.12,5.18-25.66,12.54-36.74c8.63-13.03,20.47-20.79,35.87-22.59
			c13.98-1.63,26.96,0.96,38.4,9.74c8.16,6.26,13.72,14.61,17.66,24.11C263.15,257.71,264.31,261.55,265.75,265.63"/>
		<rect x="155.97" y="155.97" class="st0" width="1084.1" height="11.76"/>
		<polygon class="st0" points="155.97,427.67 155.97,433.6 155.97,439.43 1240.06,439.43 1240.06,427.67 		"/>
	</g>
</g>
</svg>
