<svg width="922" height="958" viewBox="0 0 922 958" fill="none" xmlns="http://www.w3.org/2000/svg">
<rect x="514" y="425" width="159" height="2" rx="1" transform="rotate(-90 514 425)" fill="#FFA652"/>
<path d="M920 16C919.448 16 919 15.5523 919 15L919 0L921 -8.74228e-08L921 15C921 15.5523 920.552 16 920 16Z" fill="#FFA652"/>
<rect x="631" y="135" width="147" height="2" rx="1" fill="#FFA652"/>
<rect x="200" y="940" width="147" height="2" rx="1" fill="#FFA652"/>
<rect x="33" y="940" width="147" height="2" rx="1" fill="#FFA652"/>
<rect x="531" y="782" width="111" height="2" rx="1" fill="#FFA652"/>
<rect x="514" y="615" width="159" height="2" rx="1" transform="rotate(-90 514 615)" fill="#FFA652"/>
<rect x="514" y="794" width="159" height="2" rx="1" transform="rotate(-90 514 794)" fill="#FFA652"/>
<rect x="519" y="247.43" width="159" height="2" rx="1" transform="rotate(-45 519 247.43)" fill="#FFA652"/>
<rect x="807" y="126.43" width="159.761" height="2" rx="1" transform="rotate(-45 807 126.43)" fill="#FFA652"/>
<rect x="364.002" y="933.969" width="197.966" height="2" rx="1" transform="rotate(-45 364.002 933.969)" fill="#FFA652"/>
<circle cx="515" cy="256" r="10" fill="#FF7A00" stroke="#FFA652" stroke-width="2"/>
<circle cx="515" cy="625" r="10" fill="#FF7A00" stroke="#FFA652" stroke-width="2"/>
<circle cx="357" cy="941" r="10" fill="#FF7A00" stroke="#FFA652" stroke-width="2"/>
<circle cx="190" cy="941" r="10" fill="#FF7A00" stroke="#FFA652" stroke-width="2"/>
<circle cx="515" cy="782" r="16" fill="#FF7A00" stroke="#FFA652" stroke-width="2"/>
<circle cx="17" cy="941" r="16" fill="#FF7A00" stroke="#FFA652" stroke-width="2"/>
<circle cx="794" cy="135" r="16" fill="#FF7A00" stroke="#FFA652" stroke-width="2"/>
<circle cx="515" cy="440" r="16" fill="#FF7A00" stroke="#FFA652" stroke-width="2"/>
</svg>
