<svg width="921" height="958" viewBox="0 0 921 958" fill="none" xmlns="http://www.w3.org/2000/svg">
<path d="M920 16C919.448 16 919 15.5523 919 15L919 0L921 -8.74228e-08L921 15C921 15.5523 920.552 16 920 16Z" fill="#C7CED2"/>
<rect width="147" height="2" rx="1" transform="matrix(-1 0 0 1 398.383 135)" fill="#C7CED2"/>
<rect x="200" y="940" width="157" height="2" rx="1" fill="#C7CED2"/>
<rect x="33" y="940" width="147" height="2" rx="1" fill="#C7CED2"/>
<rect x="525" y="725" width="117" height="2" rx="1" fill="#C7CED2"/>
<rect x="514" y="784" width="518" height="2.00002" rx="1.00001" transform="rotate(-90 514 784)" fill="#C7CED2"/>
<rect width="159" height="2" rx="1" transform="matrix(-0.707107 -0.707107 -0.707107 0.707107 510.383 247.43)" fill="#C7CED2"/>
<rect width="159.761" height="2" rx="1" transform="matrix(-0.707107 -0.707107 -0.707107 0.707107 222.383 126.43)" fill="#C7CED2"/>
<rect x="374" y="933.969" width="197.966" height="2" rx="1" transform="rotate(-45 374 933.969)" fill="#C7CED2"/>
<circle cx="515" cy="256" r="10" fill="white" stroke="#C7CED2" stroke-width="2"/>
<circle cx="515" cy="794" r="10" fill="white" stroke="#C7CED2" stroke-width="2"/>
<circle cx="515" cy="725" r="10" fill="white" stroke="#C7CED2" stroke-width="2"/>
<circle cx="515" cy="597" r="10" fill="white" stroke="#C7CED2" stroke-width="2"/>
<circle cx="367" cy="941" r="10" fill="white" stroke="#C7CED2" stroke-width="2"/>
<circle cx="190" cy="941" r="10" fill="white" stroke="#C7CED2" stroke-width="2"/>
<circle cx="515" cy="442" r="16" fill="white" stroke="#C7CED2" stroke-width="2"/>
<circle cx="17" cy="941" r="16" fill="white" stroke="#C7CED2" stroke-width="2"/>
<circle r="16" transform="matrix(-1 0 0 1 235.383 135)" fill="white" stroke="#C7CED2" stroke-width="2"/>
</svg>
