<svg width="48" height="48" viewBox="0 0 48 48" fill="none" xmlns="http://www.w3.org/2000/svg">
<g clip-path="url(#clip0_1184_335)">
<path d="M28.0941 5.92656H35.3466C35.7816 5.92656 36.1341 5.57406 36.1341 5.13906C36.1341 4.70406 35.7816 4.35156 35.3466 4.35156H28.0941C27.6591 4.35156 27.3066 4.70406 27.3066 5.13906C27.3066 5.57406 27.6591 5.92656 28.0941 5.92656Z" fill="#6476FA"/>
<path d="M12.6527 5.92656H19.9052C20.3402 5.92656 20.6927 5.57406 20.6927 5.13906C20.6927 4.70406 20.3402 4.35156 19.9052 4.35156H12.6527C12.2177 4.35156 11.8652 4.70406 11.8652 5.13906C11.8652 5.57406 12.2177 5.92656 12.6527 5.92656Z" fill="#6476FA"/>
<path d="M47.805 4.63656C47.805 4.63656 47.7825 4.59906 47.7675 4.58406C47.76 4.57656 47.745 4.56906 47.73 4.56156C47.5875 4.43406 47.4075 4.35156 47.205 4.35156H42.9525C42.5175 4.35156 42.165 4.70406 42.165 5.13906C42.165 5.57406 42.5175 5.92656 42.9525 5.92656H46.4175V15.1216H1.575V5.92656H5.04C5.475 5.92656 5.8275 5.57406 5.8275 5.13906C5.8275 4.70406 5.475 4.35156 5.04 4.35156H0.7875C0.3525 4.35156 0 4.70406 0 5.13906V47.2141C0 47.3191 0.0225 47.4241 0.06 47.5216C0.0675 47.5441 0.09 47.5591 0.0975 47.5816C0.135 47.6491 0.1725 47.7166 0.225 47.7766C0.2475 47.7991 0.2775 47.8066 0.3 47.8291C0.3525 47.8741 0.405 47.9191 0.4725 47.9416C0.57 47.9791 0.6675 48.0016 0.78 48.0016H47.2125C47.625 48.0016 47.955 47.6791 47.985 47.2741C47.985 47.2516 48 47.2366 48 47.2141V5.13906C48 4.94406 47.925 4.77156 47.805 4.63656ZM46.425 16.6966V46.4266H1.575V16.6891H46.425V16.6966Z" fill="#6476FA"/>
<path d="M8.55703 10.1325C8.99203 10.1325 9.34453 9.78 9.34453 9.345V0.7875C9.34453 0.3525 8.99203 0 8.55703 0C8.12203 0 7.76953 0.3525 7.76953 0.7875V9.345C7.76953 9.78 8.12203 10.1325 8.55703 10.1325Z" fill="white"/>
<path d="M24.0004 10.1325C24.4354 10.1325 24.7879 9.78 24.7879 9.345V0.7875C24.7879 0.3525 24.4354 0 24.0004 0C23.5654 0 23.2129 0.3525 23.2129 0.7875V9.345C23.2129 9.78 23.5654 10.1325 24.0004 10.1325Z" fill="white"/>
<path d="M39.4418 10.1325C39.8768 10.1325 40.2293 9.78 40.2293 9.345V0.7875C40.2293 0.3525 39.8768 0 39.4418 0C39.0068 0 38.6543 0.3525 38.6543 0.7875V9.345C38.6543 9.78 39.0068 10.1325 39.4418 10.1325Z" fill="white"/>
</g>
<defs>
<clipPath id="clip0_1184_335">
<rect width="48" height="48" fill="white"/>
</clipPath>
</defs>
</svg>
