<svg width="11" height="7" viewBox="0 0 11 7" fill="none" xmlns="http://www.w3.org/2000/svg">
<path d="M0.672558 6.21626C0.758257 6.30428 0.86267 6.37492 0.979237 6.42375C1.0958 6.47259 1.22201 6.49856 1.34992 6.50003C1.60979 6.50759 1.86266 6.42125 2.05512 6.25926L5.51618 3.24099C5.59041 3.1808 5.71104 3.06041 5.89661 3.24099L9.35767 6.25926C9.54706 6.41785 9.79463 6.50349 10.0498 6.49869C10.305 6.4939 10.5487 6.39903 10.731 6.23346C10.8215 6.14907 10.8922 6.04818 10.9385 5.93717C10.9849 5.82615 11.0058 5.70744 11 5.58853C10.991 5.34763 10.8812 5.11945 10.6938 4.9522L6.36056 1.19442C6.27245 1.11109 6.16695 1.04524 6.05051 1.00089C5.93405 0.95654 5.80908 0.934616 5.6832 0.936451C5.43572 0.943863 5.19905 1.0322 5.01511 1.18582L0.718952 4.9522C0.62174 5.02972 0.542922 5.12506 0.487471 5.23222C0.432019 5.33938 0.401139 5.45603 0.396779 5.57481C0.39242 5.69358 0.414676 5.81191 0.462142 5.92231C0.509607 6.03272 0.581253 6.13281 0.672558 6.21626Z" fill="white"/>
</svg>
