<svg width="26" height="26" viewBox="0 0 26 26" fill="none" xmlns="http://www.w3.org/2000/svg">
<circle cx="13" cy="13" r="12.5" stroke="#0A2882"/>
<path d="M13.0029 8.08098C14.6013 8.08098 14.7911 8.08098 15.4236 8.11548C15.8043 8.12245 16.1812 8.19239 16.5391 8.32247C16.7996 8.41867 17.0354 8.5719 17.2291 8.77096C17.4287 8.96415 17.582 9.20004 17.6775 9.46095C17.8076 9.8188 17.8776 10.1957 17.8846 10.5764C17.9133 11.2089 17.9191 11.3987 17.9191 12.9971C17.9191 14.5956 17.9191 14.7911 17.8846 15.4236C17.8776 15.8043 17.8076 16.1812 17.6775 16.5391C17.582 16.8 17.4287 17.0358 17.2291 17.229C17.0354 17.4281 16.7996 17.5813 16.5391 17.6775C16.1812 17.8076 15.8043 17.8776 15.4236 17.8845C14.7911 17.9133 14.6013 17.919 13.0029 17.919C11.4044 17.919 11.2089 17.919 10.5764 17.8845C10.1957 17.8776 9.81882 17.8076 9.46097 17.6775C9.20183 17.5785 8.96665 17.4257 8.77097 17.229C8.57309 17.0344 8.42006 16.7989 8.3225 16.5391C8.19242 16.1812 8.12245 15.8043 8.11548 15.4236C8.11548 14.7911 8.08098 14.6013 8.08098 12.9971C8.08098 11.3929 8.08098 11.2089 8.11548 10.5764C8.12245 10.1957 8.19242 9.8188 8.3225 9.46095C8.42006 9.20108 8.57309 8.96562 8.77097 8.77096C8.96665 8.57434 9.20183 8.42148 9.46097 8.32247C9.81882 8.19239 10.1957 8.12245 10.5764 8.11548C11.2089 8.08673 11.3987 8.08098 13.0029 8.08098ZM13.0029 7C11.3699 7 11.1687 7 10.5247 7.0345C10.0273 7.0448 9.53528 7.1401 9.06998 7.31625C8.67087 7.46897 8.30843 7.70407 8.00626 8.00624C7.7041 8.3084 7.469 8.67085 7.31627 9.06995C7.14235 9.53588 7.04711 10.0275 7.0345 10.5247C7.0345 11.1687 7 11.3699 7 12.9971C7 14.6243 7 14.8313 7.0345 15.4753C7.04711 15.9725 7.14235 16.4641 7.31627 16.93C7.46628 17.3305 7.7017 17.6935 8.00623 17.9938C8.30751 18.297 8.67023 18.5323 9.06998 18.6838C9.53528 18.8599 10.0273 18.9552 10.5247 18.9655C11.1687 18.9943 11.3699 19 13.0029 19C14.6358 19 14.8371 19 15.4754 18.9655C15.9728 18.9558 16.4649 18.8605 16.9301 18.6838C17.3305 18.5338 17.6935 18.2983 17.9938 17.9938C18.3001 17.695 18.5358 17.3316 18.6838 16.93C18.8605 16.4649 18.9558 15.9728 18.9655 15.4753C18.9943 14.8313 19 14.6301 19 12.9971C19 11.3642 19 11.1687 18.9655 10.5247C18.9558 10.0272 18.8605 9.5351 18.6838 9.06995C18.5342 8.67364 18.3035 8.31293 18.0065 8.01094C17.7094 7.70895 17.3526 7.47233 16.9588 7.31625C16.4937 7.13955 16.0016 7.04424 15.5041 7.0345C14.8659 7.0345 14.6589 7 13.0317 7" fill="#0A2882"/>
<path d="M13.0053 9.56641C12.3266 9.56515 11.6629 9.76531 11.0981 10.1415C10.5333 10.5178 10.0928 11.0532 9.83253 11.6799C9.57224 12.3066 9.50379 12.9965 9.63588 13.6621C9.76797 14.3278 10.0946 14.9393 10.5745 15.4191C11.0544 15.899 11.6659 16.2256 12.3316 16.3577C12.9972 16.4898 13.6871 16.4214 14.3139 16.1611C14.9407 15.9008 15.4761 15.4604 15.8523 14.8956C16.2286 14.3308 16.4287 13.6671 16.4275 12.9885C16.4275 12.0809 16.0669 11.2105 15.4251 10.5687C14.7833 9.92694 13.9129 9.56641 13.0053 9.56641ZM13.0053 15.2144C12.5647 15.2169 12.1334 15.0887 11.7658 14.8459C11.3982 14.6032 11.1109 14.2568 10.9402 13.8507C10.7696 13.4445 10.7233 12.9969 10.8072 12.5644C10.8912 12.132 11.1015 11.7342 11.4117 11.4213C11.7219 11.1085 12.1178 10.8947 12.5496 10.8071C12.9813 10.7194 13.4293 10.7618 13.8369 10.9289C14.2445 11.0961 14.5934 11.3804 14.8393 11.7458C15.0853 12.1113 15.2172 12.5415 15.2185 12.9821C15.2185 13.5713 14.9848 14.1365 14.5688 14.5538C14.1527 14.971 13.5882 15.2063 12.9989 15.208" fill="#0A2882"/>
<path d="M17.2846 9.56474C17.2859 9.73474 17.2366 9.9013 17.1429 10.0432C17.0493 10.1851 16.9155 10.296 16.7586 10.3617C16.6017 10.4273 16.4288 10.4449 16.2619 10.412C16.095 10.3792 15.9417 10.2975 15.8214 10.1773C15.7011 10.057 15.6193 9.90378 15.5865 9.73697C15.5536 9.57016 15.5711 9.39736 15.6369 9.24055C15.7026 9.08374 15.8135 8.95002 15.9555 8.85641C16.0975 8.7628 16.2641 8.71353 16.4342 8.71487C16.6598 8.71487 16.8761 8.80441 17.0355 8.96379C17.195 9.12317 17.2846 9.33934 17.2846 9.56474Z" fill="#0A2882"/>
</svg>
