<svg width="26" height="26" viewBox="0 0 26 26" fill="none" xmlns="http://www.w3.org/2000/svg">
<circle cx="13" cy="13" r="12.5" stroke="#0A2882"/>
<path d="M10.3729 9.3125H7.56055V17.7593H10.3729V9.3125Z" fill="#0A2882"/>
<path d="M8.95478 8.36958C9.23339 8.37195 9.50642 8.29142 9.73923 8.13822C9.97204 7.98501 10.1541 7.76604 10.2624 7.50907C10.3707 7.25211 10.4003 6.96875 10.3474 6.69494C10.2945 6.42113 10.1615 6.16923 9.9653 5.97119C9.76913 5.77315 9.51862 5.63791 9.24553 5.58262C8.97243 5.52734 8.68906 5.5545 8.43142 5.66067C8.17378 5.76683 7.95347 5.94722 7.79843 6.17893C7.64338 6.41064 7.56057 6.68322 7.56056 6.9621C7.55977 7.14615 7.59523 7.32856 7.66487 7.49889C7.73451 7.66923 7.83696 7.82417 7.96643 7.95487C8.09589 8.08556 8.24983 8.18945 8.41941 8.26061C8.58898 8.33176 8.7709 8.36879 8.95478 8.36958Z" fill="#0A2882"/>
<path d="M13.9151 13.4588C13.9151 12.3064 14.4804 11.6175 15.5626 11.6175C16.6448 11.6175 17.0446 12.2613 17.0446 13.4588V17.7593H19.7466V12.5703C19.7466 10.375 18.4163 9.31277 16.5552 9.31277C16.0268 9.30592 15.5055 9.42754 15.0427 9.66569C14.5798 9.90385 14.1912 10.2504 13.9151 10.6712V9.56385H11.3096V17.7593H13.9151V13.4588Z" fill="#0A2882"/>
</svg>
