<svg width="194" height="48" viewBox="0 0 194 48" fill="none" xmlns="http://www.w3.org/2000/svg">
<g clip-path="url(#clip0_1804_2720)">
<path d="M0.0234375 46.9495V47.9995H193.959V45.8828H0.0234375V46.9495Z" fill="#0A2882"/>
<path d="M193.951 0H0.03125V2.10003H193.951V0Z" fill="#0A2882"/>
<path d="M64.6973 21.5201C65.2646 19.9618 65.286 18.351 64.9964 16.7354C64.5003 13.972 62.9977 12.0533 60.4222 11.0605C59.0265 10.5236 57.5738 10.3852 56.0949 10.3828C53.6975 10.3828 51.3 10.3828 48.9025 10.3828H48.5156V36.805H53.7141V26.2166C55.8504 29.8153 57.9227 33.3161 59.9902 36.8026H66.4515L59.5819 26.4457L60.0567 26.25C62.2453 25.3431 63.8546 23.8254 64.6973 21.5201ZM59.4751 19.7804C59.195 20.988 58.369 21.6275 57.2296 21.8685C56.898 21.9335 56.5609 21.9662 56.2231 21.9664C55.4018 21.9664 54.5781 21.9664 53.7117 21.9664V15.4897C53.8304 15.4897 53.9491 15.4635 54.0559 15.4635C54.965 15.4778 55.8789 15.4825 56.7881 15.5183C57.3065 15.548 57.8089 15.7098 58.2479 15.9885C58.6449 16.2304 58.975 16.5687 59.2081 16.9724C59.4412 17.376 59.5697 17.832 59.5819 18.2985C59.6189 18.7951 59.5829 19.2944 59.4751 19.7804Z" fill="#0A2882"/>
<path d="M36.8638 19.8835C37.0469 19.3249 37.1695 18.748 37.2293 18.1629C37.4548 15.681 36.681 13.6096 34.7321 12.0656C33.1679 10.8247 31.3591 10.3522 29.4197 10.3355C27.1386 10.314 24.8598 10.3212 22.581 10.3164C22.4837 10.3164 22.3888 10.3307 22.2891 10.3379V36.8269H22.5644C24.8741 36.8269 27.1813 36.8269 29.491 36.8269C30.6234 36.8461 31.7545 36.7404 32.864 36.5119C34.7274 36.0895 36.2774 35.1564 37.3741 33.5217C38.3462 32.0553 38.836 30.3192 38.7746 28.558C38.7414 25.9759 37.4548 23.4965 34.5755 22.5371L34.922 22.3176C35.8395 21.7675 36.5289 20.9033 36.8638 19.8835ZM27.3688 14.9914C28.3682 14.9603 29.3272 14.9627 30.2458 15.2539C30.6656 15.3872 31.061 15.5887 31.416 15.8505C31.9857 16.2752 32.2089 16.9196 32.2469 17.6283C32.3442 19.5852 31.2974 20.4156 29.8446 20.7736C29.474 20.8655 29.0958 20.923 28.7147 20.9454C28.278 20.9741 27.8365 20.9454 27.3688 20.9454V14.9914ZM33.4385 29.9732C33.3416 30.3374 33.1628 30.6745 32.9158 30.9583C32.6689 31.2421 32.3604 31.4652 32.0142 31.6102C31.3602 31.916 30.6511 32.0848 29.9301 32.1066C29.0827 32.1448 28.2305 32.1066 27.357 32.1066V25.26C28.6673 25.26 29.9681 25.198 31.2119 25.5965C33.4385 26.3005 33.8562 28.3027 33.4361 29.9732H33.4385Z" fill="#0A2882"/>
<path d="M156.231 40.8693C155.8 40.9629 155.363 41.0219 154.923 41.0459C153.292 41.1509 151.747 40.75 150.251 40.1224C149.741 39.9076 149.247 39.6451 148.723 39.4065C148.326 40.5782 147.937 41.726 147.557 42.8596C147.6 42.9097 147.614 42.9407 147.638 42.9526C150.365 44.3558 153.209 45.1839 156.295 44.7902C157.348 44.6736 158.38 44.4085 159.359 44.0027C160.188 43.6775 160.92 43.1442 161.486 42.4536C162.052 41.763 162.432 40.9382 162.59 40.0579C162.818 38.9006 162.926 37.7226 162.913 36.5428C162.913 31.8463 162.913 27.1499 162.913 22.463C162.904 20.9196 163.054 19.3795 163.359 17.8668C163.395 17.695 163.428 17.5256 163.466 17.3251H159.281L158.887 18.6806C158.303 18.0928 157.605 17.6322 156.836 17.3275C156.001 17.0234 155.111 16.9014 154.225 16.9695C152.454 17.0435 150.902 17.6521 149.644 18.9765C148.568 20.11 147.932 21.4918 147.531 22.9976C147.009 25.0068 146.854 27.0944 147.073 29.1593C147.19 30.5436 147.559 31.8945 148.162 33.1445C149.893 36.6788 153.558 37.4401 156.136 36.705C156.885 36.475 157.577 36.0887 158.168 35.5715L158.274 35.6169C158.225 36.6597 158.22 37.705 158.115 38.7406C158.013 39.9148 157.353 40.6211 156.231 40.8693ZM158.241 31.5982C157.444 32.8033 156.29 33.1087 154.965 32.9393C153.679 32.7747 152.972 31.9585 152.68 30.7056C152.478 29.744 152.383 28.7627 152.397 27.7799C152.397 26.4197 152.35 25.0547 152.663 23.723C152.729 23.4295 152.817 23.1415 152.926 22.8616C153.47 21.4894 154.393 21.0264 155.625 21.0216C156.127 21.0138 156.624 21.1226 157.077 21.3395C157.529 21.5564 157.926 21.8756 158.236 22.2721L158.241 31.5982Z" fill="#0A2882"/>
<path d="M181.25 36.6949C181.263 36.6464 181.272 36.5969 181.276 36.5469C181.276 31.7312 181.276 26.9106 181.257 22.0949C181.26 21.1697 181.086 20.2527 180.745 19.3935C180.237 18.1359 179.244 17.4199 178.032 17.0739C175.406 16.3222 173.013 16.8949 170.849 18.563C170.775 18.6179 170.697 18.668 170.635 18.7086V16.8329C170.635 15.5299 170.652 14.2269 170.635 12.924C170.616 11.9098 170.561 10.8979 170.497 9.88609C170.471 9.45654 170.381 9.03176 170.317 8.58789L165.266 9.80495C165.686 12.0171 165.617 14.2007 165.617 16.3795C165.617 22.9691 165.617 29.5595 165.617 36.1508V36.6829H170.649V22.787C171.753 21.8467 172.945 21.1165 174.395 21.0282C175.511 20.9566 176.156 21.3575 176.346 22.565C176.398 22.8806 176.424 23.1998 176.425 23.5196C176.425 27.7483 176.425 31.9762 176.425 36.2033V36.7044L181.25 36.6949Z" fill="#0A2882"/>
<path d="M69.2963 36.9039C70.7935 37.4644 72.4146 37.603 73.9844 37.3048C75.1167 37.1248 76.1617 36.5845 76.9658 35.7632C77.0845 35.6415 77.2198 35.5245 77.3646 35.4052C77.9718 36.4489 78.9071 37.2599 80.0232 37.7105C80.9086 36.6557 81.7726 35.6271 82.6343 34.5914C82.5203 34.4912 82.4325 34.4101 82.3399 34.3361C81.2979 33.5247 80.8469 32.427 80.8706 31.1049C80.9133 28.8927 80.9489 26.6829 80.9656 24.4731C80.9656 23.4589 80.9822 22.4399 80.892 21.4328C80.7211 19.507 79.6932 18.1969 77.9628 17.4762C76.2323 16.7555 74.4402 16.7436 72.6314 17.0228C70.8226 17.302 69.1183 18.0609 67.478 18.9176C67.0935 19.1204 66.7255 19.3638 66.3363 19.5953L68.4489 23.2632C69.4023 22.5888 70.4268 22.0222 71.5039 21.5736C72.3867 21.2001 73.3407 21.0273 74.2977 21.0677C75.1618 21.1226 75.6982 21.471 75.9024 22.1679C76.1 22.9768 76.1633 23.8129 76.0899 24.6426C74.9671 24.6927 73.8823 24.7165 72.7999 24.7953C71.7275 24.871 70.673 25.1125 69.6737 25.5112C68.0311 26.1722 66.8086 27.2795 66.2603 29.0502C65.9113 30.2297 65.8374 31.4742 66.0443 32.6871C66.3624 34.7179 67.4139 36.1617 69.2963 36.9039ZM71.3425 30.1456C71.4021 29.829 71.5392 29.5323 71.7414 29.2823C71.9437 29.0323 72.2047 28.8369 72.5008 28.7137C72.826 28.5784 73.1629 28.4738 73.5073 28.4011C74.3417 28.2556 75.1892 28.2004 76.0353 28.2365C76.0068 29.6397 75.976 31.0095 75.9475 32.3864C75.4418 32.9946 74.7595 33.4285 73.9963 33.6273C72.667 33.94 71.5371 33.193 71.2879 31.8137C71.1938 31.2596 71.2123 30.6922 71.3425 30.1456Z" fill="#0A2882"/>
<path d="M138.456 24.8906C138.387 23.7581 138.147 22.6428 137.744 21.5831C137.103 19.9365 136.122 18.5762 134.537 17.7649C133.655 17.3195 132.699 17.0413 131.717 16.9439C130.293 16.7864 128.89 16.858 127.553 17.4212C125.085 18.4593 123.594 20.4066 122.83 22.9887C122.524 24.112 122.365 25.2702 122.355 26.4346C122.298 28.234 122.45 30.0142 123.093 31.6847C124.078 34.2787 125.82 36.0852 128.443 36.8489C129.735 37.2355 131.091 37.3599 132.431 37.2148C133.772 37.0698 135.07 36.6582 136.251 36.0041C137.011 35.6054 137.72 35.1141 138.361 34.5412C137.715 33.5222 137.084 32.5223 136.44 31.501C136.224 31.6704 136.027 31.8279 135.828 31.9782C134.48 32.959 133.003 33.5199 131.337 33.4292C130.15 33.3624 129.16 32.9161 128.488 31.8876C127.845 30.9139 127.681 29.8066 127.693 28.6206H138.612C138.572 27.3343 138.539 26.1125 138.456 24.8906ZM133.419 24.8405H127.774C127.731 23.9527 127.886 23.0664 128.227 22.2465C128.939 20.619 130.969 20.063 132.31 21.1154C132.831 21.5534 133.181 22.1617 133.3 22.8336C133.435 23.4934 133.475 24.1693 133.419 24.8405Z" fill="#0A2882"/>
<path d="M108.887 12.3447C109.307 12.4067 109.718 12.518 110.112 12.6764C110.35 12.7528 110.556 12.8721 110.784 12.9723L112.348 9.85571C112.328 9.82455 112.304 9.79574 112.277 9.7698C112.203 9.71968 112.127 9.67195 112.052 9.629C110.186 8.60249 108.006 8.31233 105.939 8.81524C104.126 9.2257 102.822 10.3163 102.191 12.1562C101.785 13.3327 101.761 14.5569 101.856 15.7859C101.892 16.2775 101.937 16.7691 101.982 17.3013H100.242V20.8069H101.904V36.686H106.753V20.7878H110.228L111.479 17.2846H106.685C106.685 16.3897 106.685 15.5425 106.685 14.6953C106.677 14.5594 106.677 14.4232 106.685 14.2872C106.82 12.989 107.62 12.2588 108.887 12.3447Z" fill="#0A2882"/>
<path d="M184.56 31.6529C184.56 32.154 184.577 32.6528 184.622 33.1492C184.731 34.3925 185.248 35.4115 186.283 36.1035C186.698 36.3827 187.144 36.611 187.613 36.7836C188.932 37.2609 190.293 37.2609 191.648 37.0223C192.461 36.8831 193.252 36.6359 194 36.2873C193.789 35.2683 193.583 34.266 193.371 33.2494C193.196 33.2971 193.058 33.3329 192.923 33.3735C192.378 33.5539 191.806 33.6348 191.233 33.6121C190.243 33.5429 189.709 33.0847 189.571 32.0777C189.5 31.4925 189.464 30.9036 189.464 30.3141C189.464 27.3001 189.464 24.2837 189.464 21.2721V20.7948H192.628L193.884 17.2844H189.424C189.521 15.2917 189.616 13.3588 189.713 11.4043L184.676 12.7073C184.619 14.2417 184.562 15.7571 184.503 17.313H182.711V20.7972H184.548V21.3389C184.553 24.7721 184.557 28.2101 184.56 31.6529Z" fill="#0A2882"/>
<path d="M92.2907 30.8194C92.2805 31.7567 92.3432 32.6934 92.4782 33.621C92.5727 34.3392 92.8637 35.017 93.3189 35.5786C93.7741 36.1403 94.3755 36.5639 95.0561 36.802C95.6174 37.0231 96.2124 37.1458 96.815 37.1648C97.9269 37.2209 99.0382 37.0413 100.076 36.6374C99.794 35.6208 99.5163 34.6233 99.2314 33.6043L99.051 33.621C98.1015 33.7618 97.6268 33.4348 97.4701 32.454C97.3909 31.8849 97.3544 31.3105 97.3609 30.7358C97.3396 24.1923 97.3348 17.6464 97.3087 11.1006C97.3087 10.294 97.1972 9.48497 97.1331 8.62109L92.058 9.80236C92.0479 9.85833 92.0415 9.91495 92.0391 9.97179C92.1198 11.4657 92.2646 12.9596 92.2764 14.4558C92.3025 19.9111 92.2741 25.3664 92.2907 30.8194Z" fill="#0A2882"/>
<path d="M113.078 36.6934H118.006V23.0074C119.241 21.6018 120.641 20.8811 122.488 21.7116C122.941 20.2225 123.385 18.7572 123.841 17.261C123.009 16.8205 122.046 16.7009 121.132 16.9245C119.886 17.187 118.932 17.9554 118.106 18.91C117.944 19.0961 117.785 19.2846 117.581 19.5257C117.528 18.5757 117.257 17.6509 116.788 16.8243L112.383 18.0365C112.411 18.1487 112.428 18.2179 112.445 18.2895C112.577 18.9219 112.739 19.5495 112.841 20.1986C113.025 21.5179 113.104 22.8497 113.078 24.1815V36.703V36.6934Z" fill="#0A2882"/>
<path d="M140.25 36.6973H145.138V16.8281L140.25 17.618V36.6973Z" fill="#0A2882"/>
<path d="M84.25 36.6882H89.1755V16.8262L84.25 17.6208V36.6882Z" fill="#0A2882"/>
<path d="M86.7897 8.78516C86.3793 8.78515 85.973 8.86668 85.594 9.02507C85.2151 9.18346 84.871 9.41558 84.5816 9.70809C84.2922 10.0006 84.0632 10.3477 83.9076 10.7295C83.7521 11.1113 83.6732 11.5202 83.6753 11.9328C83.6558 12.3443 83.7191 12.7555 83.8613 13.1419C84.0036 13.5282 84.2219 13.8817 84.5033 14.1812C84.7847 14.4807 85.1233 14.72 85.4988 14.8848C85.8743 15.0497 86.2791 15.1366 86.6889 15.1405C87.0986 15.1443 87.5049 15.065 87.8835 14.9073C88.262 14.7495 88.605 14.5166 88.8919 14.2225C89.1788 13.9283 89.4037 13.579 89.5531 13.1954C89.7026 12.8118 89.7735 12.4019 89.7616 11.9901C89.7687 10.1812 88.475 8.78754 86.7897 8.78516Z" fill="#0A2882"/>
<path d="M142.773 8.78516C142.365 8.78765 141.961 8.87126 141.584 9.03118C141.207 9.19111 140.866 9.4242 140.579 9.71709C140.293 10.01 140.066 10.3569 139.913 10.738C139.76 11.119 139.684 11.5267 139.688 11.9376C139.688 13.7011 141.031 15.1115 142.709 15.1067C143.118 15.1005 143.521 15.0135 143.896 14.8506C144.271 14.6877 144.61 14.4522 144.894 14.1574C145.179 13.8627 145.403 13.5145 145.553 13.1328C145.704 12.7511 145.778 12.3434 145.772 11.9328C145.781 11.528 145.711 11.1254 145.565 10.7479C145.419 10.3705 145.201 10.0256 144.923 9.73318C144.644 9.44075 144.311 9.20647 143.942 9.04379C143.573 8.8811 143.176 8.79321 142.773 8.78516Z" fill="#0A2882"/>
<path d="M2.13671 32.8972C3.16454 34.6727 4.54367 36.0544 6.40942 36.8825C8.07821 37.6102 9.92155 37.8341 11.7147 37.5268C13.5102 37.262 15.1741 36.4256 16.4622 35.1404C17.6918 33.9049 18.624 32.4029 19.1872 30.7495C20.075 28.2891 20.3432 25.738 20.291 23.113C20.2828 23.0477 20.2668 22.9836 20.2435 22.9221H10.0365V28.0027H14.0884C13.7727 29.0599 13.3763 30.0121 12.6832 30.79C11.1331 32.5225 8.83775 32.4128 7.41826 30.5633C6.85508 29.8182 6.44662 28.9669 6.21715 28.06C5.47477 25.2096 5.43079 22.2208 6.08897 19.3496C6.30663 18.2543 6.76573 17.2219 7.4325 16.3285C8.84012 14.4862 11.3848 14.4814 12.7473 16.2044C13.1413 16.7031 13.4594 17.2711 13.8202 17.8438H19.6453C19.389 17.1112 19.1706 16.412 18.9071 15.7581C18.195 14.0471 17.2075 12.546 15.7477 11.4196C13.6991 9.83984 11.3776 9.37449 8.87572 9.66563C6.11983 9.99257 4.00009 11.3886 2.46666 13.7225C1.13737 15.7366 0.505963 17.9918 0.21162 20.3519C-0.11704 22.8616 -0.0626078 25.407 0.373034 27.9001C0.665096 29.6568 1.26207 31.3483 2.13671 32.8972Z" fill="#0A2882"/>
</g>
<defs>
<clipPath id="clip0_1804_2720">
<rect width="194" height="48" fill="white"/>
</clipPath>
</defs>
</svg>
