<svg width="194" height="48" viewBox="0 0 194 48" fill="none" xmlns="http://www.w3.org/2000/svg">
<g clip-path="url(#clip0_788_2)">
<path d="M0.0214844 46.9495V47.9995H193.957V45.8828H0.0214844V46.9495Z" fill="#FF7A00"/>
<path d="M193.951 0H0.03125V2.10003H193.951V0Z" fill="#FF7A00"/>
<path d="M64.6963 21.5201C65.2637 19.9618 65.285 18.351 64.9954 16.7354C64.4993 13.972 62.9968 12.0533 60.4213 11.0605C59.0255 10.5236 57.5728 10.3852 56.094 10.3828C53.6965 10.3828 51.299 10.3828 48.9016 10.3828H48.5146V36.805H53.7131V26.2166C55.8495 29.8153 57.9217 33.3161 59.9892 36.8026H66.4505L59.581 26.4457L60.0557 26.25C62.2443 25.3431 63.8537 23.8254 64.6963 21.5201ZM59.4741 19.7804C59.194 20.988 58.368 21.6275 57.2286 21.8685C56.897 21.9335 56.56 21.9662 56.2221 21.9664C55.4008 21.9664 54.5771 21.9664 53.7107 21.9664V15.4897C53.8294 15.4897 53.9481 15.4635 54.0549 15.4635C54.9641 15.4778 55.8779 15.4825 56.7871 15.5183C57.3055 15.548 57.8079 15.7098 58.2469 15.9885C58.6439 16.2304 58.974 16.5687 59.2071 16.9724C59.4402 17.376 59.5687 17.832 59.581 18.2985C59.618 18.7951 59.582 19.2944 59.4741 19.7804Z" fill="#FF7A00"/>
<path d="M36.8638 19.8835C37.0469 19.3249 37.1695 18.748 37.2293 18.1629C37.4548 15.681 36.681 13.6096 34.7321 12.0656C33.1679 10.8247 31.3591 10.3522 29.4197 10.3355C27.1386 10.314 24.8598 10.3212 22.581 10.3164C22.4837 10.3164 22.3888 10.3307 22.2891 10.3379V36.8269H22.5644C24.8741 36.8269 27.1813 36.8269 29.491 36.8269C30.6234 36.8461 31.7545 36.7404 32.864 36.5119C34.7274 36.0895 36.2774 35.1564 37.3741 33.5217C38.3462 32.0553 38.836 30.3192 38.7746 28.558C38.7414 25.9759 37.4548 23.4965 34.5755 22.5371L34.922 22.3176C35.8395 21.7675 36.5289 20.9033 36.8638 19.8835ZM27.3688 14.9914C28.3682 14.9603 29.3272 14.9627 30.2458 15.2539C30.6656 15.3872 31.061 15.5887 31.416 15.8505C31.9857 16.2752 32.2089 16.9196 32.2469 17.6283C32.3442 19.5852 31.2974 20.4156 29.8446 20.7736C29.474 20.8655 29.0958 20.923 28.7147 20.9454C28.278 20.9741 27.8365 20.9454 27.3688 20.9454V14.9914ZM33.4385 29.9732C33.3416 30.3374 33.1628 30.6745 32.9158 30.9583C32.6689 31.2421 32.3604 31.4652 32.0142 31.6102C31.3602 31.916 30.6511 32.0848 29.9301 32.1066C29.0827 32.1448 28.2305 32.1066 27.357 32.1066V25.26C28.6673 25.26 29.9681 25.198 31.2119 25.5965C33.4385 26.3005 33.8562 28.3027 33.4361 29.9732H33.4385Z" fill="#FF7A00"/>
<path d="M156.227 40.8713C155.796 40.9648 155.359 41.0239 154.919 41.0479C153.288 41.1529 151.743 40.7519 150.247 40.1243C149.737 39.9095 149.243 39.647 148.719 39.4084C148.322 40.5801 147.933 41.728 147.553 42.8615C147.596 42.9116 147.61 42.9427 147.634 42.9546C150.361 44.3578 153.205 45.1859 156.291 44.7921C157.344 44.6756 158.376 44.4105 159.355 44.0046C160.184 43.6795 160.916 43.1462 161.482 42.4556C162.048 41.765 162.428 40.9402 162.586 40.0599C162.814 38.9026 162.922 37.7245 162.909 36.5447C162.909 31.8483 162.909 27.1519 162.909 22.465C162.9 20.9216 163.05 19.3814 163.355 17.8688C163.391 17.697 163.424 17.5275 163.462 17.3271H159.277L158.883 18.6825C158.299 18.0948 157.601 17.6342 156.832 17.3295C155.997 17.0254 155.107 16.9033 154.221 16.9715C152.45 17.0455 150.898 17.654 149.64 18.9785C148.564 20.112 147.928 21.4937 147.527 22.9995C147.005 25.0087 146.85 27.0964 147.069 29.1612C147.186 30.5456 147.555 31.8964 148.158 33.1465C149.889 36.6808 153.554 37.442 156.132 36.707C156.881 36.4769 157.573 36.0907 158.164 35.5735L158.271 35.6188C158.221 36.6617 158.216 37.7069 158.111 38.7426C158.009 39.9167 157.35 40.6231 156.227 40.8713ZM158.237 31.6001C157.44 32.8052 156.286 33.1107 154.962 32.9413C153.675 32.7766 152.968 31.9605 152.676 30.7076C152.474 29.7459 152.379 28.7646 152.393 27.7819C152.393 26.4216 152.346 25.0566 152.659 23.725C152.725 23.4315 152.813 23.1435 152.923 22.8635C153.466 21.4913 154.389 21.0284 155.621 21.0236C156.123 21.0158 156.62 21.1245 157.073 21.3414C157.526 21.5584 157.923 21.8775 158.233 22.2741L158.237 31.6001Z" fill="#FF7A00"/>
<path d="M181.248 36.6968C181.261 36.6483 181.27 36.5988 181.274 36.5489C181.274 31.7331 181.274 26.9126 181.255 22.0969C181.258 21.1717 181.084 20.2546 180.743 19.3954C180.235 18.1378 179.243 17.4219 178.03 17.0759C175.404 16.3242 173.012 16.8969 170.847 18.565C170.773 18.6199 170.695 18.67 170.633 18.7106V16.8348C170.633 15.5319 170.65 14.2289 170.633 12.9259C170.614 11.9117 170.559 10.8999 170.495 9.88804C170.469 9.45849 170.379 9.03371 170.315 8.58984L165.264 9.80691C165.684 12.0191 165.615 14.2026 165.615 16.3814C165.615 22.9711 165.615 29.5615 165.615 36.1527V36.6849H170.647V22.7889C171.751 21.8487 172.943 21.1184 174.393 21.0301C175.509 20.9585 176.154 21.3595 176.344 22.567C176.396 22.8825 176.422 23.2017 176.423 23.5215C176.423 27.7502 176.423 31.9781 176.423 36.2052V36.7064L181.248 36.6968Z" fill="#FF7A00"/>
<path d="M69.2963 36.9019C70.7935 37.4624 72.4146 37.601 73.9844 37.3028C75.1167 37.1228 76.1617 36.5825 76.9658 35.7612C77.0845 35.6395 77.2198 35.5226 77.3646 35.4033C77.9718 36.447 78.9071 37.258 80.0232 37.7085C80.9086 36.6537 81.7726 35.6252 82.6343 34.5895C82.5203 34.4893 82.4325 34.4081 82.3399 34.3341C81.2979 33.5228 80.8469 32.425 80.8706 31.103C80.9133 28.8908 80.9489 26.681 80.9656 24.4712C80.9656 23.4569 80.9822 22.438 80.892 21.4309C80.7211 19.5051 79.6932 18.1949 77.9628 17.4742C76.2323 16.7536 74.4402 16.7416 72.6314 17.0208C70.8226 17.3 69.1183 18.0589 67.478 18.9156C67.0935 19.1185 66.7255 19.3619 66.3363 19.5934L68.4489 23.2613C69.4023 22.5869 70.4268 22.0202 71.5039 21.5717C72.3867 21.1981 73.3407 21.0254 74.2977 21.0658C75.1618 21.1207 75.6982 21.4691 75.9024 22.1659C76.1 22.9748 76.1633 23.8109 76.0899 24.6406C74.9671 24.6907 73.8823 24.7146 72.7999 24.7933C71.7275 24.869 70.673 25.1105 69.6737 25.5092C68.0311 26.1703 66.8086 27.2776 66.2603 29.0483C65.9113 30.2278 65.8374 31.4723 66.0443 32.6851C66.3624 34.716 67.4139 36.1597 69.2963 36.9019ZM71.3425 30.1436C71.4021 29.827 71.5392 29.5303 71.7414 29.2804C71.9437 29.0304 72.2047 28.835 72.5008 28.7118C72.826 28.5765 73.1629 28.4718 73.5073 28.3992C74.3417 28.2536 75.1892 28.1984 76.0353 28.2345C76.0068 29.6377 75.976 31.0075 75.9475 32.3845C75.4418 32.9926 74.7595 33.4265 73.9963 33.6254C72.667 33.938 71.5371 33.1911 71.2879 31.8117C71.1938 31.2577 71.2123 30.6902 71.3425 30.1436Z" fill="#FF7A00"/>
<path d="M138.457 24.8906C138.388 23.7581 138.148 22.6428 137.745 21.5831C137.104 19.9365 136.123 18.5762 134.538 17.7649C133.656 17.3195 132.7 17.0413 131.718 16.9439C130.293 16.7864 128.891 16.858 127.554 17.4212C125.086 18.4593 123.595 20.4066 122.83 22.9887C122.525 24.112 122.366 25.2702 122.356 26.4346C122.299 28.234 122.451 30.0142 123.094 31.6847C124.079 34.2787 125.821 36.0852 128.444 36.8489C129.736 37.2355 131.092 37.3599 132.432 37.2148C133.773 37.0698 135.071 36.6582 136.252 36.0041C137.012 35.6054 137.721 35.1141 138.362 34.5412C137.716 33.5222 137.085 32.5223 136.441 31.501C136.225 31.6704 136.028 31.8279 135.829 31.9782C134.481 32.959 133.004 33.5199 131.338 33.4292C130.151 33.3624 129.161 32.9161 128.489 31.8876C127.846 30.9139 127.682 29.8066 127.694 28.6206H138.613C138.573 27.3343 138.54 26.1125 138.457 24.8906ZM133.42 24.8405H127.775C127.732 23.9527 127.887 23.0664 128.228 22.2465C128.94 20.619 130.97 20.063 132.311 21.1154C132.832 21.5534 133.182 22.1617 133.301 22.8336C133.436 23.4934 133.476 24.1693 133.42 24.8405Z" fill="#FF7A00"/>
<path d="M108.885 12.3447C109.305 12.4067 109.716 12.518 110.11 12.6764C110.348 12.7528 110.554 12.8721 110.782 12.9723L112.346 9.85571C112.326 9.82455 112.302 9.79574 112.275 9.7698C112.201 9.71968 112.126 9.67195 112.05 9.629C110.184 8.60249 108.004 8.31233 105.937 8.81524C104.124 9.2257 102.82 10.3163 102.189 12.1562C101.783 13.3327 101.759 14.5569 101.854 15.7859C101.89 16.2775 101.935 16.7691 101.98 17.3013H100.24V20.8069H101.902V36.686H106.751V20.7878H110.227L111.477 17.2846H106.683C106.683 16.3897 106.683 15.5425 106.683 14.6953C106.675 14.5594 106.675 14.4232 106.683 14.2872C106.818 12.989 107.618 12.2588 108.885 12.3447Z" fill="#FF7A00"/>
<path d="M184.56 31.6548C184.56 32.156 184.577 32.6547 184.622 33.1511C184.731 34.3944 185.248 35.4134 186.283 36.1055C186.698 36.3846 187.144 36.613 187.613 36.7856C188.932 37.2629 190.293 37.2629 191.648 37.0242C192.461 36.885 193.252 36.6378 194 36.2892C193.789 35.2702 193.583 34.2679 193.371 33.2513C193.196 33.2991 193.058 33.3349 192.923 33.3754C192.378 33.5559 191.806 33.6367 191.233 33.6141C190.243 33.5449 189.709 33.0867 189.571 32.0796C189.5 31.4945 189.464 30.9056 189.464 30.3161C189.464 27.302 189.464 24.2856 189.464 21.274V20.7967H192.628L193.884 17.2863H189.424C189.521 15.2937 189.616 13.3607 189.713 11.4062L184.676 12.7092C184.619 14.2437 184.562 15.759 184.503 17.315H182.711V20.7991H184.548V21.3408C184.553 24.7741 184.557 28.2121 184.56 31.6548Z" fill="#FF7A00"/>
<path d="M92.2877 30.8194C92.2775 31.7567 92.3402 32.6934 92.4753 33.621C92.5697 34.3392 92.8608 35.017 93.316 35.5786C93.7711 36.1403 94.3725 36.5639 95.0531 36.802C95.6145 37.0231 96.2094 37.1458 96.8121 37.1648C97.924 37.2209 99.0352 37.0413 100.074 36.6374C99.7911 35.6208 99.5133 34.6233 99.2285 33.6043L99.0481 33.621C98.0986 33.7618 97.6239 33.4348 97.4672 32.454C97.388 31.8849 97.3515 31.3105 97.358 30.7358C97.3366 24.1923 97.3319 17.6464 97.3058 11.1006C97.3058 10.294 97.1942 9.48497 97.1301 8.62109L92.0551 9.80236C92.0449 9.85833 92.0386 9.91495 92.0361 9.97179C92.1168 11.4657 92.2616 12.9596 92.2735 14.4558C92.2996 19.9111 92.2711 25.3664 92.2877 30.8194Z" fill="#FF7A00"/>
<path d="M113.077 36.6915H118.005V23.0055C119.24 21.5999 120.64 20.8792 122.487 21.7096C122.94 20.2205 123.384 18.7553 123.84 17.259C123.008 16.8186 122.045 16.6989 121.131 16.9225C119.885 17.185 118.931 17.9535 118.105 18.908C117.943 19.0942 117.784 19.2827 117.58 19.5237C117.527 18.5737 117.256 17.649 116.787 16.8223L112.382 18.0346C112.41 18.1468 112.427 18.216 112.444 18.2876C112.576 18.9199 112.738 19.5476 112.84 20.1967C113.024 21.5159 113.103 22.8477 113.077 24.1796V36.701V36.6915Z" fill="#FF7A00"/>
<path d="M140.252 36.6973H145.139V16.8281L140.252 17.618V36.6973Z" fill="#FF7A00"/>
<path d="M84.248 36.6901H89.1735V16.8281L84.248 17.6228V36.6901Z" fill="#FF7A00"/>
<path d="M86.7926 8.78516C86.3822 8.78515 85.9759 8.86668 85.597 9.02507C85.218 9.18346 84.874 9.41558 84.5845 9.70809C84.2951 10.0006 84.0661 10.3477 83.9106 10.7295C83.755 11.1113 83.6761 11.5202 83.6783 11.9328C83.6587 12.3443 83.722 12.7555 83.8642 13.1419C84.0065 13.5282 84.2249 13.8817 84.5062 14.1812C84.7876 14.4807 85.1262 14.72 85.5017 14.8848C85.8773 15.0497 86.282 15.1366 86.6918 15.1405C87.1015 15.1443 87.5079 15.065 87.8864 14.9073C88.265 14.7495 88.6079 14.5166 88.8948 14.2225C89.1817 13.9283 89.4066 13.579 89.5561 13.1954C89.7055 12.8118 89.7764 12.4019 89.7645 11.9901C89.7716 10.1812 88.478 8.78754 86.7926 8.78516Z" fill="#FF7A00"/>
<path d="M142.773 8.78516C142.364 8.78765 141.96 8.87126 141.583 9.03118C141.207 9.19111 140.865 9.4242 140.578 9.71709C140.292 10.01 140.065 10.3569 139.912 10.738C139.759 11.119 139.683 11.5267 139.687 11.9376C139.687 13.7011 141.03 15.1115 142.708 15.1067C143.117 15.1005 143.52 15.0135 143.895 14.8506C144.27 14.6877 144.609 14.4522 144.893 14.1574C145.178 13.8627 145.402 13.5145 145.552 13.1328C145.703 12.7511 145.777 12.3434 145.771 11.9328C145.78 11.528 145.71 11.1254 145.564 10.7479C145.419 10.3705 145.2 10.0256 144.922 9.73318C144.643 9.44075 144.31 9.20647 143.941 9.04379C143.572 8.8811 143.175 8.79321 142.773 8.78516Z" fill="#FF7A00"/>
<path d="M2.13671 32.8953C3.16454 34.6707 4.54367 36.0525 6.40942 36.8805C8.07821 37.6083 9.92155 37.8321 11.7147 37.5249C13.5102 37.26 15.1741 36.4237 16.4622 35.1385C17.6918 33.903 18.624 32.401 19.1872 30.7475C20.075 28.2871 20.3432 25.7361 20.291 23.111C20.2828 23.0457 20.2668 22.9816 20.2435 22.9201H10.0365V28.0008H14.0884C13.7727 29.0579 13.3763 30.0101 12.6832 30.7881C11.1331 32.5206 8.83775 32.4108 7.41826 30.5614C6.85508 29.8163 6.44662 28.965 6.21715 28.058C5.47477 25.2077 5.43079 22.2189 6.08897 19.3477C6.30663 18.2523 6.76573 17.22 7.4325 16.3265C8.84012 14.4842 11.3848 14.4794 12.7473 16.2024C13.1413 16.7012 13.4594 17.2691 13.8202 17.8419H19.6453C19.389 17.1092 19.1706 16.41 18.9071 15.7561C18.195 14.0451 17.2075 12.5441 15.7477 11.4177C13.6991 9.83788 11.3776 9.37254 8.87572 9.66368C6.11983 9.99061 4.00009 11.3867 2.46666 13.7206C1.13737 15.7347 0.505963 17.9898 0.21162 20.35C-0.11704 22.8596 -0.0626078 25.405 0.373034 27.8981C0.665096 29.6549 1.26207 31.3463 2.13671 32.8953Z" fill="#FF7A00"/>
</g>
<defs>
<clipPath id="clip0_788_2">
<rect width="194" height="48" fill="white"/>
</clipPath>
</defs>
</svg>
