<svg width="209" height="194" viewBox="0 0 209 194" fill="none" xmlns="http://www.w3.org/2000/svg">
<rect x="190" y="153" width="18" height="0.999999" rx="0.5" transform="rotate(90 190 153)" fill="#FF7A00"/>
<rect x="131.508" y="113.809" width="70.6902" height="1" rx="0.5" transform="rotate(33.8836 131.508 113.809)" fill="#FF7A00"/>
<rect x="67" y="114" width="65" height="1" rx="0.5" fill="#FF7A00"/>
<path d="M19.851 21.238C20.0973 21.113 20.3982 21.2113 20.5232 21.4576L67.5417 114.089C67.6666 114.336 67.5683 114.637 67.3221 114.762C67.0759 114.886 66.7749 114.788 66.6499 114.542L19.6315 21.9102C19.5065 21.664 19.6048 21.363 19.851 21.238Z" fill="#FF7A00"/>
<circle cx="19" cy="19" r="18.85" stroke="#FF7A00" stroke-width="0.3"/>
<circle cx="19" cy="19" r="14.5" stroke="#FF7A00"/>
<circle cx="19" cy="19" r="10" stroke="#FF7A00" stroke-width="2"/>
<circle cx="19" cy="19" r="6" fill="#6476FA"/>
<circle cx="190" cy="175" r="18.85" stroke="#FF7A00" stroke-width="0.3"/>
<circle cx="190" cy="175" r="14.5" stroke="#FF7A00"/>
<circle cx="190" cy="175" r="10" stroke="#FF7A00" stroke-width="2"/>
<circle cx="190" cy="175" r="6" fill="#6476FA"/>
</svg>
