<svg width="28" height="28" viewBox="0 0 28 28" fill="none" xmlns="http://www.w3.org/2000/svg">
<path d="M27.5911 26.1037L21.0215 19.5354C22.8557 17.3456 23.8372 14.5751 23.7913 11.6993C23.7422 8.59455 22.5086 5.67797 20.3181 3.48683C18.0681 1.23814 15.0784 0 11.8994 0C8.7203 0 5.73002 1.23814 3.48068 3.48747C-1.16023 8.12903 -1.16023 15.682 3.48068 20.3242C4.59792 21.4408 5.89618 22.311 7.33992 22.9091C8.78237 23.5065 10.316 23.8091 11.8974 23.8091C14.6569 23.8091 17.3265 22.8515 19.4497 21.1065L26.0174 27.6748C26.2275 27.8843 26.5068 28 26.8042 28C27.1016 28 27.3816 27.8843 27.5904 27.6748C27.7999 27.4647 27.915 27.186 27.915 26.8892C27.915 26.5925 27.7999 26.3132 27.5904 26.1037H27.5911ZM11.8994 21.5875C9.31318 21.5875 6.88152 20.5802 5.05244 18.7511C3.22594 16.9259 2.22056 14.4943 2.22056 11.9042C2.22056 10.6157 2.46625 9.36717 2.95116 8.19433C3.43607 7.0215 4.14339 5.96698 5.05244 5.05858C6.88023 3.2295 9.31189 2.22218 11.8994 2.22218C14.4868 2.22218 16.9166 3.2295 18.7463 5.05729C22.5208 8.83377 22.5215 14.9766 18.7476 18.7511C16.9172 20.5802 14.4849 21.5875 11.8994 21.5875Z" fill="#FF7A00"/>
</svg>
