<svg width="263" height="154" viewBox="0 0 263 154" fill="none" xmlns="http://www.w3.org/2000/svg">
<g clip-path="url(#clip0_1631_7)">
<path d="M257.936 80.9507H3.94808C1.76874 80.9507 0 79.1798 0 76.9978C0 74.8158 1.76874 73.0449 3.94808 73.0449H257.936C260.115 73.0449 261.884 74.8158 261.884 76.9978C261.884 79.1798 260.115 80.9507 257.936 80.9507Z" fill="#6476FA"/>
<path d="M189.423 154C188.413 154 187.402 153.615 186.633 152.841C185.091 151.296 185.091 148.793 186.633 147.248L253.903 79.9015C254.677 79.1267 255.104 78.0937 255.104 76.9974C255.104 75.9011 254.677 74.8681 253.903 74.0933L186.633 6.74634C185.091 5.20207 185.091 2.69856 186.633 1.1543C188.176 -0.389974 190.676 -0.389974 192.219 1.1543L259.489 68.5066C261.752 70.7729 263 73.7929 263 76.9974C263 80.2072 261.752 83.2219 259.489 85.4883L192.219 152.841C191.445 153.615 190.434 154 189.423 154Z" fill="#6476FA"/>
</g>
<defs>
<clipPath id="clip0_1631_7">
<rect width="263" height="154" fill="white"/>
</clipPath>
</defs>
</svg>
