<svg width="48" height="48" viewBox="0 0 48 48" fill="none" xmlns="http://www.w3.org/2000/svg">
<path d="M39.0458 32.3008H9.78828C9.31578 32.3008 8.92578 32.6908 8.92578 33.1633C8.92578 33.6358 9.31578 34.0258 9.78828 34.0258H39.0458C39.5183 34.0258 39.9083 33.6358 39.9083 33.1633C39.9083 32.6908 39.5183 32.3008 39.0458 32.3008Z" fill="#6476FA"/>
<path d="M25.7543 20.1072C25.2293 19.8747 24.6443 19.7547 24.0668 19.7547C23.9393 19.7547 23.8193 19.7547 23.6918 19.7697C22.5293 19.8372 21.4718 20.3547 20.7068 21.2172C19.9418 22.0797 19.5593 23.1897 19.6268 24.3372C19.6943 25.4847 20.2043 26.5422 21.0668 27.3072C21.9293 28.0722 23.0318 28.4622 24.1868 28.3872C25.3343 28.3197 26.3918 27.8097 27.1568 26.9472C27.9218 26.0847 28.3043 24.9747 28.2368 23.8272C28.1993 23.1147 27.9743 22.4247 27.5993 21.8172L27.4043 21.5022L35.5118 12.3747L36.8843 10.9047C37.0793 10.7172 37.1843 10.4772 37.1768 10.2297C37.1768 9.98224 37.0568 9.74974 36.8768 9.59224C36.6893 9.42724 36.4493 9.35974 36.1943 9.38974C35.9393 9.40474 35.7143 9.50974 35.5568 9.68224L34.1918 11.1522L26.0993 20.2647L25.7693 20.1222L25.7543 20.1072ZM26.4893 23.9547C26.5193 24.6297 26.2943 25.2822 25.8443 25.7847C25.3868 26.2947 24.7643 26.6022 24.0818 26.6397C24.0293 26.6397 23.9768 26.6397 23.9243 26.6397C23.3018 26.6397 22.6943 26.4072 22.2218 25.9947C21.7118 25.5372 21.4043 24.9147 21.3668 24.2322C21.3293 23.5497 21.5543 22.8897 22.0118 22.3797C22.4693 21.8697 23.0918 21.5622 23.7743 21.5247H23.8718C24.5768 21.5247 25.1468 21.7347 25.6268 22.1547C26.0918 22.5672 26.3918 23.1372 26.4593 23.7522C26.4743 23.8047 26.4893 23.8797 26.4893 23.9547Z" fill="white"/>
<path d="M36.3455 15.3391C35.948 15.5866 35.8205 16.1116 36.068 16.5091C37.4555 18.7591 38.1905 21.3466 38.1905 24.0016C38.1905 24.4666 38.573 24.8491 39.038 24.8491C39.503 24.8491 39.8855 24.4666 39.8855 24.0016C39.8855 21.0316 39.0605 18.1291 37.508 15.6166C37.388 15.4216 37.2005 15.2866 36.983 15.2341C36.7655 15.1816 36.533 15.2191 36.338 15.3391H36.3455Z" fill="#0A2882"/>
<path d="M9.63836 23.9981C9.63836 16.1231 16.0434 9.72563 23.9109 9.72563C26.0259 9.72563 28.0584 10.1756 29.9559 11.0606C30.1584 11.1581 30.3909 11.1656 30.6084 11.0906C30.8184 11.0156 30.9909 10.8581 31.0884 10.6481C31.1859 10.4456 31.1934 10.2131 31.1184 9.99563C31.0434 9.78563 30.8859 9.61312 30.6834 9.51562C28.5609 8.51812 26.2809 8.01562 23.9184 8.01562C15.1059 8.01562 7.94336 15.1856 7.94336 23.9906C7.94336 24.4556 8.32586 24.8381 8.79086 24.8381C9.25586 24.8381 9.63836 24.4556 9.63836 23.9906V23.9981Z" fill="#0A2882"/>
<path d="M24 0C10.77 0 0 10.77 0 24C0 37.23 10.77 48 24 48C37.23 48 48 37.23 48 24C48 10.77 37.23 0 24 0ZM24 46.2975C11.7075 46.2975 1.7025 36.2925 1.7025 24C1.7025 11.7075 11.7075 1.7025 24 1.7025C36.2925 1.7025 46.2975 11.7075 46.2975 24C46.2975 36.2925 36.2925 46.2975 24 46.2975Z" fill="#6476FA"/>
</svg>
