<svg width="98" height="98" viewBox="0 0 98 98" fill="none" xmlns="http://www.w3.org/2000/svg">
<g filter="url(#filter0_d_793_3004)">
<rect x="12" y="5" width="74" height="74" rx="37" fill="#6476FA"/>
<path d="M40.469 46.4892C40.6145 46.6474 40.7917 46.7743 40.9895 46.8621C41.1874 46.9499 41.4016 46.9965 41.6187 46.9992C42.0598 47.0128 42.489 46.8576 42.8157 46.5665L48.6903 41.142C48.8163 41.0338 49.0211 40.8174 49.3361 41.142L55.2107 46.5665C55.5322 46.8515 55.9524 47.0054 56.3856 46.9968C56.8187 46.9882 57.2322 46.8177 57.5417 46.5201C57.6954 46.3684 57.8154 46.1871 57.894 45.9876C57.9726 45.7881 58.0082 45.5747 57.9984 45.361C57.983 44.9281 57.7966 44.518 57.4787 44.2174L50.1236 37.4638C49.974 37.314 49.7949 37.1957 49.5973 37.116C49.3996 37.0363 49.1875 36.9969 48.9738 37.0002C48.5538 37.0135 48.1521 37.1723 47.8399 37.4484L40.5478 44.2174C40.3827 44.3567 40.249 44.5281 40.1548 44.7206C40.0607 44.9132 40.0083 45.1229 40.0009 45.3363C39.9935 45.5498 40.0313 45.7625 40.1119 45.9609C40.1924 46.1593 40.314 46.3392 40.469 46.4892Z" fill="white"/>
</g>
<defs>
<filter id="filter0_d_793_3004" x="0" y="0" width="98" height="98" filterUnits="userSpaceOnUse" color-interpolation-filters="sRGB">
<feFlood flood-opacity="0" result="BackgroundImageFix"/>
<feColorMatrix in="SourceAlpha" type="matrix" values="0 0 0 0 0 0 0 0 0 0 0 0 0 0 0 0 0 0 127 0" result="hardAlpha"/>
<feOffset dy="7"/>
<feGaussianBlur stdDeviation="6"/>
<feComposite in2="hardAlpha" operator="out"/>
<feColorMatrix type="matrix" values="0 0 0 0 0.22217 0 0 0 0 0.236419 0 0 0 0 0.279167 0 0 0 0.3 0"/>
<feBlend mode="normal" in2="BackgroundImageFix" result="effect1_dropShadow_793_3004"/>
<feBlend mode="normal" in="SourceGraphic" in2="effect1_dropShadow_793_3004" result="shape"/>
</filter>
</defs>
</svg>
