<svg width="26" height="26" viewBox="0 0 26 26" fill="none" xmlns="http://www.w3.org/2000/svg">
<circle cx="13" cy="13" r="12.5" stroke="#0A2882"/>
<path d="M6 17.4625C7.18228 18.221 8.55015 18.6393 9.95398 18.6718C11.3578 18.7043 12.7435 18.3496 13.9595 17.6466C15.1755 16.9437 16.175 15.9195 16.8486 14.686C17.5222 13.4526 17.844 12.0575 17.7787 10.6533C18.3047 10.2706 18.7601 9.79925 19.1248 9.26036C18.633 9.47675 18.1117 9.61867 17.5781 9.68148C18.1412 9.34604 18.5625 8.81607 18.7624 8.19136C18.2314 8.50272 17.6515 8.72178 17.0474 8.83924C16.6407 8.41056 16.1046 8.12762 15.5215 8.03401C14.9384 7.94039 14.3407 8.04131 13.8206 8.32119C13.3004 8.60107 12.8866 9.0444 12.6429 9.58289C12.3991 10.1214 12.339 10.7251 12.4718 11.3012C11.4022 11.2473 10.3559 10.9691 9.40043 10.4848C8.44501 10.0004 7.60183 9.32061 6.92547 8.48938C6.57988 9.08217 6.47383 9.78481 6.62905 10.4533C6.78427 11.1219 7.18902 11.7057 7.76034 12.0851C7.33155 12.0725 6.91206 11.9569 6.53715 11.7482C6.53062 12.3762 6.74286 12.9869 7.13735 13.4752C7.53184 13.9635 8.08395 14.299 8.69876 14.424C8.30222 14.5335 7.88563 14.549 7.48205 14.4693C7.6537 15.0056 7.98881 15.4746 8.44034 15.8104C8.89188 16.1462 9.43715 16.332 9.99958 16.3417C9.43988 16.7837 8.79827 17.1103 8.11179 17.3026C7.42532 17.495 6.70757 17.5494 6 17.4625Z" fill="#0A2882"/>
</svg>
