<svg width="80" height="32" viewBox="0 0 80 32" fill="none" xmlns="http://www.w3.org/2000/svg">
<g clip-path="url(#clip0_1184_317)">
<path d="M52.1619 15.2227H27.8004C27.3696 15.2227 27.0234 15.5731 27.0234 15.9998C27.0234 16.4265 27.3696 16.7769 27.8004 16.7769H52.1619C52.5927 16.7769 52.9388 16.4265 52.9388 15.9998C52.9388 15.5731 52.5927 15.2227 52.1619 15.2227Z" fill="white"/>
<path d="M24.8698 0.0304762C24.8237 0.0228571 24.7775 0 24.7314 0H18.0237C17.5929 0 17.2468 0.350476 17.2468 0.777143V5.36381H11.316C10.8852 5.36381 10.5391 5.71429 10.5391 6.14095V25.859C10.5391 26.2857 10.8852 26.6362 11.316 26.6362H17.2468V31.2229C17.2468 31.6495 17.5929 32 18.0237 32H24.7314C24.9468 32 25.1391 31.9162 25.2775 31.7714C25.416 31.6343 25.5083 31.4362 25.5083 31.2229V0.777143C25.5083 0.39619 25.2314 0.0990476 24.8698 0.0304762V0.0304762ZM17.2468 25.0895H12.1006V6.9181H17.2468V25.0819V25.0895ZM23.9544 30.4533H18.8083V1.55429H23.9544V30.4457V30.4533Z" fill="#6476FA"/>
<path d="M68.6609 5.36381H62.7302V0.777143C62.7302 0.40381 62.4686 0.114286 62.1148 0.0304762C62.0609 0.0152381 62.0071 0 61.9455 0H55.2379C54.8071 0 54.4609 0.350476 54.4609 0.777143V31.2229C54.4609 31.3295 54.484 31.4286 54.5225 31.5276C54.5379 31.5657 54.5686 31.5962 54.5917 31.6343C54.6225 31.68 54.6455 31.7333 54.684 31.779C54.6994 31.7943 54.7225 31.8019 54.7379 31.8171C54.8763 31.9314 55.0455 32.0076 55.2379 32.0076H61.9455C62.1609 32.0076 62.3532 31.9238 62.4917 31.779C62.6302 31.6419 62.7225 31.4438 62.7225 31.2305V26.6438H68.6532C69.084 26.6438 69.4302 26.2933 69.4302 25.8667V6.14095C69.4302 5.71429 69.084 5.36381 68.6532 5.36381H68.6609ZM61.1763 30.4457H56.0302V1.55429H61.1763V30.4457ZM67.884 25.0819H62.7379V6.9181H67.884V25.0819Z" fill="#6476FA"/>
</g>
<defs>
<clipPath id="clip0_1184_317">
<rect width="80" height="32" fill="white"/>
</clipPath>
</defs>
</svg>
